<?xml version="1.0" encoding="UTF-8"?><svg xmlns="http://www.w3.org/2000/svg" viewBox="0 0 64 52.44"><defs><style>.cls-1{fill:#e0f3fc;}.cls-1,.cls-2{stroke:#9ebcc8;stroke-miterlimit:10;}.cls-2{fill:none;}.cls-3{fill:#f0f9fc;}</style></defs><g id="Layer_1"><path class="cls-1" d="M63.5,12c0,1.79-.5,3.49-1.39,5-1.88,3.2-5.51,5.57-9.88,6.28-.06.18-.13.36-.2.54h.03s-.79,3.71-8.17,6.2c-7.39,2.48-8.39,6.48-8.39,6.48-1,2-1.29,2.5-3.5,2.5s-2.5-.5-3.5-2.5c-1.45-3.62-5.51-5.66-7.65-6.51-1.13-.26-2.2-.61-3.17-1.03-4.05-1.45-5.22-3.74-5.55-4.77,0-.01,0-.02-.01-.03-.14-.29-.25-.58-.35-.88-.05,0-.14-.02-.23-.04-1.25-.22-6.94-1.41-9.65-6.24-.45-.8-1.39-2.63-1.39-5C.5,5.65,6.77.5,14.5.5c3.69,0,7.06,1.18,9.56,3.11,1.96-1.31,4.57-2.11,7.44-2.11,3.14,0,5.97.96,7.97,2.49,2.54-2.16,6.1-3.49,10.03-3.49,7.73,0,14,5.15,14,11.5Z"/></g><g id="Layer_2"><path class="cls-2" d="M11.5,23.5c.33-.04,5.35-.15,6.94-3.05,1.42-2.58.05-6.03-3.18-7.11"/><ellipse class="cls-2" cx="14.5" cy="13" rx="1" ry=".5"/><path class="cls-2" d="M52,23.15c-.3-.04-5-.15-6.48-3.05-1.32-2.58-.05-6.03,2.97-7.11"/><ellipse class="cls-2" cx="49.2" cy="12.65" rx=".93" ry=".5"/><path class="cls-2" d="M23.99,3.62c.31.13,1.48.95,2,2,.18.37.45,1.23,0,2-.59,1.01-1.94,1-2,1"/><ellipse class="cls-2" cx="23.56" cy="8.52" rx=".31" ry=".34"/><path class="cls-2" d="M39.85,3.73c-.3.13-1.45.95-1.96,2-.18.37-.44,1.23,0,2,.58,1.01,1.9,1,1.96,1"/><ellipse class="cls-2" cx="40.26" cy="8.64" rx=".3" ry=".34"/><path class="cls-3" d="M10.36,3.78c-7.54,2.65-9.27,13.18-.76,15.67-1.85-.09-3.75-.92-5-2.44-4.01-5.05-.34-12.34,5.76-13.22h0Z"/><path class="cls-3" d="M54.24,4.01c7.71,1.4,9.05,14.53.65,15.67,7.12-2.36,5.68-13.16-.65-15.67h0Z"/><path class="cls-3" d="M20.38,14.32c3.29,1.08,2.74,6.01-.31,7.03.44-.57.8-1.13,1.06-1.72.87-1.84.67-3.65-.76-5.31h0Z"/><path class="cls-3" d="M42.89,14.1c-1.66,2.26-1.17,4.86.27,7.03-2.76-1.13-3.21-5.85-.27-7.03h0Z"/><path class="cls-3" d="M27.18,4.69c2.37-2.19,6.79-2.38,8.87.31-2.93-1.39-5.87-1.11-8.87-.31h0Z"/><path class="cls-1" d="M20.37,29.87c1.85.45,2.93.15,3.59-.23.31-.18.7-.48,1.41-.73.48-.17,1.09-.37,1.83-.23.28.05.92.18,1.41.73.19.22.63.7.5,1.26-.13.55-.73.89-1.26.92-.6.03-1.02-.34-1.11-.42"/><path class="cls-1" d="M43.13,30.25c-1.71.45-2.71.15-3.32-.23-.29-.18-.65-.48-1.31-.73-.44-.17-1.01-.37-1.7-.23-.26.05-.85.18-1.31.73-.18.22-.58.7-.46,1.26.12.55.68.89,1.17.92.56.03.94-.34,1.02-.42"/><path class="cls-3" d="M30.31,35.56c.93,1.25,2.41,1.6,3.44.08.51,2.73-3.9,2.55-3.44-.08h0Z"/><path class="cls-3" d="M14.64,24.48c2.46,2.24,5.17,3.31,8.48,3.44-3.06,1.42-7.28-.28-8.48-3.44h0Z"/><path class="cls-3" d="M49.19,24.25c-1.23,2.8-4.54,4.64-7.57,4.2,2.88-1.03,5.17-2.3,7.57-4.2h0Z"/><circle class="cls-1" cx="26.59" cy="30.92" r=".25"/><circle class="cls-1" cx="36.9" cy="31.26" r=".25"/></g></svg>