<?xml version="1.0" encoding="UTF-8"?>
<svg xmlns="http://www.w3.org/2000/svg" xmlns:xlink="http://www.w3.org/1999/xlink" viewBox="0 0 1370 815">
  <defs>
    <style>
      .cls-1 {
        fill: #9ec7ed;
      }

      .cls-2 {
        fill: #d7eef4;
      }

      .cls-3 {
        fill: #a5c6e5;
      }

      .cls-4 {
        fill: #94c9eb;
      }

      .cls-5 {
        fill: #a5cdeb;
      }

      .cls-6 {
        fill: #b1d7ee;
      }

      .cls-7 {
        fill: #aed5eb;
      }

      .cls-8 {
        fill: #8cb3d1;
      }

      .cls-9 {
        fill: #97c0e6;
      }

      .cls-10 {
        fill: #badae1;
      }

      .cls-11 {
        fill: #c8e4ed;
      }

      .cls-12 {
        fill: #c3dfed;
      }

      .cls-13 {
        fill: #9fceea;
      }

      .cls-14 {
        fill: #b2dce8;
      }

      .cls-15 {
        fill: #a1c7d6;
      }

      .cls-16 {
        fill: #9bbee8;
      }

      .cls-17 {
        fill: #e0f3fc;
      }

      .cls-18 {
        fill: #769bae;
      }

      .cls-19 {
        fill: #85b2e8;
      }

      .cls-20 {
        fill: #bfdbef;
      }

      .cls-21 {
        fill: #c6e4f8;
      }

      .cls-22 {
        fill: #78abdd;
      }

      .cls-23 {
        fill: #abd5e5;
      }

      .cls-24 {
        fill: #9ac6ee;
      }

      .cls-25 {
        fill: #78b3c9;
      }

      .cls-26 {
        fill: #75aae0;
      }

      .cls-27 {
        fill: #bcddf8;
      }

      .cls-28 {
        fill: #d9eef4;
      }

      .cls-29 {
        fill: #b3d3ef;
      }

      .cls-30 {
        fill: #dceff4;
      }

      .cls-31 {
        fill: #c3ebf8;
      }

      .cls-32 {
        fill: #94b7ed;
      }

      .cls-33 {
        fill: #94c4f5;
      }

      .cls-34 {
        fill: #b5cee2;
      }

      .cls-35 {
        fill: #b3d4e5;
      }

      .cls-36 {
        fill: #b1d3e8;
      }

      .cls-37 {
        fill: #bedeed;
      }

      .cls-38 {
        fill: url(#linear-gradient);
      }

      .cls-39 {
        fill: #9ecae3;
      }

      .cls-40 {
        fill: #a2d1eb;
      }

      .cls-41 {
        fill: #b0d3ea;
      }

      .cls-42 {
        fill: #b5d8e0;
      }

      .cls-43 {
        fill: #a3cae7;
      }
    </style>
    <linearGradient id="linear-gradient" x1="685" y1="769" x2="685" y2="0" gradientUnits="userSpaceOnUse">
      <stop offset="0" stop-color="#a6dde9"/>
      <stop offset=".17" stop-color="#a2d9e7"/>
      <stop offset=".32" stop-color="#97cfe0"/>
      <stop offset=".47" stop-color="#84bed6"/>
      <stop offset=".62" stop-color="#69a6c8"/>
      <stop offset=".77" stop-color="#4787b6"/>
      <stop offset=".91" stop-color="#1e62a0"/>
      <stop offset="1" stop-color="#004790"/>
    </linearGradient>
  </defs>
  <g id="Layer_1">
    <path class="cls-38" d="M1370,0v494.4l-.11-.15c-.14-.21-.29-.42-.41-.64l-.32,43.43-.02,4.1c-.23.07-.47.14-.7.2-.02,0-.02.01-.04.01l-.8,109.56-.05,7.51v.04l-.12,15.16,2.57,2.56v92.82H.99v-209.44c-.32-.05-.64-.1-.97-.18.34-.06.66-.12.97-.17v-13.22c-.61-.11-.95-.25-.98-.41-.04-.14.3-.33.98-.56V0h1369.01Z"/>
  </g>
  <g id="Layer_2">
    <path class="cls-33" d="M314.74,451.55c2.35-1.19-.81-6.53,2.65-10.82,3.52-4.36,11.08-4.14,14.09-4.06,8.16.24,13.28,3.31,18.58,5.6,13.03,5.62,35.49,10.08,49.22,1.74,4.3-2.61,5.57-5.16,12.46-8.5,5.7-2.76,8.11-2.6,15.11-5.79,5.1-2.33,13.04-6.61,12.46-8.11-.61-1.56-9.49,2.41-22.46.77-6.95-.88-5.71-2.18-14.5-3.48-7.87-1.16-11.95-.57-18.99-3.09-3.25-1.17-3.6-1.73-6.74-3.09-8.14-3.53-15.25-3.82-25.53-4.25-8.35-.35-5.47.57-23.89.97-1.92.04-4.02.08-6.74.77-7.53,1.93-12.06,6.93-13.27,8.3-1.49,1.69-9.27,10.52-6.33,20.47,2.4,8.11,11.03,14,13.89,12.55Z"/>
    <path class="cls-5" d="M316.71,535.88c-8.62,5.31-17.46,11.34-25.9,18.24-4.9,4.01-9.65,8.3-14.16,12.95-5.47,5.59-10.56,11.67-15.07,18.31-11.06,16.26-7.87,19.89-16.42,38.44-1.82,3.94-4.15,8.54-7.27,14.08-5.93,10.55-12.31,21.87-19.75,32.85-2.6,3.82-5.33,7.61-8.21,11.3-1.8,2.32-3.69,4.62-5.63,6.87-7.5,8.64-15.98,16.54-25.9,23.13,0,0-.02.02-.04.02-2.9,1.92-5.93,3.74-9.08,5.41-6.22,3.3-12.77,5.98-19.58,8.05h-.02c-1.5.49-2.99.93-4.52,1.31-3.54.98-7.16,1.77-10.81,2.39h-.04c-13.43,2.41-27.39,2.8-41.29,1.38,0,0-.02.02-.07,0-.04-.02-.07-.02-.12-.02h-.14c-.16-.02-.36-.05-.59-.08-.18-.02-.39-.03-.62-.07-.18-.03-.37-.05-.59-.07-.05-.02-.12-.02-.18-.02-.34-.03-.64-.07-.98-.12-.16-.02-.34-.03-.52-.05-6.34-.79-12.65-1.95-18.85-3.45-18.63-4.53-36.35-12.18-51.39-22.4-5.08-3.44-9.73-7.09-14-10.95v-239.39c9.81-2.98,21.32-5.14,34.82-6.89,19.2-2.49,42.45-4.16,70.66-6.2,8.62-.62,17.03-1.08,25.19-1.4,3.03-.13,6.02-.24,8.98-.3h.02c1.26-.05,2.53-.08,3.79-.1h.04c7.05-.17,13.93-.24,20.59-.19,25.31.12,47.77,1.57,67.1,3.69h.02c39.36,4.3,65.73,11.3,76.63,15.4,1.44.54,2.62,1.03,3.51,1.45,3.05,1.43,9.07,5.05,18.24,5.91,11.04,1.04,15.6-2.97,23.4.27,5.59,2.31,11.19,7.63,10.63,12.35-.52,4.3-5.75,5.22-6.27,9.28-.68,5.32,8.18,7.5,9.96,11.54.05.1.09.2.12.3,2.8,8.17-25.03,17.89-55.7,36.76Z"/>
    <path class="cls-41" d="M88.68,584.81c3.28,13.43,9,18.39,13.48,20.47,3.22,1.5,5.29,1.27,21.65,2.32,15.89,1.02,18.56,1.53,19.6,3.48,2.87,5.34-9.89,14.93-7.35,18.15,1.4,1.77,6.28.15,13.07-1.54,17.98-4.49,21.17-.74,26.14-4.64,7.24-5.68,7.4-17.35,5.31-24.72-2.28-8.05-7.72-12.6-13.89-17.77-5.34-4.47-21.8-18.25-34.31-13.52-6.03,2.28-5.68,6.8-12.66,11.2-8.61,5.42-19.1,4.81-26.55,3.48l-4.49,3.09Z"/>
    <path class="cls-40" d="M154.57,748.59c-.36,1.87-1.16,3.57-2.4,5.15-.61.79-1.32,1.55-2.16,2.29-.77.69-1.62,1.36-2.58,2.04h-.02c-4.19,2.93-10.21,5.76-18.17,9.13-3.51,1.48-7.41,3.07-11.7,4.82-11.27,4.58-33.95,13.54-61.97,15.5-.45.03-.89.07-1.35.08-8.41.54-17.3.42-26.5-.64-6.77-.77-13.7-2.06-20.71-3.98-.68-.19-1.34-.37-2.01-.57v-3c-.32-.07-.64-.13-.96-.24.34-.08.66-.17.96-.24v-17.82c-.61-.15-.94-.34-.98-.56-.04-.19.3-.44.98-.76v-87.06c17.7-4.08,43.78,1.08,69.25,10.75,14.07,5.36,27.96,12.09,40.13,19.42,5.29,3.17,10.26,6.47,14.77,9.8l.02.02c2.39,1.75,4.63,3.52,6.73,5.29,3.51,2.95,6.63,5.91,9.28,8.83,1.64,1.82,3.1,3.62,4.33,5.41.41.56.78,1.11,1.14,1.67.98,1.53,1.78,3.03,2.42,4.51,1.55,3.57,2.12,6.97,1.51,10.14Z"/>
    <path class="cls-9" d="M53.8,404.02c.02.12,0,.22-.04.32-.09.59-.2,1.2-.32,1.77,0,.07-.02.13-.04.2-1.98,9.3-6.8,17.06-13.88,19.69-2.01.74-4.29,1.1-6.64,1.15-3.88.07-7.94-.74-11.33-2.19-8.67-3.71-10.49-10.66-15.25-10.04-.48.07-.93.2-1.34.39v-57.98c.62-.22,1.23-.42,1.83-.61,5.75-1.73,11.22-1.45,15.07-.82,2.26.35,3.97.84,4.84,1.09,16.73,4.88,23.39,20.2,24.51,22.91,3.1,7.51,3.81,16.24,2.56,24.12Z"/>
    <path class="cls-14" d="M396.41,666.78c1.9.55,22.53,8.67,63.77,24.9,21.72,8.55,34.82,13.78,51.78,22.53,30.81,15.91,52.6,27.5,53.42,45.06.55,11.87-8.74,20.85-9.27,21.35-15.52,14.58-36.02-1.64-78.49-5.34-44.19-3.85-88.78,7.91-97.02,10.08-10.07,2.65-19.02,5.61-33.25,6.52-24.11,1.55-32.96-4.7-53.96-7.12-43.83-5.04-73.43,14.36-76.31,7.12-1.69-4.26,7.32-14.13,16.9-18.97,13.86-7.01,21.69.16,35.97-5.34,12.45-4.79,25.25-17.45,23.44-24.9-3.8-15.62-69.7.38-75.76-17.79-4.11-12.32,20.92-35.58,43.6-48.62,56.2-32.29,119.3-14.07,135.17-9.49Z"/>
    <path class="cls-24" d="M121.33,554.89c.25,5.39-1.69,11.15-5.56,14.67-2.89,2.61-7.37,3.4-16.33,5.02-9.48,1.7-14.21,2.54-18.79.77-7.05-2.75-6.07-7.8-12.25-10.43-6.48-2.78-10.78,1.43-26.54,5.02-12.59,2.85-21.71,4.92-29.41.77-2.64-1.43-5.4-3.72-7.46-6.37v-14.32c7.91-5.49,29.87-7.08,67.03-9.01,1.16-.05,2.35-.12,3.54-.19,1.67-.08,3.37-.17,5.09-.25,23.05-1.16,33.25-.84,37.97,5.79,1.67,2.36,2.56,5.37,2.71,8.51Z"/>
    <path class="cls-12" d="M448.5,524.2c-1.13,1.94-10.16-3.41-18.58.97-3.52,1.83-7.24,5.51-6.74,8.88.33,2.23,2.26,2.63,7.35,6.95,6.7,5.68,5.67,6.95,9.8,9.27,5.81,3.27,9.49,1.68,11.23,4.64,2.1,3.56-2.11,7.83,0,9.85,2.05,1.96,7.74-.42,8.58-.77,5.18-2.17,5.24-4.92,8.78-5.99,5.71-1.73,14.12,2.81,14.5,7.15.36,4.11-6.64,6.55-5.72,9.27.59,1.76,4.08,2.41,11.44,2.7,13.87.56,21.65-.93,21.85-.19.3,1.1-15.94,7.9-38.39,11.59-16.03,2.63-15.02.35-41.86,3.09-18.28,1.86-18.57,3.07-29.34,1.38-7.98-1.25-28.16-3.25-30.9-11.23-2.75-8,9.58-13.63,24.71-34.38,17.47-23.95,16.8-38.08,27.98-39.98,12.8-2.18,26.9,14.1,25.32,16.8Z"/>
    <path class="cls-3" d="M217.9,375.11v.02c-.11,4.7-1,9.52-2.51,13.96.02.02,0,.02,0,.02-.77,2.27-1.69,4.46-2.76,6.5-.27.49-.52.98-.78,1.43,0,.02-.02.03-.02.03-.77,1.35-1.6,2.54-2.49,3.69v.03c-2.01,2.56-4.31,4.73-7.18,6.89-1.75,1.31-3.7,2.61-5.91,3.98-5.68,3.49-13,7.38-22.76,12.87-1.1.62-2.19,1.26-3.35,1.94,0,0-.02-.02-.04,0-.25.13-.5.27-.75.42-5.17,2.96-9.8,5.64-13.98,8.12-2.44,1.45-4.74,2.81-6.89,4.11h-.04s-.04.05-.07.07c-2.65,1.62-5.11,3.12-7.39,4.55-8.09,5.07-14.16,9.2-19.82,13.29-1.76,1.26-3.3,2.41-4.68,3.44-8.51,6.4-11.08,9.23-19.31,15.63l-.02.02c-2.42,1.89-5.34,4.09-9.07,6.79-11.49,8.34-19.72,14.27-27.47,18.63-4.45,2.53-8.76,4.53-13.45,6.17-1.05.39-2.12.74-3.21,1.08-8.19,2.54-27.07,8.39-38.97,2.58v-27.98c9.07-1.5,21.45-.34,29.18-8.98,7.59-8.47,6.48-21.75,5.65-27.27-.12-.94-.27-1.65-.34-2.07-1.89-10.26-5.9-9.92-6.54-17.38-.02-.17-.04-.35-.04-.52-.25-4.28.89-7.8,2.71-10.98,4.44-7.75,12.82-13.46,14.55-22.94.27-1.31.37-2.71.34-4.18-.36-12.5-11.63-21.38-13.48-22.79-5.84-4.45-12.13-6.18-17.44-6.99-6.93-1.08-12.22-.61-12.75-2.54-.02-.03-.04-.08-.04-.12-.16-.99.85-2.39,20.23-8.29.37-.12.77-.24,1.16-.35,6.82-2.07,15.82-4.67,27.63-7.97,3.17-.88,6.16-1.7,8.98-2.29,2.76-.57,5.34-.89,7.69-.81h.02c2.8.08,5.27.78,7.41,2.32,2.48,1.8,3.85,4.31,4.63,6.72.25.77.45,1.53.59,2.24.32,1.55.43,2.91.5,3.79.55,6.97-2.1,13.27-5.66,18.45-5.47,7.92-13.07,13.24-14.77,14.39,3.19-1.89,8.07-5.12,13.07-10.04,2.05-2.02,3.58-3.76,4.81-5.27,3.72-4.62,4.61-7.31,9.08-10.58,6.82-4.99,14.34-4.45,24.1-4.63,6-.12,10.99-.45,15.26-.96h.02c3.05-.34,5.72-.76,8.16-1.21,8.51-1.57,14.16-3.57,21.91-4.51.5-.05,1-.1,1.51-.17.93-.08,1.89-.15,2.89-.22,1.03-.07,2.12-.1,3.26-.12,2.58-.05,5.43.02,8.66.24,17.37,1.15,26.24.59,32.27,6.18,3.78,3.5,6.04,8.25,7.07,13.51.5,2.61.71,5.34.64,8.1Z"/>
    <path class="cls-19" d="M84.8,370.89c-7.63,5.87-10.23,9.62-11.03,13.91-.21,1.14-1.16,6.97,2.45,11.59,1.22,1.56,4.04,4.37,19.6,6.18,17.24,2,25.86,3,35.53-.39,3.28-1.15,6.61-2.76,11.44-2.32,4.69.43,11.1,2.81,12.25,6.95,1.59,5.72-8.19,9.99-6.94,13.52,2.36,6.7,43.17,7.38,47.79-6.95,2.41-7.47-5.09-18.82-14.29-22.4-6.68-2.6-10.07.51-17.7-2.11-7.83-2.69-9.59-7.8-16.61-14.89-4.55-4.6-18.59-18.78-34.72-18.15-8.64.33-15.02,5.24-27.77,15.06Z"/>
    <path class="cls-23" d="M1280.73,175.47c2.15,3.71-1.23,13.05-8.09,31.57,0,0-5.2,14.04-11.65,22.91-6.36,8.76-7.63,5.96-11.98,12.85-8.36,13.27-3.98,23.33-12.42,28.91-4.2,2.78-8.41,2.35-9.61,7.01-1.24,4.8,2.16,9.41.65,11.62-2,2.93-9.3-3.21-17.34-5.79-16.61-5.32-30.56,6.27-37.52,12.05-4.23,3.51-11.45,10.73-16.36,15.89-3.53,3.71-2.96,3.31-3.57,3.82-8.68,7.25-19.58,1.83-40.06.12-9.18-.77-9.86.88-16.03-.41-3.68-.77-20.09-5.15-21.29-9.45-2.34-8.35,47.24,7.23,75.78-34.76,11.19-16.46,17.16-35.37,30.63-51.14,18.97-22.2,54.38-13.39,53.68-27-.01-.26,42.6-22.61,45.16-18.2Z"/>
    <path class="cls-34" d="M263.21,352.51c-5.52-.35-23.43,7.94-26.16,13.97-2.06,4.56-1.27,9.17-4.36,10.43-2.33.95-5.16-.71-5.72-1.03-5.06-2.96-3.85-8.81-6.81-9.59-2.94-.77-6.93,4.27-11.71,10.3-.73.92-2.17,2.49-3.63,4.79,0,0-1.03,1.62-1.81,3.19-3.78,7.6-2.45,16.48-2.45,16.48.43,2.86,1.68,11.17,8.17,16.22,5.69,4.43,9.7,1.9,44.11-1.03,1.98-.17,4.75-.4,7.62-2.06,8.07-4.66,8.94-15.95,9.26-20.09,1.27-16.53,4.01-40.92-6.52-41.59Z"/>
    <path class="cls-3" d="M292.74,277.64c-1.44,2.75-4.16,2.7-6.81,4.64-7.5,5.48-8.21,22.32.27,29.61,1.18,1.01,4.17,3.58,8.17,3.61,5.38.03,7.16-4.59,15.25-5.92,2.56-.42,5.1-.41,5.17-1.03.1-.88-5-.97-7.35-4.38-1.23-1.79-1.75-4.57-.54-6.18,1.88-2.51,7.4-1.51,11.98-.77,16.26,2.61,25.92,4.15,35.12,2.06,2.77-.63,13.85-3.15,15.79-10.3,1.66-6.12-4.36-12.09-4.9-12.62-3.92-3.79-7.93-4.13-25.59-6.95-14.88-2.38-15.65-2.72-21.78-3.35-22.39-2.3-24.59.92-25.05,1.8-1.49,2.84,2.29,5.93.27,9.79Z"/>
    <path class="cls-19" d="M100.1,236.44c2.69-.76,6.65-1.59,11.44-1.55,10.24.09,17.89,4.13,24.51,7.98,13.01,7.57,20.3,13.37,34.85,23.95,15.59,11.32,23.46,17.02,27.5,18.54,10.32,3.9,17.9,3.87,25.32,11.07,6.1,5.92,4.05,8.92,8.71,11.33,7.84,4.05,20.28-1.02,38.66-8.5,7.09-2.89,5.97-23.55,8.85-21.76,2.16,1.34,16.19,10.54,16.88,18.28.59,6.62-5.37,14.75-6.4,17.38-4.72,12.02-23.89,17.64-35.4,18.8-3.81.38-19.61,1.47-29.54-6.95-9.27-7.85-7.12-15.43-11.84-15.19-2.41.12-2.52,1.91-3.54,3.86-1.76,3.37-4.43,2.97-4.9,10.3-.53,8.3-.5,8.62-.82,9.01-1.95,2.41-8.22,3.41-33.49-6.44-26.5-10.33-39.74-15.49-44.93-24.72-4.43-7.89-.95-10.03-8.44-30.39-2.02-5.48-4.51-11.41-8.17-18.03-2.77-5.01-5.48-9.09-7.62-12.1l-1.63-4.89Z"/>
    <path class="cls-8" d="M118.94,269.88v.02c-.39.67-.82,1.33-1.28,1.97-3.72,5.36-9.17,9.35-11.7,11.19-10.81,7.9-17.53,6.82-27.09,9.82-1.75.54-3.6,1.23-5.59,2.14-2.4,1.09-4.76,2.51-7.11,4.26-1.37,1.01-2.74,2.16-4.13,3.4-.78.72-1.59,1.47-2.39,2.27-8.69,8.66-18.19,22.08-31.51,41.69-.36.54-.75,1.11-1.12,1.67-1.66,2.43-3.37,4.95-5.13,7.58-.3.44-.59.88-.89,1.31-.39.57-.85,1.26-1.43,2.06-2.64,3.76-7.32,9.45-14.59,12.95v-45.09c7.2-3.72,10.92-6.15,11.52-9.32,1.03-5.34-5.86-6.99-6.95-15.06-1-7.5,3.92-13.98,7.36-18.55,5.33-7.04,8.53-6.96,15.1-13.9,1.25-1.31,2.26-2.51,3.12-3.62,4.79-6.27,3.97-9.52,9.14-15.31,8.83-9.92,21.86-18.43,30.58-22.86.23-.12.48-.24.69-.34,3.81-1.89,6.72-2.95,7.94-2.93,4.2.05,10.88,5.29,17.63,10.92.69.56,1.37,1.13,2.05,1.7.48.4.96.81,1.44,1.21.48.39.96.79,1.43,1.16,1.8,1.5,3.54,2.93,5.22,4.19,2.8,2.12,9.3,7.07,10.21,14.67.46,3.91-.66,7.55-2.53,10.78Z"/>
    <path class="cls-35" d="M147.3,66.22s-20.32,12.2-24.68,20.83c-4.36,8.63-5.85,10.94-5.72,16.48.14,5.54,8.03,7.21,8.03,7.21l5.17.26s13.48-11.59,20.69-13.78c7.22-2.19-7.49-9.66-7.49-9.66,0,0-5.33-6.62-3.07-13.48.89-2.72,2.98-5.47,7.05-7.86Z"/>
    <path class="cls-15" d="M142.13,70.47s-2.74,3.65-2.31,8.79c.43,5.1,3.61,8.4,3.61,8.4,0,0,9.07,4.94,9.24,7.32.17,2.38-10.01,4.89-10.48,6.76,0,0,7.17-4.08,8.61-4.35s7.18-1.19,6.98-3.12c-.2-1.93-3.37-3.06-3.37-3.06,0,0-9.7-3.86-11.98-7.92-2.28-4.06-2.35-5.41-2.35-5.41,0,0-.78-3.38,2.06-7.42Z"/>
    <path class="cls-3" d="M122.71,88.45c6.21-13.92-12.58,19.81-11.74,25.88.9,6.55,4.99,13.38,1.23,18.41-2.41,3.23-6.09,3.09-6.4,5.54-.56,4.47,11.38,8,10.62,11.85-.28,1.44-2.23,2.32-3.81,2.83,0,0-2.99,2.16-9.33-2.86-6.33-5.02,6.53,23.37,6.53,23.37l22.05,12.55s26.14-.39,26.96-1.16c.82-.77,13.68-5.02,7.76-20.28-5.92-15.26-5.11-12.94-5.11-12.94,0,0-2.65-14.87-4.9-17.77-2.25-2.9-44.48-21.63-33.87-45.42Z"/>
    <path class="cls-16" d="M138.51,147.71c-2.05,3.72-3.26,5.91-4.29,9.75-1.22,4.55-2.13,7.94-1.12,11.59.47,1.69,1.14,2.7,1.84,5.79.43,1.92.49,2.97,1.02,3.09.85.2,1.3-3.11,3.57-4.92,2.8-2.24,6.21,1.02,9.29-.97,2.12-1.37,2.27-3.82,3.68-3.77,1.33.05,1.77,2.29,2.86,2.22,1.08-.06,1.99-2.35,2.25-4.35.52-4.01-1.55-7.3-3.57-10.43-1.17-1.8-.68-.67-7.25-8.11-2.28-2.59-3.39-3.91-4.8-3.77-1.13.12-1.96,1.12-3.47,3.86Z"/>
    <path class="cls-16" d="M116.86,124.92c1.29-.57,2.87,3.35,7.66,5.41,3.62,1.55,6,.72,6.64,2.12.77,1.7-2.63,3.05-3.57,7.05-1.02,4.29,1.99,6.59.41,8.59-1.57,1.99-5.94,1.53-8.58.48-.36-.14-5.13-2.12-5.72-6.18-.38-2.62,1.14-5.1,1.33-5.41.81-1.3,1.37-1.39,1.74-2.51.5-1.55-.24-2.37-.51-4.73-.12-1.06-.5-4.34.61-4.83Z"/>
    <path class="cls-26" d="M101.32,240.3c4.47-1.9,10.4-3.55,15.11-1.16,6.44,3.26,4.34,10.88,10.62,15.45,7.89,5.74,16.13-2.72,26.14,1.93,9.11,4.24,5.9,12.93,18.38,25.11,4.36,4.26,9.79,9.56,18.38,11.2,12.57,2.41,26.61-4.03,32.27-13.91,1.08-1.89,4.71-8.23,2.04-12.75-3-5.08-5.94-4.33-6.81-8.24-.56-2.52-3.04-3.98-1.36-6.82,5.11-8.66-6.22-27.69-21.65-37.08-17.59-10.7-37.2-6.85-44.52-5.41-28.26,5.56-44.14,25.59-48.6,31.67Z"/>
    <path class="cls-35" d="M70.69,198.96c-5.54,5.54-16.19,6.65-32.1,7.92h-.02c-.85.07-1.71.13-2.6.2-5.13.4-8.28.39-11.35,1.4-.98.32-1.94.74-2.96,1.31-7.07,3.98-6.56,9.48-13.06,17.37-.78.96-1.62,1.89-2.49,2.75-.37.39-.75.76-1.14,1.13v-35.38c10.83-5.07,16.12-6.75,16.3-10.21.11-2.31-2.19-3.02-5.74-7.34-3.05-3.74-9.07-12.68-7.21-17.55v-.03c.09-.2.18-.37.28-.56,1.18-2.11,4.27-3.5,31.03-1.94,21.8,1.26,24.21,2.44,26.15,3.86,11.1,8.09,13.45,28.52,4.9,37.08Z"/>
    <path class="cls-19" d="M237.74,241.97c1.69-2.47,3.61-4.08,5.45-5.15,11.49-6.66,33.79-.24,35.94,11.59,1.44,7.91-6.24,17.58-15.52,20.09-4.41,1.19-8.13.48-10.62,0-1.6-.31-17.5-3.57-19.33-14.16-.96-5.53,2.4-10.31,4.08-12.36Z"/>
    <path class="cls-22" d="M174.02,285.49c-.67.8,4.96,9.15,14.7,12.1,12.16,3.68,18.69-4.68,27.5-.77,9.31,4.13,5.47,15,15.79,21.37,11.3,6.97,26.85.73,28.59,0,11.03-4.6,16.12-13.28,19.06-18.28,4.57-7.78,9.01-14.58,6.54-20.86-2.24-5.69-11.93-8.6-31.31-14.42-6.82-2.05-13.36-3.72-25.05-6.7-9.81-2.5-13.9-5.44-15.52-3.86-2.47,2.39,10.72,10.53,9.8,20.6-.94,10.33-16.23,20.23-29.41,19.57-11.88-.59-19.95-9.65-20.69-8.76Z"/>
    <path class="cls-22" d="M37.74,312.92c-9.32,6.81-11.13,12.74-11.44,16.22-.32,3.64,1,4.52,1.63,13.91.46,6.8-.11,8.21,1.36,9.53,2.93,2.63,7.95-.45,17.7-.26,7.15.14,7.36,2.17,10.89,1.55,8.8-1.55,15.82-14.14,15.79-25.49,0-2.59-.05-18.65-12.25-22.92-7.64-2.67-17.21.28-23.69,7.47h0Z"/>
    <path class="cls-19" d="M63.7,288.74c-4.17,2.24-.63,16.99-1.31,22.24-.51,3.94.97,5.11,2.18,11.33,2.27,11.71-1.6,14.69,1.36,18.8,3.95,5.49,14.36,5.04,23.96,4.63,10.04-.43,12.58-2.59,24.78-2.83,7.85-.16,7.04.73,13.07.51,17.87-.65,25.4-8.51,31.31-4.64,4.89,3.21,3.51,11.08,4.9,11.07,1.82-.01,7.46-13.49,2.18-22.92-7.1-12.68-26.14-4.14-58.81-17.25-17.99-7.22-35.14-25.51-43.62-20.95Z"/>
    <path class="cls-19" d="M178.51,609.18c1.74,1.59,4.4,4.61,4.63,8.63.17,2.98-1.05,5.75-1.84,7.53-1.63,3.7-2.93,4.11-2.86,5.79.11,2.82,3.8,3.58,8.37,7.15,7.22,5.63,6.18,10.07,13.27,14.87,1.45.98.86.34,7.96,3.67,11.3,5.29,12.58,6.68,13.89,5.99,3.66-1.94.32-16.45-6.13-27.62-2.53-4.39-7.9-13.4-19.4-19.89-7.03-3.97-13.66-5.48-17.9-6.12Z"/>
    <path class="cls-22" d="M138.76,452.42c1.4,2.37,5.88,2.51,12.25,2.7,6.67.21,11.46-.69,16.34-1.54,23.06-4.05,25-3.14,26.14-2.32,4.25,3.08.57,7.35,5.31,18.15,3.19,7.27,7.78,12,12.25,16.61,1.45,1.5,8.94,9.21,10.62,8.11,1.47-.96-3.44-7.35-4.49-18.54-.48-5.11-.91-9.71,2.04-12.36,3.7-3.31,8.8-.06,13.48-3.09,4.32-2.8,6.11-9.55,4.9-14.29-3.57-13.98-34.94-17.25-47.38-18.54-13.32-1.39-23.42-2.31-33.9,3.09-11.31,5.82-20.22,17.53-17.56,22.02Z"/>
    <path class="cls-22" d="M329.09,478.69c-.29-4.63-8.03-8.95-15.11-10.04-12.71-1.96-17.37,7.41-37.98,16.22-17.42,7.45-21.27,3.83-44.93,13.52-4.91,2.01-23.92,9.8-22.87,13.52.62,2.19,7.82,1.64,21.24,2.32,20.52,1.03,24.98,1.35,30.22,3.09,10.57,3.51,9.51,8.61,16.75,9.66,12.21,1.76,25.04-9.63,31.04-17.77,5.73-7.78,4.12-11.1,11.44-18.93,5.87-6.28,10.44-7.93,10.21-11.59Z"/>
    <path class="cls-22" d="M333.99,588c3.44-3.71-3.65-10.72,0-16.22,3.02-4.55,11.86-5.75,14.3-3.09,2.55,2.79-3.49,8.1-.82,13.91,2.47,5.37,10.26,6.52,10.62,6.57,8.53,1.15,15.27-5.45,18.38-8.5,2.23-2.19,14.27-13.97,9.8-24.72-4.27-10.28-20.31-11.57-25.32-11.97-19.47-1.56-33.02,10.53-35.94,13.13-5.82,5.19-7.53,9.37-8.17,11.2-.52,1.5-4.29,12.43,2.45,18.15,4.28,3.64,11.99,4.48,14.7,1.55Z"/>
    <path class="cls-19" d="M317.24,266.95c-3,3.2-.3,7-3.27,11.33-2.53,3.7-6.53,3.89-6.26,5.41.29,1.67,5.36,2.83,9.53,1.8,3.72-.91,5.88-3.35,6.53-4.12,2.66-3.1.83-5.4,3-7.47,2.97-2.84,8.89-1.55,10.07-1.29,4.66,1.02,4.78,3.1,9.8,4.64,1.57.48,8.34,2.55,11.44-.51,1.87-1.86,1.83-5.04,1.09-7.21-2.08-6.08-11.13-8.58-16.61-9.01-.97-.08-1.07-.03-18.79,3.86-3.61.79-5.19,1.14-6.53,2.58Z"/>
    <path class="cls-35" d="M379.05,278.28c1.56,1.95-5.89,11.8-16.34,16.74-.94.45-4.9,2.26-10.48,3.22-2.29.39-6.34.89-11.3.39-3.2-.33-7.53-1.15-7.49-1.8.03-.42,1.89-.61,8.03-1.16,11.94-1.07,13.95-1.18,16.88-2.58,1.78-.85,5.21-2.53,6.81-6.05.35-.78,1.2-2.65.95-5.02-.3-2.89-2-4.23-1.23-5.67.71-1.32,2.87-1.52,3.13-1.54,2.95-.24,3.85,2.31,8.17,3.09,2.01.36,2.5-.07,2.86.39Z"/>
    <path class="cls-11" d="M291.72,365.96c-7.96-4.83-12.34-10.22-18.17-11.97-3.32-1-9.34-2.81-15.52-.19-4.86,2.06-7.05,5.68-10.62,11.59-3.02,4.99-5.37,8.88-4.08,12.94.76,2.42,2.01,2.33,4.08,6.95,1.2,2.67,2.14,4.83,1.84,7.53-.33,2.92-1.85,4.2-1.23,4.83.96.96,4.63-2,11.44-3.28,2.83-.53,4.42-.81,5.92,0,3.06,1.65,4.3,7.01,2.25,9.85-1.37,1.9-6.09,1.97-15.52,2.12-4.2.07-6.39-.09-8.78-1.16-3.46-1.54-4.69-3.8-5.31-3.48-1.21.64.56,10.92,7.56,17,9.9,8.6,29.6,8.18,38.6-1.35,7.5-7.95,7.07-21.73,3.68-30.51-2.75-7.13-8.53-13.76-5.51-18.54,1.5-2.38,11.23-1.21,9.39-2.32Z"/>
    <path class="cls-29" d="M205.88,382.35c.86-.75,6.15,2.05,9.39,6.57,2.31,3.22,1.55,4.49,4.08,7.34.82.92,3.12,3.51,6.74,4.54,4.73,1.35,6.29-1.51,12.56-1.16,5.44.3,5.16,2.51,10.52,2.7,6.16.23,9.65-2.57,11.74-.68,1.43,1.29.98,3.66.92,3.96-.26,1.26-1.36,4.15-9.6,7.15-4.58,1.66-11.57,3.46-25.32,3.09-11.04-.29-16.6-.5-18.58-3.57-2.32-3.59,2.01-6.3.82-15.93-.65-5.22-.97-7.84-2.35-11.01-.68-1.58-1.32-2.64-.92-2.99Z"/>
    <path class="cls-4" d="M46.27,389.82c-3.99,5.82-7.8,10.44-10.89,13.91-3.89,4.36-5.98,6.13-5.45,8.24.89,3.53,8.64,6.13,14.7,4.12,5.89-1.95,9.23-7.93,9.26-13.39.04-8.01-7.08-12.54-7.62-12.88Z"/>
    <path class="cls-16" d="M76.26,236.05c-1.37,2.12-4.63,1.48-8.71,2.44-5.81,1.36-9.16,5.02-15.51,11.98-9.6,10.49-8.53,14.3-13.48,15.83-1.12.34-2.24.45-3.42.37-2.9-.24-6.2-1.72-10.79-4.19-1.51-.81-3.15-1.73-4.97-2.75-5.52-3.08-10.4-5.79-14.39-9.37v-28.64c2.26-.77,4.31-1.84,5.4-4.09,1.73-3.59-.94-6,1.09-8.37,2.33-2.75,8.87-3.02,13.16-.79,1.03.54,1.96,1.23,2.64,2.07,1.3,1.6,1.48,3.37,1.41,5.12-.12,2.81-.94,5.58,1.03,7.5,2.46,2.39,6.47.89,14.45,0,8.18-.89,23.49-2.59,29.85,4.28.02,0,.02.02.02.02.02.03.04.05.07.08.27.3.52.62.77.96,1.75,2.41,2.65,5.63,1.41,7.55Z"/>
    <path class="cls-23" d="M75.55,540.84c-.61.51-1.19.98-1.75,1.4-.45.34-.85.64-1.26.93-5.22,3.69-10.08,5.09-19.59,7.73-16.81,4.65-28.29,7.83-41.66,3.86-1.16-.34-3.46-1.03-6.31-2.34v-56.79c6.75.79,12.47,2.96,14.46,6.59,1.34,2.41.12,3.82,1.64,5.41,3.65,3.82,12.81-1.99,25.04-4.8,4.13-.96,8.6-1.57,13.34-1.36.37.02.75.03,1.14.08,10.01.66,24.4,5,27.47,14.59,2.9,9.13-5.72,19.09-12.52,24.71Z"/>
    <path class="cls-23" d="M93.51,277.78c7.23-3.45,17.09-5.55,18.79-5.92,11.46-2.53,10.1-5.46,17.97-6.18,1.6-.15,15.27-1.23,20.15,6.18,3.67,5.57.78,13.54,0,15.71-2.33,6.45-6.47,9.21-5.45,14.42.16.79.73,3.73,2.72,4.38,3.08,1.01,5.52-4.79,11.16-6.95,8.35-3.21,21.72,2.3,24.51,10.04,2.09,5.82-2.93,9.78,0,13.65,3.19,4.21,9.86.44,15.79,5.67,2.52,2.21,5.59,6.64,5.17,11.33-.21,2.34-1.12,3-.54,4.12,1.62,3.15,9.57-.53,16.61,3.09,4.25,2.18,7.67,6.77,7.9,11.59.23,5.01-3.07,8.58-6.81,12.62-3,3.25-5.03,5.44-7.35,5.15-2.78-.35-2.94-3.63-7.45-12.55-6.05-11.97-8.2-12.52-9.36-12.97-2.51-.98-4.29-.38-15.59,2.86-8.07,2.32-10.07,2.31-11.98,1.8-3.59-.95-7.88-3.91-8.17-7.47-.33-4.16,5.06-5.93,4.36-9.79-.44-2.42-3.09-4.57-5.72-5.15-6.35-1.41-9.94,6.93-15.79,6.18-7.24-.93-9.9-14.76-12.8-14.16-2.77.57-.8,13.29-4.63,14.42-3.29.97-6.34-7.93-13.07-8.24-5.5-.26-6.79,5.53-13.34,6.18-6.26.62-14.01-3.77-15.52-9.27-1.79-6.55,6.39-10.6,4.08-16.74-1.55-4.13-6.8-6.36-10.62-7.98-6.28-2.67-9-1.44-11.71-3.86-3.78-3.37-5.54-10.31-2.18-14.16,2.38-2.72,6.82-3.32,9.94-2.7,3.88.76,4.34,3.13,9.53,4.64.33.09,6.43,1.82,7.62,0,1.01-1.54-2.48-4.07-1.5-6.95.55-1.61,2.2-2.45,3.27-2.96Z"/>
    <path class="cls-4" d="M24.34,262.49c-.2.32-.43.62-.68.89-2.76,2.98-7.11.52-11.84,5.02-3.88,3.71-3.47,7.14-6.84,10.09v-48.9c.39.1.77.2,1.14.32.27.08.53.17.8.25,14.52,4.95,21.96,25.07,17.42,32.33Z"/>
    <path class="cls-4" d="M81.67,349.52c-4.85,1.6-10.73,2.55-12.66,6.95-1.88,4.29.7,10.58,4.9,13.52,3.7,2.6,8.75-.49,33.9-9.66,3.5-1.28,5.58-2,7.76-1.16,6.89,2.65,2.29,16.06,9.8,21.63,6.44,4.78,19.31,1.94,26.96-4.64,4.46-3.83,2.82-6.53,8.58-17,6.28-11.41,9.85-11.91,9.8-15.84-.15-12.32-35.49-30.71-56.77-20.86-13.78,6.38-13.65,20.91-32.27,27.04Z"/>
    <path class="cls-31" d="M346.05,675.39c-.5,2.82,4.46,6.54,8.99,8.11,9.88,3.44,15.96-3.92,23.69-.39,5.62,2.57,9.32,9.63,7.76,14.29-1.92,5.75-11.16,5.9-11.03,8.88.14,3.15,10.61,8.16,17.56,3.86,3.79-2.34,1.25-6.6,5.31-11.97,3.09-4.09,9.23-8.09,14.29-6.95,4.97,1.11,4.42,6.16,11.84,14.29,2.53,2.78,8.13,8.9,16.75,11.97,9.52,3.39,16.88.97,17.97,3.86,1.25,3.29-7.72,7.97-6.53,10.43,1.6,3.32,19.18-2.41,20.42.39.71,1.61-4.31,5.27-9.8,9.27-7.71,5.62-9.94,5.92-9.8,6.95.56,4.35,40.54-.14,91.08,7.34,10.93,1.62,9.01,1.85,15.93,2.7,32.58,4,79.54.63,88.36-19.57,1.57-3.6,2.69-9.47-.27-12.88-3.54-4.07-11.63-3.11-23.69-1.55-9.98,1.3-13.54,5.63-19.33,3.86-.7-.21-8.17-2.27-8.44-6.95-.19-3.29,4.81-4.43,5.34-7.05,1.99-9.79-61.24-37.59-74.54-22.95-2.27,2.5-3.39,6.57-2.45,10.04.68,2.51,3.18,4.96,19.06,11.33,10.52,4.22,13.51,4.74,14.7,7.73,1.66,4.16-1.41,9.97-5.99,12.88-3.9,2.48-8.41,1.77-15.52.26-13.27-2.82-18.34-5.15-27.77-7.73-15.63-4.27-20.24-2.94-31.04-8.5-10.99-5.66-11.4-9.71-11.44-10.82-.09-3.1,4.32-4.06,7.62-9.79,1.9-3.29,3.47-5.49,2.72-7.73-.83-2.5-4.09-1.96-9.7-4.86-6.35-3.28-6.84-6.19-9.6-6.08-5.06.2-4.65,10.08-10.31,13.81-11.76,7.74-34.27-21.19-71.58-23.18-13.21-.7-29.72,1.89-30.56,6.66Z"/>
    <path class="cls-43" d="M435.08,515.17c-.16,1.63-6.88.43-14.98,5.15-1.82,1.06-7.26,4.24-10.62,10.3-2.64,4.78-1.48,6.81-4.63,11.85-1.57,2.5-4.61,7.37-7.9,7.21-4.62-.22-9.85-10.38-8.44-19.31,1.73-10.95,13.22-18.78,23.69-20.6,11.7-2.04,23.09,3.26,22.87,5.41Z"/>
    <path class="cls-7" d="M426.24,525.17c.95,1.72-1.52,3.38-1.84,7.34-.21,2.65.8,3.12,1.02,5.6.41,4.61-2.78,6.17-5.92,13.33-2.75,6.27-1.01,6.66-3.47,10.24-.52.76-4.46,6.29-11.84,7.73-2.3.45-5.81,1.13-9.19-.77-3.4-1.92-5.3-5.7-5.11-9.08.07-1.27.52-3.84,5.92-8.88,9.32-8.71,16.53-9.03,17.56-14.48.57-3.01-1.37-4.26,0-7.34,1.13-2.55,3.86-4.83,7.15-5.21,1.53-.18,4.79-.14,5.72,1.55Z"/>
    <path class="cls-37" d="M400.37,577.06c1.25-2.7,4.3-1.97,8.58-4.64,5.19-3.23,7.42-8.48,9.94-14.42,3.23-7.61,2.22-10.28,5.17-11.97,3.89-2.23,10.75-.55,13.61,3.35,1.85,2.51,1.32,6.01.27,13-.56,3.71-1.04,6.74-2.86,10.43-1.02,2.06-2.52,5.1-5.72,7.85-4.62,3.97-9.76,4.74-15.93,5.67-4.88.73-7.37,1.07-9.67-.39-3-1.9-4.7-6.09-3.4-8.88Z"/>
    <path class="cls-23" d="M379.34,586.04c6.18-.44,10.51-1.99,13.34-3.35,2.82-1.35,5.03-2.92,6.53-2.06,1.41.8,1.57,3.37.82,5.15-.88,2.08-3.21,3.5-5.99,3.61l-14.7-3.35Z"/>
    <path class="cls-36" d="M46.75,496.55c4.66-13.9,28.36-17.37,41.66-19.31,7.9-1.16,30.56-4.47,33.9,2.7,3.26,7-15.79,15.67-13.48,27.42,2.18,11.09,20.57,10.77,24.1,23.56,2.31,8.4-2.85,18.58-10.21,23.18-13.23,8.27-32.22-2.32-43.29-8.5-5.81-3.24-25.16-14.38-31.45-35.15-1.58-5.22-2.79-9.22-1.22-13.91Z"/>
    <path class="cls-39" d="M270.43,694.32c-2.93,4.27-.06,10.66,1.22,13.52.53,1.18,4.76,10.24,14.3,13.13,10.86,3.3,18.51-4.48,23.69-.39,3.72,2.94.41,7.48,3.68,14.29,3.77,7.87,14.43,14.86,23.28,13.52,11.5-1.75,12.18-16.37,24.1-17.77,8.7-1.02,14.61,6.04,18.38,3.09,3.41-2.67,1.1-10.42.41-12.75-1.27-4.27-3.34-6.97-6.94-11.59-5.09-6.52-7.64-9.78-11.84-11.2-4.84-1.64-6.78.5-13.89,0-7-.5-10.09-2.93-15.93-5.02-3.67-1.32-6.01-1.63-30.22-1.93-23.95-.3-28.06-.07-30.22,3.09Z"/>
    <path class="cls-39" d="M329.9,760.76c-4.45,4.27-.09,10.66,1.86,13.52.81,1.18,7.25,10.24,21.74,13.13,16.52,3.3,28.15-4.48,36.02-.39,5.66,2.94.63,7.48,5.59,14.29,5.73,7.87,21.94,14.86,35.4,13.52,17.49-1.75,18.53-16.37,36.65-17.77,13.22-1.02,22.22,6.04,27.95,3.09,5.18-2.67,1.67-10.42.62-12.75-1.93-4.27-5.08-6.97-10.56-11.59-7.74-6.52-11.61-9.78-18.01-11.2-7.37-1.64-10.31.5-21.12,0-10.65-.5-15.34-2.93-24.22-5.02-5.58-1.32-9.14-1.63-45.96-1.93-36.42-.3-42.67-.07-45.96,3.09Z"/>
    <path class="cls-20" d="M18.84,631.62c-.04,3.38,6.02,2.93,12.53,10.56,6.87,8.06,4.8,14.05,11.16,17.51,5.86,3.19,12.58.8,13.34.52,10.2-3.8,12.94-16.6,11.16-17.77-1.28-.84-5.73,3.79-6.53,3.09-1.2-1.04,9.66-10.19,7.35-16.74-1.56-4.42-8.49-5.9-12.25-6.7-16.93-3.6-36.69,3.44-36.76,9.53Z"/>
    <path class="cls-6" d="M119.99,652.99c0,4.47-8.9,5.93-22.87,13.52-5.82,3.16-17.92,10.32-27.77,22.4-4.82,5.91-8.34,10.35-6.94,14.68.44,1.37,2.26,5.47,22.05,10.04,18.02,4.17,29.81,4.25,29.81,4.25,13.46.23,25.61.43,37.61-.68,19.15-1.78,32.83-7.18,36.72-8.59,23.82-8.66,46.98-23.91,44.93-28.58-1.86-4.23-21.39,7-46.56-.39-6.27-1.84-27.85-8.17-37.17-25.11-3.1-5.63-5.23-13.15-13.48-20.86-4.76-4.45-8.83-6.42-11.03-7.34-7.85-3.29-14.84-2.86-16.75-2.7-9.6.81-21.14,5.4-20.83,9.27.26,3.32,9.06,3.38,23.28,11.97,8.78,5.3,8.99,7.43,8.99,8.11Z"/>
    <path class="cls-1" d="M153.48,634.06c-1.04,3.89.3,7.67,4.49,14.29,4.61,7.29,8.23,11,15.93,19.7,10.4,11.74,12.37,14.65,17.97,16.61,4.33,1.52,11.75,2.8,14.3-.39,2.71-3.39-1.39-10.28-2.86-12.75-3.21-5.38-5.6-5.46-9.8-11.2-3.45-4.7-2.35-5.35-6.53-12.75-3.24-5.73-5.91-10.45-11.03-14.68-3.15-2.6-10.22-8.44-16.34-6.18-4.54,1.67-6,6.86-6.13,7.34Z"/>
    <path class="cls-32" d="M21.56,394.84c-.93,3.03-9.48,5.14-16.58,3.32v-16.79c8.75,4.92,17.63,9.99,16.58,13.48Z"/>
    <path class="cls-13" d="M52.33,736.87c2.79-10.55,30.77-11.96,38.8-12.36,25.13-1.26,36.63,4.22,60.45,8.11,47.1,7.7,76.79-1.5,78.42,4.63,1.73,6.51-27.42,18.06-38.39,22.4-21.98,8.71-43.42,16.88-61.26,8.11-8.38-4.12-5.71-6.93-14.3-11.2-21.49-10.68-40.61,5.77-55.95-5.41-4.63-3.37-9.06-9.36-7.76-14.29Z"/>
    <path class="cls-25" d="M279.82,748.07c.25.93-1.6,2.32-4.83,3.99-10.12,5.21-33.81,13.02-48.27,17.25-3.42.99-6.8,1.95-10.22,2.86h-.04c-5.24,1.4-10.49,2.68-15.73,3.86-4.95,1.13-9.92,2.16-14.87,3.1h-.04c-24.12,4.62-47.91,7.19-70.41,8.34-.05,0-.11,0-.16.02-21.34,1.11-41.52.94-59.69.03-1.75-.08-3.47-.19-5.18-.29-.05,0-.11,0-.16-.02-8.62-.49-16.76-1.16-24.31-1.95-6.8-.69-13.14-1.47-18.92-2.27-.68-.1-1.35-.19-2.01-.29v-3.28c-.32-.07-.64-.13-.96-.24.34-.08.66-.17.96-.24v-6.92c7-.57,15.02-1.43,24.06-2.71,16.08-2.26,26.13-4.55,58.81-9.26,6.86-.98,11.95-1.68,15.8-2.19h.02c8-1.03,10.56-1.2,12.36-1.28,11.11-.57,18.74-.02,25.67.79,1.94.22,3.81.45,5.7.71h.02c5.95.74,12,1.48,20.07,1.58,13.8.17,15.55-1.74,37.16-5.36h.04c1.14-.2,2.35-.4,3.63-.59,2.71-.45,5.7-.91,9.01-1.38,9.51-1.38,61.29-8.84,62.48-4.26Z"/>
    <path class="cls-27" d="M322.71,414.67c2.02,2.43,9.01-1.53,21.44-2.9,3.81-.42,6.21-.68,9.6-.39,7.7.67,9.02,3.23,15.93,3.09,3.49-.07,5.07-.76,7.15.39,2.96,1.63,2.03,4.27,4.29,6.37,4.03,3.74,10.78-1.15,22.05.97,4.62.87,10.31,2.96,10.21,4.83-.18,3.19-17.24,4.2-17.15,6.37.07,1.61,9.5,1.84,9.6,3.48.09,1.49-7.53,3.04-16.75,4.83-18.05,3.5-27.12,5.24-29.2,4.63-13.75-4.02-13.79-20.45-24.91-20.86-5.38-.2-10.11,3.47-15.11,7.34-3.6,2.79-7.73,5.98-7.96,10.43-.27,5.07,4.73,8.19,4.08,8.88-1.22,1.33-22.95-6.17-23.48-19.7-.61-15.43,26.93-24.34,29.81-21.44.83.84-.64,2.41.41,3.67Z"/>
    <path class="cls-36" d="M1241.66,457.67c4.66-13.9,28.36-17.37,41.66-19.31,7.9-1.16,13.82.17,17.15,7.34,3.26,7,.96,11.03,3.27,22.79,2.18,11.09,38.54-52.96,42.07-40.17,2.31,8.4-20.82,82.31-28.18,86.91-13.23,8.27-32.22-2.32-43.29-8.5-5.81-3.24-25.16-14.38-31.45-35.15-1.58-5.22-2.79-9.22-1.22-13.91Z"/>
    <path class="cls-42" d="M1077.2,528.61c.49,1.78,15.42-.32,22.33-1.29,10.96-1.54,12.19-2.48,19.6-3.35,12.65-1.48,13.75.7,28.59,0,15.19-.72,24.01-1.25,29.13-7.21,3.09-3.6,6.76-11.42,7.08-12.1,2.09-4.49,1.68-4.8,3.27-7.47,4.09-6.87,8.26-7.19,8.99-11.33.85-4.84-4-9.22-4.63-9.79-6.88-6.21-17.95-4.43-19.88-4.12-14.6,2.35-17.1,12.69-44.38,30.9-4.94,3.3-8.77,5.57-9.8,6.18-23.47,13.85-40.83,17.63-40.3,19.57Z"/>
    <path class="cls-42" d="M1169.78,549.99c-.64,1.62-2.65,6.47-7.62,10.04-5.52,3.96-10.08,3.02-16.61,8.5-1.1.92-3.13,2.62-2.72,3.35.94,1.69,14.25-3.14,15.52-3.61,9.45-3.46,11.14-5.48,16.34-5.41,4.99.06,4.94,1.94,9.8,2.32,2.79.22,7.24-.06,22.6-9.01,11.2-6.53,9.72-6.9,14.16-8.5,9.35-3.36,12.31-.42,20.15-4.38,6.06-3.06,7.84-6.62,11.71-5.92,3.15.57,6.1,3.68,5.99,6.44-.1,2.53-2.71,3.18-7.9,8.5-3.39,3.48-5.09,5.21-5.72,7.47-1.65,5.89,4.18,11.78,5.99,13.65,2.13,2.2,7.08,7.3,12.8,6.95,6.65-.41,10.68-7.95,14.43-13.65,17.32-26.26,36.14-24.15,37.57-38.88,1.27-13.1-12.49-26.23-24.78-31.42-12.08-5.1-23.73-2.94-35.4-.77-15.43,2.87-27.96,9.42-29.13,10.04-11.61,6.17-12.58,9.81-19.6,10.3-10.58.74-14.82-7.04-24.23-4.63-4.82,1.23-9.39,4.71-11.44,9.01-1.61,3.39-.47,4.8-.54,16.22-.06,9.88-.94,12.32-1.36,13.39Z"/>
    <path class="cls-19" d="M1193.33,437.58c-1.59-2.12,1.48-8.92,5.99-9.01,2.47-.05,5.22,1.92,5.45,4.12.3,2.92-3.92,5.24-7.08,5.67-.94.13-3.43.46-4.36-.77Z"/>
    <path class="cls-17" d="M1124.71,376.17c-1.16-1.75,3.9-8,7.76-7.53,1.31.16,2.39,1.08,3.06.58.71-.52.44-2.23,0-2.32-.97-.2-1.6,7.59-6.53,9.46-1.55.59-3.72.67-4.29-.19Z"/>
    <path class="cls-17" d="M1060.86,405.91c4.49-5.58,8.99-9.19,12.18-11.39,4.79-3.31,6.71-3.53,7.96-3.48,4.58.2,6.16,4.28,9.6,3.67,3.03-.54,2.88-3.91,6.74-5.79,4.23-2.07,10.22-.88,10.62.77.67,2.78-14.32,8.23-18.79,9.85-5.84,2.12-10.92,3.43-14.7,4.25-5.3,1.15-9.94,1.77-13.61,2.12Z"/>
    <path class="cls-10" d="M1369.14,181.83v69.81c-.75,1.26-1.6,2.63-2.73,4.46-1.51,2.44-3.51,5.76-6.45,10.88-8.25,14.39-9.32,17.69-12.02,20.42-.39.4-.82.79-1.32,1.21-8.44,7.04-22.83,9.99-31.21,5.47-.62-.3-1.19-.67-1.75-1.09-5.65-4.28-2.67-9.57-8.16-17.77-5.7-8.49-13.5-9.7-19.65-12.23-2.69-1.11-5.04-2.46-6.77-4.77-2.65-3.54-3.44-8.86-2.6-15.11,3.01-22.44,26.93-56.82,60.33-63.94,5.04-1.08,21.23-4.51,32.31,2.66Z"/>
    <path class="cls-36" d="M1369.14,259.71v20.64c-4.11,2.43-11.08,4.51-21.2,7.06-4.38,1.09-9.35,2.27-14.93,3.6-8.48,2-13.89,2.95-17.6,3.08-3.72.13-5.73-.56-7.46-1.8-7.64-5.54-2.62-18.48-10.33-21.88-5.82-2.58-11.99.45-19.34,3.34-8.39,3.28-16.35,5.59-24.79,7.45-7.98,1.75-16.39,3.1-26.02,4.48-3.24.49-6.63.96-10.17,1.47-.21.03-.41.05-.62.08h-.02c-4.24.59-7.86.98-11.01,1.3-12.11,1.18-17.17,1.09-23.21,6.1-8.5,7.04-5.15,12.82-13.34,20.58-13.07,12.42-35.02,10.46-48.18,9.28-8.32-.74-16.85-1.5-22.5-3.47-3.37-1.16-5.7-2.76-6.38-5.04-.12-.39-.18-.79-.18-1.2v-.02c-.14-3.64,3.58-8.14,9.51-12.89h.02c.8-.66,1.66-1.31,2.53-1.97,0-.02.02-.02.02-.02,7.07-5.24,16.49-10.7,26.17-15.65h.02c6.25-3.2,12.59-6.18,18.47-8.74,1.62-.69,3.19-1.36,4.72-2,4.19-1.74,7.87-3.15,11.54-4.4,12.61-4.3,24.85-6.64,55-13.24,4.15-.89,8.64-1.89,13.5-2.96,4.19-.93,8.19-1.84,12.04-2.7,11.9-2.7,22.16-5.05,31.1-7.08,29.44-6.62,44.58-9.47,56.71-7.45,4.52.76,8.62,2.19,12.88,4.35,7.87,3.98,15.18,9.89,20.32,16.09,1,1.2,1.91,2.41,2.73,3.6Z"/>
    <path class="cls-17" d="M25.39,137.39s4.9-19.06,14.7-17c9.8,2.06,8.71,11.85,15.79,11.33,7.08-.51,15.79-3.61,20.15,1.55,2.4,2.83,6.27,2.86,9.28,2.31,3.34-.61,6.79.03,9.5,1.97,4.13,2.94,9.24,7.52,9.27,12.16.02,2.87,1.83,5.48,4.75,6.3,2.14.6,4.87.83,8.18.05,8.99-2.12,13.48,13.52,13.48,13.52,0,0,4.29,18.15,19.2,12.94,14.91-5.21,7.96-27.04,7.96-27.04,0,0-7.56-16.22-13.48-15.64-5.92.58-7.35,8.5-12.66,3.28-5.31-5.21,7.56-6.57-.61-12.55-8.17-5.99-6.53-8.11-6.53-8.11,0,0-.61-6.37,6.74-12.94,5.87-5.24,15.12-9.87,18.61-11.52.8-.38,1.64-.67,2.52-.87,3.06-.67,10.71-2.89.31-6.54-5.76-2.02-9.11-5.52-11.06-8.74-2.66-4.41-1.59-10.09,2.5-13.37,2.24-1.8,5.14-3.2,8.55-2.8,5.93.68,13.19,7.47,16.93,11.37,2.29,2.39,5.53,3.79,8.94,3.81,2.92.01,6.74-.49,11.3-2.24,8.74-3.37,8.69-10.68,8.3-13.57-.16-1.13-.12-2.29.25-3.38.95-2.78,3.71-6.71,11.57-1.98,7.64,4.6,12.35,1.78,14.58-.49,1.62-1.65,3.71-2.82,6.03-3.37,6.12-1.44,16.38-2.24,16.48,8.56.02,2.11-.8,4.11-1.93,5.92-.79,1.26-1.14,3.38,1.39,6.48,4.49,5.5,3.27,29.94-6.54,34.57-9.8,4.64,5.28,9.4,10.86,9.79.06,0,.11,0,.17.01,4.52.36,8.09,3.75,8.8,7.98,1.06,6.33,2.06,17.8-2.98,24.45-7.22,9.53.82,9.14.82,9.14,0,0,4.21.51,5.9-2.74,2.17-4.17,5.51-7.73,10.06-9.49,8.7-3.36,8.91,1.03,15.9-.26,7.4-1.37,7.76-6.4,13.07-6.57,6.23-.2,6.95,6.69,17.02,10.82,7.84,3.21,11.08.54,15.38,4.38,3.68,3.27,5.66,9.1,4.36,13.91-1.29,4.75-4.89,5.14-6.26,10.56-.34,1.33-1.67,6.56.95,9.66,4.22,4.99,13.46-1.65,27.91,2.06,4.12,1.06,8.42,3.49,17.02,8.37,10.04,5.69,11.11,7.71,11.03,9.27-.14,2.72-3.74,3.46-7.49,9.91-1.37,2.35-2.05,3.56-1.77,4.76.94,4.07,9.54,2.57,14.02,6.95,7.43,7.27-1.41,25.92-7.35,34.76-3.32,4.95-7.65,11.4-13.34,11.33-4.24-.05-6.12-3.68-13.61-4.51-3.61-.4-6.63.06-7.9.26-7.3,1.15-8.29,3.92-11.44,3.35-5.89-1.08-5.36-11.37-11.03-12.49-4.53-.9-6.98,5.26-13.61,4.76-4.13-.31-5.08-2.84-8.1-2.74-6.2.21-5.68,13.49-11.84,14.58-3.24.57-9.45-1.8-12.46-5.41-.47-.56-1.11-1.45-2.14-1.54-2.26-.21-4.3,3.56-5.51,5.6-2.27,3.83-7.72,13.01-13.78,14.87-6.52,2.01-16.74-3.52-19.6-11.68-.45-1.29-2.9-8.86,2.25-13.91,2.61-2.56,5.47-2.45,9.7-3.57,10.57-2.82,21.64-11.41,20.73-17.29-.81-5.2-10.92-7.71-16.44-9.08-5.42-1.35-16.51-4.1-21.24.87-4.61,4.85.83,12.89-3.47,15.84-2.89,1.98-7.87.08-16.13-3.09-7.35-2.82-8.43-4.34-12.46-5.6-10.2-3.18-16.8,5.01-22.05,2.03-4.28-2.43-4.75-9.38-4.08-13.33,1.49-8.88,14.54-8.9,14.98-15.16.3-4.37-5.14-9.56-10.62-10.43-7.97-1.27-11.57,7.32-20.01,6.18-6.22-.84-6.74-5.83-12.25-6.57-7.3-.97-11.49,7.1-21.65,15.06-12.02,9.42-32.77,18.97-44.31,12.75-7.32-3.95-6.15-11.65-12.66-12.94-7.7-1.53-11.21,8.9-23.69,11.01-8.69,1.47-20.13-1.36-23.28-8.3-2.57-5.66.87-13,4.9-17.38,9.28-10.1,21-7.8,27.77-14.68,7.9-8.01,6.4-13.7,6.53-14.45,4.36-24.46-17.51-8.64-20.01-7.37-13.48,6.86-17.87,2.48-26.14-1.16-5.12-2.26-9.91-7.36-10.82-13.71-.87-6.1,2.36-10.98,3.27-12.36,2.65-3.99,6.11-6.16,7.96-7.15,0,0,5.63-3.69,5.75-4.28Z"/>
    <path class="cls-17" d="M89.39,371.84c2.15-2.92,9.81-1.48,14.98-.51,4.06.76,4.37,1.32,6.81,1.29.74-.01,7.72-.27,11.16-4.89,2.29-3.08.57-4.81,3.27-9.01.67-1.05,2.29-3.49,5.45-5.15,1.26-.66,5.73-2.76,10.07-1.03,1.74.69,4.31,2.33,4.08,3.86-.21,1.43-2.67,1.53-5.99,3.35-2.67,1.46-4.41,3.46-7.9,7.47-4.16,4.78-6.22,7.21-5.45,9.27.56,1.49,2.44,2.61,4.08,2.83,2.26.3,3.23-1.23,5.45-.77,1.41.29,3.08,1.32,3.27,2.57.34,2.25-4.11,5.29-8.44,5.67-2.85.25-6.6-.58-8.71-3.09-2.17-2.58-.74-4.74-2.99-6.7-1.79-1.55-4.25-1.55-7.35-1.55-1.32,0-4.41.11-8.99,1.55-6.4,2.01-7.63,4.1-9.8,3.35-2.91-1.01-4.72-6.16-2.99-8.5Z"/>
    <path class="cls-17" d="M156.75,396.01c3.02-.8,4.92-3.73,7.15-7.15,1.41-2.16,1.27-2.52,2.04-2.9,2.53-1.23,4.95,2.2,9.39,1.93,2.18-.13,4.83-1.16,6.33-3.09,2.51-3.22-.18-6.4,2.25-9.08,1.83-2.02,5.23-2.27,7.35-1.93,2.88.47,3.39,2.04,8.37,5.21,4.56,2.91,4.88,2.07,6.94,3.86,4.67,4.06,5.21,10.25,5.31,11.39.39,4.45-1.22,4.97-1.43,12.17-.2,6.81,1.18,8.26,1.63,8.69,2.2,2.08,6.5,2.53,9.39.97,4-2.16,2.36-6.54,6.94-10.62.75-.67,4.57-4.07,8.58-3.48,6.89,1.01,8.22,12.88,12.87,12.75,3.94-.12,5.04-8.71,9.39-8.69,2.71.01,3.8,3.35,10.21,5.6,2.51.88,3.17.66,3.47.39,1-.93-.91-3.66-2.65-7.92-2.15-5.26-3.69-9.03-2.45-11.97,2.24-5.33,12.19-4.71,12.25-7.15.06-2.4-9.56-4.56-15.93-5.99-9.1-2.04-13.91-.03-15.52-2.7-1.41-2.34.42-6.3,2.86-8.5,2.87-2.59,5.39-1.67,15.52-3.28,7.97-1.27,9.05-2.26,12.87-1.74,4.78.66,6.35,4.89,10.01,4.25,1.83-.32,2.17-1.34,4.49-2.51,3.33-1.67,7.36-1.88,9.6-1.35,7.35,1.74,12.79,16.1,9.19,27.23-2.29,7.1-7.4,10.21-5.72,13.13,2.12,3.69,11.13.22,15.32,5.21,2.77,3.3.28,6.57,3.27,9.27,3.15,2.85,8.77,1.82,13.07,1.03,8.3-1.52,8.82-5.61,13.89-5.79,6.89-.25,7,6.69,16.54,9.85,8.31,2.75,12.57-1.07,24.91,2.7,4.14,1.27,6.48,2.56,6.33,3.28-.26,1.26-7.71-.86-14.7,2.9-4.02,2.16-3.13,3.71-7.15,5.99-4.97,2.82-10.13,2.61-17.36,2.32-6.08-.25-9.13-.37-11.84-1.93-4.5-2.59-4.52-5.93-9.6-8.5-2.62-1.33-3.28-.77-8.17-1.93-11.01-2.61-13.09-6.69-17.36-5.41-4.81,1.45-6.46,7.94-6.94,9.85-1.08,4.26-1.02,11.08,3.27,14.68,3.02,2.53,6.08,1.75,6.74,3.67.87,2.55-3.34,7.42-8.58,9.08-9.06,2.86-14.09-6.16-23.69-4.25-9.3,1.85-14.35,12.27-15.11,13.91-4.51,9.72.24,15.86-3.88,20.34-6.42,6.99-23.86,5.97-27.36-.19-1.12-1.97.33-7,3.27-17,2.25-7.66,3.31-9.94,2.04-12.94-1.55-3.69-5.87-6.71-10.21-6.95-4.87-.28-5.87,3.18-13.07,5.02-2.47.63-10.26,2.63-14.29-.77-4.75-4,.06-11.79-4.29-14.87-3.04-2.15-8.47-.54-16.75,1.93-6.8,2.03-8.83,3.69-11.44,2.51-3.34-1.51-2.46-5.37-6.33-8.69-2.92-2.51-7.14-3.51-10.21-3.28-13.95,1.02-25.57,28.81-24.51,37.08.05.41.27,1.85-.61,2.9-1.9,2.25-7.8,1.39-11.64-.97-1.43-.88-3.94-2.42-4.49-5.02-.55-2.59,1.37-3.76.61-6.57-.63-2.31-2.52-3.66-3.06-4.06-2.66-1.9-5.72-1.8-6.94-1.74-7.72.37-9.27,6.77-15.52,6.57-3.26-.1-6.83-1.97-7.96-4.83-1.43-3.6,1.45-7.57,3.68-9.46,5.24-4.46,13.11-2.78,14.29-2.51,5.6,1.28,6.42,4.14,11.64,5.21,5.31,1.09,9.94-.7,11.84-1.55,6.89-3.04,10.08-9.18,11.44-11.78,3.72-7.16,2.67-12.22,6.74-14.1,2.29-1.06,4.65-.42,5.72-.19,14.71,3.18,30.5-7.41,31.86-8.3,5.78-3.8,14.09-11.56,12.05-16.22-1.66-3.78-9.66-4.48-13.89-4.25-5.5.3-12.76,2.64-18.38,4.44-2.41.77-5.65,1.88-6.94.58-.69-.7-.8-2.06-.2-2.85.65-.86,1.75-.55,3.27-.95Z"/>
    <path class="cls-17" d="M313.02,479.52c-1.3.2-17.52,2.92-19.6,11.33-1.45,5.84,5.29,8.5,4.36,16.74-.06.5-1.18,8.56-7.08,11.33-4.65,2.19-8.7-.6-11.98,2.32-2.59,2.3-2.21,5.93-2.18,6.18.4,3.27,3.18,6.31,6.26,6.95,4.56.96,9.34-3.4,16.34-9.79,6.31-5.75,8.07-8.87,11.71-8.76,4,.13,6.69,4.06,7.08,4.63,3.19,4.67.59,10.87-2.72,19.31-2,5.1-4.21,5.7-3.81,8.24.55,3.57,4.23,4.65,4.08,7.73-.11,2.32-2.34,4.82-4.9,5.67-5.29,1.75-9.01-4.53-20.42-7.47-4.5-1.16-9.21-2.37-12.25,0-4.27,3.33-3.58,12.39.54,14.94,1.92,1.18,3.52.29,9.53-.51,0,0,8.35-1.12,18.51-.52,10.6.63,10.5,2.84,14.43,1.55,5.88-1.93,6.08-6.83,14.16-10.56,2.3-1.06,4.2-1.49,7.9-2.32,6.26-1.39,13.25-3.06,21.24-2.32,2.51.23,17.49,1.62,19.06,7.98,1.09,4.42-4.6,9.97-6.26,11.59-4.13,4.03-8.63,5.68-8.17,7.98.26,1.3,1.95,1.97,2.18,2.06,2.84,1.09,6.08-1.2,11.71-4.89,9.72-6.38,10.28-5.43,11.71-7.47,2.82-4.03.56-5.75,3.27-12.88,2.63-6.91,5.57-7.45,5.17-11.07-.53-4.82-5.87-5.1-7.9-10.82-2.32-6.53,2.19-13.15,2.72-13.91,5.9-8.39,17.61-8.7,19.6-8.76,13.06-.34,14.44,8.17,29.13,11.59,16.81,3.91,21.8-5.65,40.57-1.55,13.24,2.9,11.89,7.9,22.87,9.27,18.13,2.26,21.4-11.43,42.2-11.07,12.15.21,21.06,5.05,28.59-.51,1.96-1.45,4.18-3.86,3.54-5.15-1-2.03-8.28.45-22.33,1.55-11.26.87-18.06.17-19.6,0-7.31-.8-9.01-3.67-14.16-2.83-5.79.95-9.09,4.65-11.71,3.09-1.31-.78-2.24-2.76-1.63-4.12,1.33-2.99,8.98-.69,20.69-3.61,3.03-.75,8.76-2.18,8.71-3.86-.05-1.86-7.19-4.42-14.16-3.61-7.54.88-9.07,5.03-16.06,4.89-.92-.02-8.14-.23-9.8-4.12-1.32-3.09,1.4-7.27,4.36-9.53,6.97-5.33,17.08-1.37,17.97-3.86.61-1.72-3.62-5.21-8.17-6.69-8-2.61-15.85,1.34-19.33,3.09-6.22,3.13-5.39,4.8-10.07,7.21-14.07,7.24-32.94-1.97-35.67-3.35-3.9-1.97-8.58-4.06-12.25-8.75-2.59-3.31-2.38-4.86-5.17-8.76-1.79-2.49-5.61-7.81-11.44-10.04-8.75-3.35-19.6,1.22-25.59,6.7-4.77,4.36-3.94,6.99-10.07,14.68-5.08,6.36-8.36,9.35-11.98,11.59-3.9,2.41-7.1,4.4-10.89,3.86-4.93-.69-5.8-4.95-11.71-9.79-5.45-4.46-10.9-5.92-19.6-8.24-8.23-2.2-14.03-3.75-21.51-2.58Z"/>
    <path class="cls-17" d="M158.09,576.99c1.89-3.2,16.8-2.3,23.96,5.67,5.14,5.72,1.98,10.27,7.08,13.91,4.85,3.46,9.13.35,19.6,4.12,4.03,1.45,9.06,3.95,8.71,5.67-.45,2.24-9.53.69-11.98,5.15-1.09,1.98-.55,4.57.54,6.18,1.52,2.24,3.87,2.19,7.08,3.61,6.68,2.95,5.98,7.34,10.35,8.76,5.81,1.88,8.95-5.26,17.97-6.18,7.11-.73,16.05,2.59,20.69,9.79,5.08,7.87-4.63,17.39,0,21.63,2.04,1.86,5.7,1.95,8.17,1.03,6.24-2.32,4.17-10.79,9.8-13.91,6.17-3.41,16.68,2.31,21.78,6.18,7.52,5.7,6.09,9.48,14.16,15.45,3.23,2.39,11.76,8.7,17.97,6.18,5.79-2.35,5.39-10.7,11.44-11.85,2.95-.56,3.5,1.35,6.54,1.03,7.79-.82,9.27-13.96,15.79-14.42,4.64-.33,7.08,6.1,9.8,5.15,3.01-1.05,4.47-10.5,0-15.97-6.96-8.51-25.1-3.5-25.59-6.18-.35-1.89,8.32-6.44,17.43-5.67,7.29.62,13.85,4.58,17.43,9.79.33.48.25.42,3.81,10.3,3.65,10.13,4.45,12.19,4.9,15.97.67,5.51-.48,5.73.54,7.73,3.38,6.6,17.71,7.83,28.32,6.18,12-1.86,14.49-6.67,21.78-4.63,4.91,1.37,8.53,4.87,13.07,9.27,4.18,4.04,6.27,6.06,5.99,8.24-.73,5.74-14.71,5.54-16.34,12.36-.85,3.57,2.13,7.13,4.36,9.79,5.75,6.87,13.38,8.27,13.07,9.27-.37,1.21-11.18-1.99-25.05-3.09-17.14-1.36-22.76,1.78-28.86-2.57-6.13-4.37-2.05-9.56-7.62-17.51-6.03-8.61-16.19-10.89-36.49-15.45-15.15-3.4-19.24-2-21.78-.51-4.95,2.9-9.19,9.17-8.17,14.94,1.55,8.75,14.18,10.64,13.61,17-.31,3.56-4.6,6.57-8.17,7.21-8.52,1.53-10.72-18.08-21.78-19.57-6.86-.92-8.75,5.74-16.88,5.15-9.92-.72-12.58-11.03-20.15-10.3-5.41.52-5.65,5.93-13.07,11.33-11.88,8.65-27.41,6.53-29.95,6.18-1.83-.25-23.71-3.47-27.23-15.45-2.54-8.65,6.95-13.47,3.81-22.15-3.18-8.8-15.33-10.41-14.7-15.97.49-4.33,8.01-4.6,8.71-9.27.76-5.02-8.42-6.76-16.47-7.6-9.94-1.03-14.02-.52-16.2-5.28-.51-1.11,16.95-4.64,17.43-10.82.45-5.73-13.8-11.49-14.7-11.85-9.41-3.72-14.77-1.93-16.88-5.67-2.49-4.4,3.91-8.69,1.09-14.42-1.52-3.09-4.17-3.45-7.08-8.76-1.46-2.67-2.25-4.11-1.63-5.15Z"/>
    <path class="cls-17" d="M472.58,689.14c2.61-4.1,10.4-1.69,12.25-5.41,1.09-2.19-1.25-3.76-1.36-7.73-.18-6.11,5.13-10.82,5.72-11.33,4.62-3.99,8.65-2.48,23.96-5.15,15.24-2.66,16.24-5.03,16.34-5.92.25-2.19-4.01-3-4.63-6.44-.69-3.87,3.68-8.44,7.9-10.3,7.97-3.52,19.2.94,25.05,7.98,7.8,9.4,6.61,24.08-.27,29.87-4.31,3.62-10.47,3.46-10.62,5.92-.15,2.6,6.58,4.89,7.35,5.15,12.06,4.01,18.11-3.29,26.41.52,6.16,2.83,10.74,10.49,9.53,15.97-.54,2.45-2,3.36-1.63,5.15,1.05,5.05,15.17,4.53,15.25,6.44.06,1.51-8.44,4.21-17.97,3.99-12.23-.28-13.88-7.1-30.77-11.07-6.92-1.63-8.35-1-13.61-3.09-7.3-2.9-8-5.48-16.34-10.3-5.64-3.26-12.05-6.87-20.69-7.47-2.35-.16-13.38-.92-16.61,4.38-1.88,3.08.34,5.81-1.91,7.98-2.48,2.4-8.75,2.52-11.98-1.03-1.92-2.11-2.91-5.69-1.36-8.11Z"/>
    <path class="cls-17" d="M416.69,567.98c1.66-4.77,6.35-4.52,7.76-8.5,1.41-3.99-2.48-6.54-.61-9.46,1.41-2.2,5-2.92,7.76-2.32,3.8.83,6.45,4.26,6.33,7.15-.12,2.76-2.68,2.98-5.72,7.73-3.01,4.71-1.79,6.53-4.49,8.88-3.23,2.81-8.93,3.63-10.82,1.55-1.41-1.55-.43-4.39-.2-5.02Z"/>
    <path class="cls-17" d="M376.06,596.76c17.26-1.09,16.9-.52,23.89-1.54,15.02-2.2,18.23-5.08,41.25-10.62,14.72-3.54,22.23-5.37,29.2-5.02,12.1.61,15.16,4.24,24.1,1.93,6.65-1.72,8.36-4.61,21.03-9.08,5.52-1.95,8.28-2.92,10.41-3.09,11.53-.91,14.43,7.79,28.79,10.24,8.46,1.44,16.75,0,18.79-.39,7.4-1.39,12.76-4,20.22-2.12,2.52.64,5.85,1.93,5.72,2.9-.12.9-3.14,1.29-14.91,1.93-15.95.87-18.86.61-22.87,2.9-5.42,3.09-3.79,5.67-8.78,8.69-5.25,3.18-9.78,1.98-28.39.39-16.41-1.41-20.39-1.13-24.71.39-10.98,3.85-12.66,8.3-12.66,8.3-.75.96-1.85,2.58-3.88,3.09-2.42.61-5.47-.53-7.15-2.51-2.5-2.96-.38-5.94-2.04-8.3-2.9-4.12-14-1.62-16.13-1.16-31.15,6.78-66.53-3.25-84.54,5.6-.74.37-3.34,1.69-7.07,3.1-2.82,1.07-9.11,3.46-16.41,4.24-11.82,1.26-24.78-1.85-24.71-3.86.1-2.77,25.02-4.35,50.85-5.99Z"/>
    <path class="cls-17" d="M470.13,557.23c-3.05.48-3.28,3.3-8.37,8.5-4.32,4.4-6.65,4.93-6.33,6.18.63,2.44,10.25,3.45,17.97.19,1.1-.47,8.22-3.47,7.96-7.34-.14-2.03-2.25-3.53-4.08-4.83-1.85-1.31-4.42-3.14-7.15-2.7Z"/>
    <path class="cls-17" d="M614.3,563.41c-1.08,2.99,3.41,8.2,8.78,10.24,6.62,2.52,14.17-.35,29-6.18,6.73-2.65,5.8-2.72,9.19-3.86,12.89-4.35,17.56-.35,31.45-1.93,14.34-1.63,24.85-7.65,38.8-15.64,2.65-1.52,4.25-2.55,4.08-2.9-.57-1.2-21.1,7.58-40.84,12.94-29.63,8.04-44.28,12.56-55.14,7.34-1.52-.73-7.94-4.03-16.13-3.48-1.84.12-8.13.55-9.19,3.48Z"/>
    <path class="cls-17" d="M101.27,497.84c.2-.7,9.65-.73,19.6,3.86,9.34,4.31,11.03,8.95,15.79,8.24,5.38-.81,4.87-6.98,12.53-11.07,7.04-3.76,14.74-2.41,18.24-1.8,2.92.51,14.88,2.6,16.88,9.27,1.38,4.62-2.99,8.18-1.09,10.82,2.16,2.99,10.8-1.48,12.25.77.79,1.23-1.56,2.66-2.72,6.7-1.06,3.66.12,5.13.27,11.33.14,5.69.21,8.53-1.09,9.79-4.05,3.9-17.61-1.26-26.41-6.95-7.07-4.57-7.14-6.94-14.16-10.04-4.19-1.85-9.91-3.55-14.43-4.89-6.93-2.06-10-2.58-11.71-5.41-1.23-2.04-.8-3.71-3-6.18-1.12-1.26-1.77-1.43-4.08-3.35-2.41-2-3.57-3.36-4.63-4.38-5.3-5.13-12.43-6.08-12.25-6.7Z"/>
    <path class="cls-17" d="M88.2,629.29c-1.05,6.22-9.17,9.74-14.98,10.31-3.24.32-5.41-.76-7.39-2.24-3.13-2.32-5.77-5.69-11.38-6.27-8.28-.84-9.9,5.02-19.88,5.15-7.45.1-9.05-3.13-15.69-5.07-1.14-.34-2.42-.62-3.92-.86-3.58-.56-6.93-.54-9.97-.25v-45.9c2.87,1.42,6.31,2.86,10.53,4.19,7.57,2.38,12.33,3.86,18.24,2.58,8.67-1.9,9.19-7.51,17.42-9.28,8.75-1.87,20.07,1.89,22.05,7.73,1.48,4.33-3.05,7.23-2.99,17.77.04,4.41.84,5.74,1.37,6.44,2.85,3.71,7.78,1.85,12.25,5.41,2.97,2.38,4.99,6.55,4.35,10.29Z"/>
    <path class="cls-30" d="M152.46,667.02c-7.08.72-8.22,7.92-18.52,19.06-9.2,9.94-16.57,17.91-26.96,18.8-4.17.36-10.76-.26-20.42,2.32-4.74,1.27-5.19,1.96-5.17,2.32.11,1.91,14.07,2.65,17.43,2.83,20.91,1.11,21.72-2.39,29.95.26,8.18,2.63,6.62,5.85,21.78,13.39,6.86,3.41,11.73,5.02,11.44,6.44-.53,2.57-17.15.62-17.43,2.32-.24,1.47,11.79,5.42,25.05,6.7,17.03,1.63,18.89-3.78,37.3-3.61,18.72.18,21.71,5.43,32.13,1.55,5.43-2.02,8.22-4.78,19.6-9.01,8.26-3.07,11.32-3.3,12.8-3.35,5.22-.18,7.24,1.27,18.51,5.15,18.79,6.47,22.46,5.65,24.51,4.89,4.41-1.63,4.67-4.2,9.8-5.15,5.47-1.01,9.07,1.19,11.44-1.03,1.38-1.3,2.14-3.91,1.09-5.41-2.75-3.93-15.31,3.4-20.97-1.55-3.67-3.21-.63-8.28-4.08-10.56-3.84-2.54-8.75,2.99-20.69,4.63-7.62,1.05-13.8-.07-17.7-.77-8.41-1.52-10.15-3.6-17.15-5.67-18.01-5.31-25.18,2.92-34.85-3.09-8.43-5.24-4.09-12.17-12.52-17.51-11.37-7.2-23.59,2.63-32.95-5.15-4.92-4.09-3.33-8.3-10.35-13.65-2.42-1.84-7.5-5.71-13.07-5.15Z"/>
    <path class="cls-2" d="M163.28,754.32c.07.62-4.99.62-13.27,1.72-2.49.34-5.27.76-8.3,1.33-3.29.61-6.88,1.4-10.69,2.43-2.37.62-5.11,1.43-8.25,1.84-2.74.4-5.79.49-9.12-.1-2.44-.42-6.38-1.11-9.97-3.67h-.02c-.41-.29-.82-.61-1.23-.96-2.05-1.77-2.35-2.91-3.99-4.09-.14-.13-.32-.24-.5-.35-3.51-2.17-7.68-1.72-11.44-1.16-7.07,1.06-12.4,2.44-17.05,3.67-2.12.56-4.1,1.08-6.04,1.55-4.15.98-8.62,1.5-17.56,2.51-14.66,1.68-36.07,3.22-40.88,2.11-.61-.15-.94-.34-.98-.56-.04-.19.3-.44.98-.76,1.14-.54,3.28-1.3,6.38-2.41,10.56-3.74,18.74-5.81,20.15-6.17,8.25-2.09,12.95-3.27,19.59-4.13,1.67-.22,3.08-.37,4.29-.47,6.5-.52,7.45.37,13.15-.56,16.78-2.75,19.88-12.23,28.86-10.31,7.12,1.53,5.98,7.68,16.33,12.89,2.71,1.35,6.25,2.66,21.78,4.11,6.7.62,12.29.88,16.65.98,7.18.2,11.08.03,11.11.57Z"/>
    <path class="cls-28" d="M5.9,734.23c.1-.59,9.6,1.78,12.52-2.06,1.77-2.33-.55-4.75,1.09-7.73,2.26-4.11,9.46-4.5,11.98-4.64,6.67-.36,9.77,1.53,20.15,4.64,4.82,1.44,12.98,3.86,22.33,5.15,10.86,1.5,19.06.9,19.06,1.03,0,.19-18.66-3.29-40.84,1.55-11.74,2.56-19.5,6.37-33.22,5.15-7.86-.7-13.14-2.64-13.07-3.09Z"/>
    <path class="cls-31" d="M610.3,514.96c.03.59,6.45,1.61,13.61.51,10.87-1.66,13.76-6.72,24.51-7.73,5.86-.55,11.41.35,11.44,1.03.08,2.04-49.64,4.52-49.56,6.18Z"/>
    <path class="cls-17" d="M808.49,496.91c-.52-1.35,1.59.21,16.75-7.58,13.73-7.06,15.26-6.62,21.22-5.67,5.14.82,34.97-15.63,33.65-10.71-.96,3.59-22.22,11.7-41.23,17.06-15.76,4.45-29.8,8.41-30.39,6.89Z"/>
    <path class="cls-17" d="M978.97,435.65c-.28-1.63,5.99-4.43,12.52-5.67,6.96-1.31,10.72-.19,16.34,0,11.51.38,12.5-3.79,27.77-6.18,8.21-1.28,25.27-2.79,27.23,2.06,1.32,3.27-4.73,8.24-5.99,9.27-9.41,7.73-17.89,4.66-34.85,9.79-10.55,3.19-8.44,4.72-21.78,9.27-7.68,2.62-14.74,3.98-28.86,6.69-16.04,3.09-24.48,4.68-36.49,5.15-5.7.22-10.2.12-15.25,0-8.07-.19-25.57-.9-25.59-2.06-.04-1.62,34.18-.24,70.79-13.91,12.81-4.78,21.34-9.7,20.69-11.85-.5-1.65-6.27-1.06-6.53-2.57Z"/>
    <path class="cls-17" d="M945.07,418.14c51.75-16.51,73.38-33.4,83.32-46.35,4.42-5.76,7.87-12.49,17.15-17.77,9.74-5.54,35.53-14.97,38.24-18.16.09-.1.18-.23.15-.38-.38-2.06-22.12,3-24.51-1.55-2.37-4.51,14.91-17.38,26.96-24.72,14.33-8.74,31.41-15.84,32.67-13.91.95,1.46-7.2,7.87-7.35,7.73t20.42-20.86c12.86-12.7,24.79-19.46,30.22-16.22,4.57,2.72,3.43,11.83,3.27,13.13-1.09,8.74-7.23,14.65-16.34,23.18-4.73,4.43-7.78,7.29-12.25,10.04-15.35,9.45-27.67,5.49-40.84,9.27-9.46,2.72-22.07,10.21-33.49,32.45l-117.63,64.12Z"/>
    <path class="cls-17" d="M1001.17,569.43c4.22-8.35,13.56-11.25,14.7-11.59,10.61-3.13,22.11,1.16,22.05,3.48-.07,2.78-16.84,2.71-17.15,6.57-.21,2.51,6.62,6.03,13.07,5.79,3.63-.13,6.28-1.42,7.35-1.93,17.9-8.55,24.18-4.97,36.35-13.91,6.92-5.08,6.97-7.76,13.48-10.43,6.12-2.51,15.32-3.92,18.79,0,2.58,2.91.06,6.59,2.04,8.5,3.69,3.56,17.44-2.96,28.18-10.04,18.28-12.06,21.64-21.75,34.72-23.18,2.04-.22,9.86-1.07,13.48,3.09,5.44,6.27-.21,22.13-10.62,27.04-7.33,3.46-12.36-.72-24.1.39-11.85,1.12-13.36,6.05-25.73,10.43-15.43,5.46-17.89-.24-53.5,3.48-16.56,1.73-22.03,3.58-26.96,6.57-7.25,4.39-8.25,8.14-15.52,10.43-8.05,2.53-10.28-.98-22.05.39-3.63.42-4.22.85-20.42,5.79-21.53,6.57-21.65,6.17-21.65,6.18.12.44,25.6-.87,31.04-13.13,2.21-4.97-.65-7.76,2.45-13.91Z"/>
    <path class="cls-17" d="M1187.41,498.74c4.89-6.29,9.02-7.63,11.84-7.73,6.43-.21,9.66,5.92,22.05,9.27,2.43.66,7.15,1.9,8.17.39,1.48-2.19-6.83-7.12-6.53-13.52.21-4.56,4.17-9.38,8.58-10.43,1.63-.39,2.53.23,7.35,0,2.9-.14,4.37-.22,4.9-.77,1.71-1.77-1.15-5.53-3.27-13.13-1.19-4.27-1.75-6.48-1.63-8.88.44-9.06,12.54-15.32,14.3-16.22,8.86-4.58,20.89-5.78,30.63-.77,3.47,1.78,7.56,3.89,7.76,6.95.39,5.87-21.72,3.69-33.9,17.77-4.18,4.84-5.71,9.75-6.13,11.2-.59,2.06-2.67,9.35.41,17,2.28,5.67,5.26,6.22,4.9,9.66-.44,4.2-4.98,4.27-8.58,10.43-3.44,5.9-1.51,9.64-4.49,11.2-3.53,1.84-6.62-3.21-13.07-3.09-8.63.16-10.57,9.32-18.79,9.66-6.44.26-11.53-5.11-15.11-8.88-6.99-7.37-8.82-15.79-9.39-20.09h0Z"/>
    <path class="cls-17" d="M1003.62,545.48c7.42-2.05,13.48-4.31,17.97-6.18,2.34-.97,7.49-3.18,13.89-6.57,10.8-5.72,9.88-6.7,13.89-7.73,9.46-2.42,12.64,3.59,21.65,1.16,6.91-1.87,11.47-7.15,14.3-10.43,2.64-3.06,2.34-3.72,7.35-11.2,4.74-7.08,7.11-10.62,8.99-11.97,9.49-6.84,25.74-2.12,25.73-1.93,0,.12-6.88-.12-6.94-.77-.1-1.09,18.87.73,25.32-8.11,5.59-7.66-3.4-16.22,2.86-25.88,3.06-4.72,9.19-8.82,15.11-8.5,4.67.25,8.56,3.39,16.34,9.66,5.11,4.12,4.45,4.45,6.94,5.79,8.6,4.64,16.61.77,18.38,3.86,1.53,2.67-3.15,7.78-5.72,10.04-6.89,6.07-18.94,9.5-24.91,5.02-3.91-2.93-2.59-7.26-6.13-8.5-4.34-1.52-10.16,3.66-14.3,7.34-3.39,3.02-7.04,6.25-9.39,11.59-3.77,8.52.3,12.07-3.27,22.02-1.39,3.88-3.92,10.92-8.58,11.59-4.86.69-7.07-6.27-18.38-10.04-2.99-1-5.02-1.68-7.76-1.55-7.8.38-9.82,6.79-19.2,13.13-10.1,6.83-20.83,8.24-25.73,8.88-7.37.97-11.94.24-16.75,0-9.56-.47-23.47.84-41.66,9.27Z"/>
    <path class="cls-17" d="M1243.98,229.01c1.87-6.21,1.88-12.23-1.31-15.93-6.86-7.97-28.41-5.07-41.66,4.63-12.74,9.35-8.78,18.43-24.51,33.22-5.93,5.61-13.98,11.34-20.73,13.7h-.02c-3.76,1.33-7.11,1.6-9.48.22-5.31-3.1-2.3-12.55-7.62-14.69-4.19-1.67-7.64,3.57-17.69,7.48-7.46,2.9-13.88,3.13-26.68,3.6-15.21.56-16.83-1.53-24.51.78-9.46,2.83-15.39,8.49-16.33,7.46-.68-.72,1.66-4.28,4.9-6.96,6.45-5.34,14.3-3,27.77-3.86,2.85-.19,15.05-1.09,27.77-6.18,5.88-2.34,20.61-8.24,20.43-15.45-.11-4.3-5.4-5.24-13.07-13.14-4.1-4.23-11.92-12.28-12.25-20.08-.59-14.13,23.14-31.15,44.92-30.91,4.76.07,15.16,3.66,35.94,10.81,20.45,7.06,24.17,9.08,31.05,7.73,11.4-2.22,22.21-11.86,24.51-22.4,1.64-7.48-2.14-10.33-.82-18.53,1.55-9.7,8.55-16.66,13.89-20.87l13.89-3.25c18.51-2.16,14.85-.19,18.51-2.16,8.73-4.7,3.17-17.96,13.88-31.67,1.6-2.06,10.44-12.9,25.33-14.67,10.79-1.28,22.78,2.46,30.23,10.04,11.33,11.54,1.85,21.55,7.34,54.85.46,2.78.96,5.39,1.5,7.87v49.79c-2.73,3.55-5.56,6.38-6.39,7.23-10.97,11-17.87,10.58-23.69,16.22-3.35,3.27-5.09,7.33-5.84,11.77-2.94,17.25,9.05,40.38.12,45.4-5.95,3.35-18.29-3-24.49-8.51-6.45-5.69-6.22-10.78-11.44-12.35-3.87-1.16-7.77.47-11.54,2.78-6.2,3.77-12.09,9.35-17.06,7.26-5.57-2.38-4.84-12.33-7.34-12.36-2.89-.05-1.92,13.21-7.98,23.3-1.16,1.92-2.55,3.72-4.27,5.29-11.33,10.33-35.21,9.64-43.57,2.04-.93-.86-1.67-1.79-2.17-2.81-.39-.79-.64-1.63-.77-2.49-1.21-7.93,7.78-18.41,9.74-20.69,2.64-3.07,5.08-5.1,7.41-6.67,5.34-3.64,10.1-4.92,15.46-11.1,3.75-4.32,6.97-10.1,8.66-15.74"/>
    <path class="cls-17" d="M1194.49,451.23c0,.57,3.29,1.32,6.53,1.29,9.39-.1,16.24-6.77,19.6-10.04,6.68-6.5,4.6-7.67,14.16-19.57,6.04-7.52,9.78-10.9,14.7-13.39,4.44-2.25,8.6-3.13,10.89-3.61,3.73-.77,9.11-1.88,9.8-.51.6,1.18-2.53,3.69-14.16,12.36-8.5,6.33-9.99,7.35-12.52,9.27-16.29,12.34-14.47,15.82-23.08,19.89-12.47,5.9-25.92,3.17-25.93,4.31Z"/>
    <path class="cls-17" d="M1354.58,393.61c-.45,3.6.77,3.45.82,8.89.09,10.11-4.08,12.68-2.05,17,1.42,2.97,4.38,3.74,7,4.72,2.07.76,3.92,1.63,4.65,3.77.59,1.7.27,3.74-.62,5.69-1.35,2.93-4.08,5.69-7.16,6.84-.2.08-.39.15-.59.22-.52.17-.96.25-1.37.27-1.98.2-2.99-.74-6.39-.27-1.96.27-3.54.84-4.88,1.53-3.7,1.9-5.61,4.63-8.99,4.06-3.7-.61-4.13-4.33-6.43-4.25h-.11c-1.57.13-2.46,1.89-3.49,4.75-1.28,3.52-2.8,8.74-6.11,14.76-2.94,5.32-5.95,10.63-12.06,12.94-5.04,1.92-11.13,1.38-11.63-.19-.34-1.06,2.01-2.64,6.73-5.79.59-.39,1.14-.76,1.66-1.08,5.06-3.25,7.34-4.09,9.17-7.04.89-1.42,1.19-2.68,1.83-5.21,1.12-4.5.71-6.64.82-14.3.11-7.5.57-9.25-.61-9.85-2.58-1.3-7.09,5.88-11.24,4.65-3.69-1.11-4.22-8.02-4.29-8.89-.39-5.07,1.6-12.01,6.95-15.06,3.79-2.16,6.23-.64,12.25-3.67,1-.51,2.08-1.13,5.52-3.67,8.69-6.45,13.11-9.77,16.12-14.67,1.82-2.96,3.42-5.64,2.87-9.08-.62-3.79-3.76-7.93-6.95-7.92-4.08.02-6.13,6.86-8.98,6.18-1.28-.3-2.3-1.99-2.26-3.47.09-3.27,5.2-3.93,10.22-9.67,2.62-3,1.62-3.3,3.47-5.02,5.61-5.26,16.42-3.98,20.47-3.34.61-.35,7.16-2.07,9.74.25.18.17.34.34.46.54,1.28,1.77,1.01,4.92,0,8.37-1.12,3.81-3.13,7.97-4.95,10.98-4.61,7.7-8.78,9.47-9.6,16.02Z"/>
    <path class="cls-17" d="M1284.54,325.31c-.84.68-6.31,5.07-5.99,10.82.24,4.34,3.54,5.01,4.36,9.27,1.01,5.27-2.93,10.05-7.08,14.94-7.92,9.33-16.61,14.04-16.34,14.42.31.44,10.15-8.23,25.05-11.33,9.87-2.06,11.68.47,17.97-2.57,9.93-4.81,13.79-15.17,15.25-19.06,1.88-5.05,3.11-8.33,1.63-11.85-3.54-8.42-18.6-8.74-20.15-8.76-3.22-.03-9.46-.09-14.7,4.12Z"/>
    <path class="cls-17" d="M1206.94,589.77c-.74-5.77,10.69-12.47,20.42-14.68,14.71-3.34,30.39,2.47,30.22,5.41-.13,2.35-10.44,3.63-10.62,3.09-.21-.62,13.53-1.84,22.06-11.59,4.26-4.87,2.72-6.72,8.17-17.77,5.3-10.76,8.42-17.07,15.52-20.86.94-.5,12.38-6.37,22.87-.77,5.21,2.78,10,8.28,10.62,14.68,1.01,10.39-9.75,14.98-7.35,22.4,2.23,6.89,12.78,6.89,13.07,11.59.31,5.1-11.82,10.35-22.06,13.13-17.77,4.83-22.48.23-45.74,1.55-23.42,1.33-36,6.97-50.64,0-3.72-1.77-6.22-3.71-6.54-6.18Z"/>
    <path class="cls-21" d="M1165.56,360.2c1.45-1.81,3.58-4.41,6.26-7.47,5.26-6,9.75-10.48,11.16-11.85,10.74-10.38,27.27-18.38,28.59-16.74,1.29,1.6-11.33,12.99-20.97,20.34-9.07,6.92-17.35,11.67-23.14,14.68l-1.91,1.03Z"/>
    <path class="cls-17" d="M864.82,614.36c14.6-4.15,14.15-3.2,19.33-5.15,10.97-4.13,10.65-7.49,21.78-11.07,4.62-1.49,13.33-4.19,17.43-.51,2.08,1.87,1.09,3.71,3.54,5.67,2.62,2.1,5.22,1.16,12.52,2.06,4.48.55,9.1,1.12,9.26,2.32.29,2.24-15.17,5.73-22.87,7.47-12.55,2.84-18.83,4.25-25.32,3.86-5.84-.35-8.68-1.46-17.43-1.55-3.52-.04-6.48.15-12.25.52-14.11.9-20.27,1.95-20.42,1.29-.17-.75,7.39-2.89,14.43-4.89Z"/>
    <path class="cls-18" d="M305.35,754.96s14.81,10.19,21.61,18.43l-28.45-.19s-17.15-7.98-16.41-8.37,9.6-5.41,9.6-5.41l13.65-4.46Z"/>
    <path class="cls-18" d="M578.45,754.75c3.46-3.02,9.93,1.84,20.22,3.48,12.48,1.98,23.42-1.92,29.41-4.06,8.81-3.14,8.32-5.01,17.15-7.92,11.67-3.84,21.56-3.55,23.48-3.48,11.03.43,13.64,4.45,33.08,11.2,8.6,2.98,14.91,4.61,23.28,6.76,15.15,3.9,31.12,6.84,40.03,7.73,0,0,41.38,3.15,72.9-16.61,1.57-.99,14.05-8.8,16.13-14.48.11-.29.39-1.14,1.22-1.74,2.93-2.11,9.11,1.4,11.64,2.7,13.12,6.79,33.07,8.71,45.74,7.53,4.57-.43,7.45-1.19,10.41.58,5.99,3.56,7.11,14.31,4.9,19.38-6.1,14.01-48.01,10.33-88.46,8.13-79.65-4.34-80.58,8.14-174.56,6.29-66.93-1.31-149.22-6.37-149.18-6.81.01-.16,46.6-1.12,52.11-4.14,4.62-2.53,7.15-6.82,7.56-7.53,2.32-4.04,1.26-5.56,2.93-7.02Z"/>
  </g>
</svg>