<?xml version="1.0" encoding="UTF-8"?><svg id="Layer_2" xmlns="http://www.w3.org/2000/svg" viewBox="0 0 177.07 89.42"><path d="M176.07,51.71c.11,3.1-11.39,6.02-25.69,6.52-.87.03-1.73.05-2.58.06-2.59,3.67-11.43,6.37-21.93,6.37-4.29,0-8.29-.45-11.71-1.23-5.15,2.17-12.32,3.52-20.24,3.52-8.41,0-15.96-1.52-21.16-3.93-4.97,1.89-11.24,3.01-18.05,3.01-8.21,0-15.63-1.63-20.95-4.26-2.45,1.11-5.31,1.74-8.36,1.74-9.12,0-16.51-5.66-16.51-12.65,0-3.54,1.9-6.74,4.95-9.03,1.53-4.79,6.21-8.76,12.45-10.78,0-.11,0-.22,0-.33,0-9.88,9.52-17.88,21.25-17.88,11.03,0,20.1,7.07,21.15,16.13,2.62-.8,5.47-1.23,8.47-1.23,11.44,0,20.89,6.31,22.37,14.49,4.17-1.13,9.27-1.8,14.79-1.8,12.1,0,22.22,3.2,24.79,7.48,3.3-.45,6.99-.76,10.88-.9,14.3-.51,25.98,1.6,26.09,4.7Z" style="fill:#e1f4fd; stroke:#9fbcc8; stroke-miterlimit:10; stroke-width:2px;"/></svg>