<?xml version="1.0" encoding="UTF-8"?>
<svg xmlns="http://www.w3.org/2000/svg" viewBox="0 0 188.46 57.49" >
    <defs>
        <style>.cls-1{fill:none;stroke:#231f20;}.cls-1,.cls-2{stroke-miterlimit:10;}.cls-2{fill:#e1f4fd;stroke:#9fbcc8;stroke-width:2px;}</style>
    </defs>
    <g id="cloud_back">
        <path class="cls-1" d="M112.7,29.4c-.03.06-.06.11-.09.16-.03-.02-.07-.06-.1-.1.07-.02.13-.04.19-.06Z"/>
        <path class="cls-1" d="M112.7,29.4c-.03.06-.06.11-.09.16-.03-.02-.07-.06-.1-.1.07-.02.13-.04.19-.06Z"/>
        <path class="cls-2" d="M187.46,28.63c0,.95-1.85,1.72-4.13,1.72-.57,0-1.11-.05-1.6-.13h-.01c-2.44,2.23-8.5,3.8-15.59,3.8-1.18,0-2.32-.04-3.43-.13-2.67.66-5.96,1.04-9.52,1.04-2.38,0-4.64-.17-6.67-.48-3.51.9-7.58,1.4-11.91,1.4-9.76,0-18.17-2.57-21.99-6.29.03-.05.06-.1.09-.16-.06.02-.12.04-.19.06.03.04.07.08.1.1-2.44,4.1-8.21,6.98-14.93,6.98-6.16,0-11.52-2.42-14.25-5.99-3.77,2.72-8.8,4.38-14.29,4.38-1.3,0-2.58-.09-3.82-.28-1.87,1.69-5.06,2.81-8.68,2.81-5.76,0-10.43-2.83-10.43-6.31,0-2.07,1.66-3.91,4.21-5.06-1.67-2.41-2.61-5.18-2.61-8.12,0-9.38,9.55-16.97,21.33-16.97,8.35,0,15.58,3.82,19.08,9.39,3.56-3.06,9.2-5.04,15.54-5.04,9.49,0,17.4,4.43,19.13,10.3,3.47-.86,7.46-1.35,11.71-1.35,11.6,0,21.3,3.64,23.65,8.49,2.35-.45,5.03-.7,7.88-.7,8.18,0,14.99,2.09,16.44,4.85.24-.02.5-.03.76-.03,2.28,0,4.13.77,4.13,1.72Z"/>
    </g>
    <g id="cloud_front">
        <path class="cls-2" d="M168.84,45.48c0,3.17-4.77,5.73-10.66,5.73-2.2,0-4.26-.36-5.96-.98h-.01c-2.3.78-4.86,1.21-7.56,1.21-4.71,0-6.95.46-12.91.46-8.25,3.67-13.81,4.59-26.99,4.59-9.81,0-16.35-1.38-23.92-3.9-4.59.92-8.79,1.38-14.6,1.38s-8.79-.46-14.52-1.15c-6.19.69-8.98.46-15.52.46-8.89,0-16.3-1.25-18.06-2.91-9.9-.48-17.13-1.98-17.13-3.74,0-2.16,10.73-3.9,23.96-3.9.58,0,1.16,0,1.73.01,2.47-2.45,7.09-4.58,12.58-5.54,2.01-.35,3.95-.51,5.77-.5,2.17-3.67,9.04-6.35,17.18-6.35,5.38,0,10.2,1.17,13.48,3.03,1.75-4.64,11.85-9.13,24.44-10.54,4.69-.52,9.13-.56,13.01-.17,1.41-6.83,8.76-12.04,17.63-12.04,9.88,0,17.89,6.47,17.89,14.44,0,.19,0,.38-.02.56,8.02,1.31,14,6.52,14,12.74,0,.63-.06,1.25-.19,1.86,3.76.89,6.38,2.91,6.38,5.25Z"/>
    </g>
</svg>