<?xml version="1.0" encoding="UTF-8"?>
<svg xmlns="http://www.w3.org/2000/svg" viewBox="0 0 181.16 93.84">
    <defs>
        <style>.cls-1{fill:#ee8728;}.cls-2{fill:#f15822;stroke:#f37421;}.cls-2,.cls-3{stroke-miterlimit:10;}.cls-4{opacity:.74;}.cls-3{fill:#e1f4fd;stroke:#9fbcc8;stroke-width:2px;}</style>
    </defs>
    <g id="sun">
        <ellipse class="cls-2" cx="66.92" cy="31.27" rx="25.61" ry="24.02" transform="translate(-5.08 14.76) rotate(-12.13)"/>
    </g>
    <g id="sunray">
        <g class="cls-4">
            <path class="cls-1" d="M35.37,23.53c-1.29,5.62-.25,11.46.57,17.06-1.59-2.25-1.95-5.65-1.93-8.47.07-2.83.29-6.14,1.36-8.58h0Z"/>
        </g>
        <g class="cls-4">
            <path class="cls-1" d="M39.03,47.45c3.04,4.37,7.33,7.35,11.22,10.88-2.37-.51-4.81-2.69-6.52-4.5-1.57-1.71-3.93-4.4-4.7-6.37h0Z"/>
        </g>
        <g class="cls-4">
            <path class="cls-1" d="M59.87,62.11c5.29,1.37,10.73.4,16.02-.34-2.08,1.55-5.32,1.88-7.98,1.82-2.58-.09-5.89-.4-8.05-1.47h0Z"/>
        </g>
        <g class="cls-4">
            <path class="cls-1" d="M84.94,58.21c3.9-2.42,6.55-6.06,9.84-9.16,0,0,.08.06.08.06-.83,2.18-2.39,3.96-4.19,5.4-1.74,1.5-3.65,2.77-5.68,3.79l-.05-.09h0Z"/>
        </g>
        <g class="cls-4">
            <path class="cls-1" d="M98.79,41.04c1.82-5.48,1.19-11.21.69-16.82,1.46,2.3,1.61,5.7,1.38,8.48-.26,2.74-.8,6.1-2.07,8.34h0Z"/>
        </g>
        <g class="cls-4">
            <path class="cls-1" d="M93.99,13.23c-3.46-3.57-7.74-6.01-11.34-9.39,2.08.35,4.66,2.49,6.27,3.97,1.43,1.35,4.26,3.92,5.07,5.42h0Z"/>
        </g>
        <g class="cls-4">
            <path class="cls-1" d="M72.8.87c-5.05-.79-9.9.41-14.88,1.03C59.72.45,62.9.04,65.27,0c2.33-.02,5.55.05,7.54.86h0Z"/>
        </g>
        <g class="cls-4">
            <path class="cls-1" d="M50.36,5.22c-3.9,2.11-6.48,5.57-9.61,8.58,0,0-.08-.05-.08-.05.74-2.13,2.26-3.86,4.02-5.21,1.71-1.41,3.61-2.56,5.63-3.41l.04.09h0Z"/>
        </g>
    </g>
    <g id="cloud-back">
        <path class="cls-3" d="M180.16,56.23c0,3.4-4.58,6.26-10.76,7.04-5.69,3.7-16.2,6.18-28.22,6.18-5.68,0-11.03-.55-15.69-1.53-5.87,3.64-17.72,6.12-31.39,6.12-9.08,0-17.35-1.1-23.61-2.9-.23-.06-.46-.13-.69-.21-.12.07-.25.13-.38.19-3.79,1.8-9.07,2.92-14.91,2.92-11.57,0-20.95-4.38-20.95-9.78,0-3.9,4.89-7.27,11.96-8.84-.02-.26-.03-.53-.03-.79,0-9.12,11.33-16.51,25.3-16.51,2.34,0,4.62.21,6.77.6,3.24-11.93,15.13-20.78,29.3-20.78,10.82,0,20.32,5.16,25.64,12.91,1.76-.4,3.6-.68,5.5-.8,13.74-.89,25.39,6.33,26.03,16.13.04.59.04,1.18,0,1.76.87.33,1.7.68,2.48,1.04,7.59.15,13.65,3.34,13.65,7.25Z"/>
    </g>
    <g id="cloud-mid">
        <path class="cls-3" d="M112.34,76.71c-1.17,7.68-12.26,12.37-24.78,10.47-2.97-.45-5.75-1.23-8.26-2.26-4.26,2.38-9.66,3.8-15.54,3.8-3.26,0-6.36-.43-9.21-1.24-3.27,3.17-10.34,5.36-18.54,5.36-5.35,0-10.22-.93-13.86-2.46-.06-.02-.11-.04-.16-.07-.05,0-.1,0-.16.02h-.02c-1.32.14-2.71.22-4.14.22-9.21,0-16.67-3.15-16.67-7.03,0-2.3,2.6-4.33,6.63-5.62-.04-.32-.05-.64-.05-.96,0-4.63,2.93-8.72,7.42-11.17-.46-1.57-.7-3.23-.7-4.95,0-9.75,7.77-17.66,17.35-17.66,8.54,0,15.63,6.27,17.07,14.53,4.18-2.21,9.39-3.52,15.04-3.52,6.91,0,13.16,1.96,17.66,5.13,3.19-.48,6.71-.48,10.35.07,12.53,1.9,21.73,9.66,20.57,17.34Z"/>
    </g>
    <g id="cloud-front">
        <path class="cls-3" d="M151.27,81.68c0,4.22-7.05,7.65-15.74,7.65-2.74,0-5.32-.34-7.56-.93-3.83,1.55-8.57,2.46-13.69,2.46-2.98,0-5.84-.31-8.46-.88-.67-.14-1.33-.3-1.96-.47-2.1,1.03-5.71,1.84-10.1,2.26-2.12.2-4.43.31-6.84.31-10.47,0-18.96-2.09-18.96-4.66,0-1.54,3.02-2.9,7.68-3.75,1.75-2.65,7.95-4.68,15.58-5-.02-.14-.02-.29-.02-.43,0-5.88,7.37-10.83,17.35-12.21,2.53-5.35,8.52-9.11,15.51-9.11,9.29,0,16.82,6.64,16.82,14.83,0,.92-.09,1.82-.28,2.69,6.21,1.03,10.67,3.88,10.67,7.24Z"/>
    </g>
</svg>