<?xml version="1.0" encoding="UTF-8"?>
<svg id="Layer_1" xmlns="http://www.w3.org/2000/svg" viewBox="0 0 1371.01 329.15">
  <defs>
    <style>
      .cls-1 {
        stroke: #9ebcc8;
        stroke-miterlimit: 10;
        stroke-width: 2px;
      }

      .cls-1, .cls-2 {
        fill: #e0f3fc;
      }

      .cls-3 {
        fill: #9ebcc8;
      }
    </style>
  </defs>
  <path class="cls-1" d="M2.95,5.57s75.07-27.3,106.13,51.56c0,0,85.43-9.1,82.84,86.95,0,0,55.22,22.24,61.26,63.69,0,0,57.81-68.75,122.53,12.13,0,0,37.97,72.79,75.93,49.54,37.97-23.25,100.96-29.32,100.96-29.32,0,0,45.73,1.01,59.54,27.3,13.81,26.29,90.65,42.97,90.65,42.97l46.19,16.38L1.01,328.15,2.95,5.57Z"/>
  <path class="cls-3" d="M108.96,59.17c15.27,22.91,15.67,53.5,3.7,77.99-3.08,6.13-7.13,11.7-11.69,16.76-5.65,6.42-13.91,11.5-22.77,10.45-12.17-1.35-21.36-11.3-27.2-21.35,11.97,18.39,31.69,29.05,48.63,9.68,13.68-14.89,19.96-35.16,19.98-55.15-.12-13.39-4.06-26.7-10.64-38.37h0Z"/>
  <path class="cls-3" d="M187.11,143.69c-10.44-.15-20.75-5.09-27.53-13.02-1.24-1.27-2.16-2.95-2.58-4.64-.51-1.66-.76-3.35-1.49-4.91,2.03,2.83,2.37,6.61,5.11,8.56,7.34,7.1,16.62,11.53,26.48,14.01h0Z"/>
  <g>
    <path class="cls-2" d="M67.14,316.79c-20.39-13.13-32.22-34.35-29.7-53.42.3-2.31,2.26-15.55,11.82-22.65,10.99-8.16,26.12-3.81,35.18,5.41,7.91,8.04,10.04,18.61,10.67,22.65"/>
    <path class="cls-3" d="M67.14,316.79c-17.15-10.34-31.32-28.84-30.93-49.57.43-12.11,6.02-25.81,18.16-30.26,12.88-4.59,27.2,2.76,34.33,13.61,3.52,5.52,5.63,11.81,6.41,18.21-1.23-6.32-3.52-12.47-7.22-17.66-7.09-10.11-20.81-16.78-32.89-12.45-12.64,4.86-17.83,20.76-16.82,33.33,1.62,18.53,14.05,34.42,28.96,44.79h0Z"/>
  </g>
  <path class="cls-3" d="M316.31,258.3c-1.39,11.8-7.81,23.93-19.02,28.97-14.63,6.85-34.95-4.43-44.66-15.54-6.83-7.57-11.68-17.14-12.96-27.31-.93-9.34.8-18.9,4.72-27.4,1.28-2.53,3.01-5.26,4.9-7.53,0,0,4.44-3.84,4.44-3.84l-4.21,4.1c-3.61,4.8-5.7,9.95-7.11,15.88-2.09,8.54-2.15,17.66.59,26.05,4.57,13.89,15.36,25.57,28.56,31.76,7.72,3.81,16.97,6.04,25.16,2.52,11.04-4.68,17.46-16.24,19.58-27.65h0Z"/>
  <path class="cls-3" d="M617.15,276.31c2.92,6.61,3.07,15.52-2.11,21.17-2.3,2.36-5.38,4.53-8.87,4.21-7.15-1.19-8.47-10.57-6.33-16.26-.73,5.12.42,13.4,6.51,14.37,2.67.2,5.39-1.8,7.29-3.68,4.82-5.28,4.94-13.05,3.51-19.82h0Z"/>
  <path class="cls-3" d="M106.19,59.06s16.99,23.23,10.03,61.1l3.96-8.8-.92-26.64-1.5-8.05s-4.91-13.92-7.64-18.01"/>
  <path class="cls-3" d="M188.94,145.78s-14.81-2.12-21.42-7.44l3-2.25s12.21,5.87,18.63,6.62"/>
  <path class="cls-3" d="M39.72,287.39s15.35,32.17,44.21,38.76h3.89s-27.84-9.3-46.05-39.34"/>
  <path class="cls-3" d="M250.48,212.31s-8.87,12.83-9.01,26.75l-2.59-6.14s2.73-21.01,11.05-24.97"/>
  <path class="cls-3" d="M614.28,274.94s4.4,11.46,0,19.34l1.94.51,2.76-3.58-.1-7.98-1.33-7.37-3.27-.92Z"/>
  <path class="cls-1" d="M1365.22,7.12c-13.99-3.89-76.48-17.01-105.31,49.5-.64,1.48-2.09,2.44-3.69,2.37-14.43-.58-83.52.95-82.65,83.8.02,1.59-.89,3.04-2.33,3.66-10.17,4.43-49.86,23.56-59.21,55.72-.79,2.72-4.15,3.63-6.24,1.74-15.39-13.97-65.72-49.85-121,16.5-.16.2-.3.4-.43.62-2.87,5.17-40.41,71.03-77.94,48.85-37.65-22.25-99.21-28.64-103.61-29.08-.17-.02-.34-.02-.51-.02-3.78.13-47.41,2.13-60.99,27.09-13.77,25.29-88.44,41.62-93.04,42.61-.15.03-.29.07-.44.12l-25.19,8.62c-4.13,1.41-3.14,7.6,1.23,7.61l742.28,1.32c2.14,0,3.88-1.76,3.86-3.93l-1.96-313.36c-.01-1.75-1.17-3.28-2.83-3.74Z"/>
  <path class="cls-3" d="M1260.79,61.61c-6.95,11.71-11.2,25.23-11.22,38.85.16,17.74,5.35,35.79,16.65,49.66,4.7,5.81,10.17,11.58,17.42,14,15.31,5.42,29.84-6.64,38.02-18.68-8.69,14.86-26.25,27.86-43.4,18.13-5.37-2.98-9.62-7.58-13.5-12.25-2.67-3.34-5.33-6.99-7.32-10.78-13.11-24.58-12.82-55.91,3.33-78.94h0Z"/>
  <path class="cls-3" d="M1178.71,146.13c10.2-2.46,19.92-6.75,27.7-13.88,1.41-1.15,2.35-2.31,3.05-3.97.75-1.56,1.33-3.31,2.44-4.72-.78,1.59-1.06,3.33-1.63,5.04-.45,1.75-1.57,3.47-2.84,4.69-7.26,7.95-17.98,12.7-28.72,12.84h0Z"/>
  <g>
    <path class="cls-2" d="M1304.71,319.23c21.41-13.13,33.84-34.35,31.2-53.42-.32-2.31-2.38-15.55-12.42-22.65-11.54-8.16-27.43-3.81-36.95,5.41-8.3,8.04-10.55,18.61-11.21,22.65"/>
    <path class="cls-3" d="M1304.71,319.23c15.75-10.4,29.32-26.75,30.59-46.18.49-12.7-5.34-27.74-18.23-32.09-12.4-3.94-26.41,2.28-34.03,12.4-3.94,5.18-6.42,11.42-7.71,17.86.85-6.52,3.14-12.92,6.92-18.43,9.31-13.7,30.94-20.65,44.2-8.45,8.07,7.45,11.49,19.32,10.53,30.06-1.83,19.29-16,35.45-32.26,44.83h0Z"/>
  </g>
  <path class="cls-3" d="M1043.02,260.74c2.15,11.38,8.84,22.42,19.62,27.3,8.67,3.84,18.54,1.95,26.89-1.95,13.01-5.63,23.98-16.19,29.53-29.28,5.08-11.95,3.63-26.07-1.26-37.15-1.24-2.62-2.91-5.27-4.63-7.48,0,0-4.43-4.1-4.43-4.1.02.02,4.66,3.84,4.68,3.86,2.05,2.38,3.94,5.21,5.31,7.9,1.25,2.59,2.24,5.31,3.02,8.08,2.99,10.37,2.75,21.84-2,31.67-5.81,12.63-16.66,22.86-29.48,28.19-5.64,2.47-11.78,4.3-18.02,4.04-16.15-.64-27.55-15.97-29.23-31.08h0Z"/>
  <path class="cls-3" d="M729.94,278.75c-1.38,5.98-1.39,12.49,1.93,17.7,2.07,2.99,5.7,5.92,9.41,5.8,6.31-.91,7.69-9.03,6.84-14.38,2.3,5.8.6,15.23-6.68,16.26-3.51.3-6.66-1.74-9.08-4.05-5.53-5.51-5.5-14.69-2.42-21.34h0Z"/>
  <path class="cls-3" d="M1263.69,61.5s-17.84,23.23-10.53,61.1l-4.16-8.8.97-26.64,1.58-8.05s5.16-13.92,8.03-18.01"/>
  <path class="cls-3" d="M1176.79,148.22s15.55-2.12,22.5-7.44l-3.15-2.25s-12.83,5.87-19.56,6.62"/>
  <path class="cls-3" d="M1333.5,289.81s-16.12,30.99-46.43,37.34h-4.08s29.24-8.96,48.37-37.9"/>
  <path class="cls-3" d="M1112.16,214.75s9.32,12.83,9.46,26.75l2.72-6.14s-2.87-21.01-11.61-24.97"/>
  <path class="cls-3" d="M732.95,277.38s-4.62,11.46,0,19.34l-2.04.51-2.9-3.58.11-7.98,1.4-7.37,3.44-.92Z"/>
</svg>