<?xml version="1.0" encoding="UTF-8"?><svg id="Layer_3" xmlns="http://www.w3.org/2000/svg" xmlns:xlink="http://www.w3.org/1999/xlink" viewBox="0 0 1024 1050.63"><defs><style>.cls-1{fill:url(#radial-gradient);stroke:#ee3d23;stroke-width:.75px;}.cls-1,.cls-2{stroke-miterlimit:10;}.cls-3{fill:#9ebcc8;}.cls-2{fill:#e0f3fc;stroke:#9ebcc8;stroke-width:.5px;}</style><radialGradient id="radial-gradient" cx="493.2" cy="432.45" fx="863.76" fy="244.78" r="415.37" gradientUnits="userSpaceOnUse"><stop offset="0" stop-color="#fbaa1d"/><stop offset="1" stop-color="#ef5123"/></radialGradient></defs><ellipse class="cls-1" cx="493.2" cy="432.45" rx="437.01" ry="392.55"/><path class="cls-2" d="M225.87,113.3c3.76-3.13-65.32,37.95-106.31,65.05-27.22,17.99-58.62,44.12-66.81,60.53-2.78,5.58-4.72,11.45-5.21,17.55-.8,9.85,13.51,40.07-4.52,50.38-25.23,14.42-19.5,74.18-19.5,74.18,0,0-4.59,54.61,99.79,41.21,0,0,36.7,58.73,118.14,18.55,0,0,20.65,21.64,67.67,17.52,47.03-4.12,69.23,107.74,69.23,107.74,0,0,34.55-196.79-47.44-168.53,0,0-11.47-87.58-104.38-50.49,0,0,.86-70.58-58.21-57.7,0,0-1.15-74.7-12.62-76.76-11.47-2.06.41-23.23.41-23.23,0,0,7.81-24.48,69.75-76Z"/><path class="cls-2" d="M742.02,103.38s70.18,42.51,116.06,62.09c45.88,19.58,61.94,102,61.94,102,0,0,55.06,15.45,30.97,57.7,0,0,51.61,63.88-32.12,97.88,0,0-52.76,19.58-87.17-23.7,0,0-61.94,87.58-103.23,51.52-41.29-36.06-67.67,29.88-67.67,29.88l-25.52,90.41s-18.07-114.11,3.73-161.5c21.79-47.39,59.64-29.88,59.64-29.88,0,0,40.14-103.03,118.14-87.58,0,0-29.82-53.58,16.06-83.45,0,0-21.72-67.24-90.83-105.36Z"/><path class="cls-3" d="M164.63,288.77c-13.7,11.2-41.63,31.02-59.81,23.44-8.38-3.86-18.44-10.87-17.55-21.27.9-4.07,3.45-7.76,6.42-10.64,6.64-6.41,16.08-4.58,23.19-.03-4.71-2.75-10.32-4.85-15.81-3.61-6.54,1.4-11.1,7.3-13.28,13.33-.98,4.4.96,8.98,3.78,12.33,3.62,4.17,8.41,7.18,13.44,9.44,2.49,1.15,5.25,1.65,8,1.72,17.59.06,38.11-14.11,51.61-24.71h0Z"/><path class="cls-3" d="M225.71,347.49c-14.88,3.78-35.94,7.11-50.17.19-2.16-1.13-4.16-2.6-5.75-4.44,1.65,1.79,3.69,3.17,5.86,4.22,14.3,6.54,35.04,3.2,50.06.03h0Z"/><path class="cls-3" d="M119.04,422.45c12.4-5.22,28.43-12.98,35.54-24.81,3.89-6.35,2.22-14.82-2.52-20.23-4.96-5.5-12.96-7.13-20.09-6.57-9.82-.96-14.89,6.87-15.93,15.69.92-9.07,6.01-16.89,15.9-16,7.27-.61,15.36,1,20.46,6.58,4.95,5.53,6.59,14.27,2.56,20.74-7.3,11.94-23.26,19.59-35.91,24.61h0Z"/><path class="cls-3" d="M239.9,443.31c4.25-9.47,12.04-19.5,23.19-20.27,5.76-.24,15.51,2.32,16.89,8.78.68,4.15-1.99,8.05-4.75,10.86-5.11,1.96-12.59,2.04-14.25-4.39,1.72,6.26,9.17,6.06,14.14,4.11,2.41-2.58,5.22-6.55,4.47-10.5-1.29-6.09-11.05-8.61-16.47-8.43-11.04.68-18.73,10.6-23.21,19.84h0Z"/><path class="cls-3" d="M249.65,432.69s-4.48,8.59-1.47,12.84l-7.35-2.21,4.73-11.59,4.09.97Z"/><path class="cls-3" d="M166.39,292.82s-4.95,2.61-24.22,14.19l9.74-10.72s16.2-9.18,16.2-9.95"/><path class="cls-3" d="M223.81,351.76s-20.35,5.21-33.04,1.35c0,0,36.03-8.58,37.71-8.58,1.51,0-4.67,7.23-4.67,7.23Z"/><path class="cls-3" d="M128.57,423.8s8.82-2.7,26.24-20.09l-23.87,13.52-7.53,3.67,5.16,2.9Z"/><path class="cls-3" d="M813.9,291.33c12.51,7.91,30.9,12.37,42.76,1.07,4.53-4.45,8.32-10.05,9.88-16.26,2.88-11.83-10.76-15.59-19.95-15.71,7.42.18,17.65,1.64,20.26,9.8,1.92,7.78-4.52,17.29-9.86,22.54-12.01,11.31-30.66,6.89-43.09-1.43h0Z"/><path class="cls-3" d="M949.61,325.91c-5.88,9.6-17.75,20.88-29.6,14.29-5.32-3.01-10.92-7.29-12.14-13.66-.21-1.66-.3-3.45.52-4.99,1.66-2.9,4.59-5.21,7.98-5.56,3.36-.32,6.61,1.19,9.37,2.96-2.76-1.68-6.05-3.12-9.34-2.72-3.29.38-6.12,2.64-7.72,5.48-.75,1.42-.66,3.2-.44,4.76,1.24,6.23,6.81,10.3,12,13.31,11.65,6.57,23.28-4.65,29.37-13.88h0Z"/><path class="cls-3" d="M818.24,287.4s10.22,12.27,22.47,8.89l-2.8,2.7-20.86-4.54-.54-6.47,1.72-.58Z"/><path class="cls-3" d="M835.34,399.38s2.87-12.49-2.29-20.09l-10.97-7.86s12.76,13.91,5.52,28.59l7.74-.64Z"/><path class="cls-3" d="M834.48,399c1.03-12.89-3.91-27.53-16.2-33.42-9.73-4.66-21.2-4.53-31.57-2.32-6.81,1.52-13.93,5.5-15.81,12.69-1.89,6.95.33,14.45,3.49,20.65,3.15,4.26,8.01,8.35,13.62,7.85,5.66-.63,9.54-5.54,12.34-10.08-2.76,4.6-6.62,9.59-12.32,10.29-5.73.59-10.67-3.57-13.91-7.89-2.26-4.26-3.81-8.92-4.25-13.74-.78-7.64,2.9-14.55,9.89-17.85,6.48-3.17,14.04-3.78,21.17-3.79,22.85.2,35.13,15.26,33.54,37.61h0Z"/></svg>