<?xml version="1.0" encoding="UTF-8"?><svg xmlns="http://www.w3.org/2000/svg" xmlns:xlink="http://www.w3.org/1999/xlink" viewBox="0 0 1370 771.24"><defs><style>.cls-1{fill:#9ec7ed;}.cls-2{fill:#d7eef4;}.cls-3{fill:#d3eaf4;}.cls-4{fill:#a5c6e5;}.cls-5{fill:#94c9eb;}.cls-6{fill:#a5cdeb;}.cls-7{fill:#b1d7ee;}.cls-8{fill:#aed5eb;}.cls-9{fill:#8cb3d1;}.cls-10{fill:#97c0e6;}.cls-11{fill:#badae1;}.cls-12{fill:#c8e4ed;}.cls-13{fill:#c3dfed;}.cls-14{fill:#9fceea;}.cls-15{fill:#b2dce8;}.cls-16{fill:#a1c7d6;}.cls-17{fill:#99bfce;}.cls-18{fill:#9bbee8;}.cls-19{fill:#e0f3fc;}.cls-20{fill:#769bae;}.cls-21{fill:#85b2e8;}.cls-22{fill:#bfdbef;}.cls-23{fill:#c6e4f8;}.cls-24{fill:#78abdd;}.cls-25{fill:#abd5e5;}.cls-26{fill:#9ac6ee;}.cls-27{fill:#78b3c9;}.cls-28{fill:#75aae0;}.cls-29{fill:#bcddf8;}.cls-30{fill:#d9eef4;}.cls-31{fill:#b3d3ef;}.cls-32{fill:#dceff4;}.cls-33{fill:#c3ebf8;}.cls-34{fill:#94b7ed;}.cls-35{fill:#94c4f5;}.cls-36{fill:#b5cee2;}.cls-37{fill:#b3d4e5;}.cls-38{fill:#b1d3e8;}.cls-39{fill:#bedeed;}.cls-40{fill:url(#linear-gradient);}.cls-41{fill:#9ecae3;}.cls-42{fill:#a2d1eb;}.cls-43{fill:#b0d3ea;}.cls-44{fill:#b5d8e0;}.cls-45{fill:#a3cae7;}</style><linearGradient id="linear-gradient" x1="685" y1="769" x2="685" y2="0" gradientUnits="userSpaceOnUse"><stop offset="0" stop-color="#a6dde9"/><stop offset=".04" stop-color="#9cd4e3"/><stop offset=".28" stop-color="#64a2c6"/><stop offset=".51" stop-color="#397aae"/><stop offset=".71" stop-color="#195e9d"/><stop offset=".88" stop-color="#064d93"/><stop offset="1" stop-color="#004790"/></linearGradient></defs><g id="Layer_1"><path class="cls-40" d="M1370,0v494.4s-.07-.1-.11-.15c-.14-.21-.28-.43-.41-.64l-.32,43.44-.02,4.09c-.23.08-.46.14-.7.2-.01,0-.01.02-.03.02l-.81,109.56-.05,7.51v.03l-.12,15.16,2.57,2.56v92.82H.99v-209.44c-.33-.05-.65-.1-.97-.17.34-.06.66-.13.97-.18v-13.22c-.61-.11-.95-.25-.99-.41-.03-.14.31-.33.99-.56V0h1369.01Z"/></g><g id="cloud-left"><path class="cls-35" d="M311.4,449.86c2.35-1.19-.81-6.53,2.65-10.82,3.52-4.36,11.08-4.14,14.09-4.06,8.16.24,13.28,3.31,18.58,5.6,13.03,5.62,35.49,10.08,49.22,1.74,4.3-2.61,5.57-5.16,12.46-8.5,5.7-2.76,8.11-2.6,15.11-5.79,5.1-2.33,13.04-6.61,12.46-8.11-.61-1.56-9.49,2.41-22.46.77-6.95-.88-5.71-2.18-14.5-3.48-7.87-1.16-11.95-.57-18.99-3.09-3.25-1.17-3.6-1.73-6.74-3.09-8.14-3.53-15.25-3.82-25.53-4.25-8.35-.35-5.47.57-23.89.97-1.92.04-4.02.08-6.74.77-7.53,1.93-12.06,6.93-13.27,8.3-1.49,1.69-9.27,10.52-6.33,20.47,2.4,8.11,11.03,14,13.89,12.55Z"/><path class="cls-6" d="M313.37,534.19c-8.62,5.31-17.46,11.34-25.9,18.24-4.9,4.01-9.65,8.3-14.16,12.95-5.47,5.59-10.56,11.67-15.07,18.31-11.06,16.26-7.87,19.89-16.42,38.44-1.82,3.94-4.15,8.54-7.27,14.08-5.93,10.55-12.31,21.87-19.75,32.85-2.6,3.82-5.33,7.61-8.21,11.3-1.8,2.32-3.69,4.62-5.63,6.87-7.5,8.64-15.98,16.54-25.9,23.13,0,0-.02.02-.04.02-2.9,1.92-5.93,3.74-9.08,5.41-6.22,3.3-12.77,5.98-19.58,8.05h-.02c-1.5.49-2.99.93-4.52,1.31-3.54.98-7.16,1.77-10.81,2.39h-.04c-13.43,2.41-27.39,2.8-41.29,1.38,0,0-.02.02-.07,0-.04-.02-.07-.02-.12-.02h-.14c-.16-.02-.36-.05-.59-.08-.18-.02-.39-.03-.62-.07-.18-.03-.37-.05-.59-.07-.05-.02-.12-.02-.18-.02-.34-.03-.64-.07-.98-.12-.16-.02-.34-.03-.52-.05-6.34-.79-12.65-1.95-18.85-3.45-18.63-4.53-36.35-12.18-51.39-22.4-5.08-3.44-9.73-7.09-14-10.95v-239.39c9.81-2.98,21.32-5.14,34.82-6.89,19.2-2.49,42.45-4.16,70.66-6.2,8.62-.62,17.03-1.08,25.19-1.4,3.03-.13,6.02-.24,8.98-.3h.02c1.26-.05,2.53-.08,3.79-.1h.04c7.05-.17,13.93-.24,20.59-.19,25.31.12,47.77,1.57,67.1,3.69h.02c39.36,4.3,65.73,11.3,76.63,15.4,1.44.54,2.62,1.03,3.51,1.45,3.05,1.43,9.07,5.05,18.24,5.91,11.04,1.04,15.6-2.97,23.4.27,5.59,2.31,11.19,7.63,10.63,12.35-.52,4.3-5.75,5.22-6.27,9.28-.68,5.32,8.18,7.5,9.96,11.54.05.1.09.2.12.3,2.8,8.17-25.03,17.89-55.7,36.76Z"/><path class="cls-43" d="M85.34,583.12c3.28,13.43,9,18.39,13.48,20.47,3.22,1.5,5.29,1.27,21.65,2.32,15.89,1.02,18.56,1.53,19.6,3.48,2.87,5.34-9.89,14.93-7.35,18.15,1.4,1.77,6.28.15,13.07-1.54,17.98-4.49,21.17-.74,26.14-4.64,7.24-5.68,7.4-17.35,5.31-24.72-2.28-8.05-7.72-12.6-13.89-17.77-5.34-4.47-21.8-18.25-34.31-13.52-6.03,2.28-5.68,6.8-12.66,11.2-8.61,5.42-19.1,4.81-26.55,3.48l-4.49,3.09Z"/><path class="cls-42" d="M151.23,746.89c-.36,1.87-1.16,3.57-2.41,5.16-.6.79-1.32,1.55-2.15,2.29-.77.69-1.63,1.36-2.59,2.04h-.01c-4.19,2.93-10.2,5.76-18.16,9.13h-.01c-1.38.58-2.81,1.18-4.31,1.79H1.64v-7.88c-.6-.15-.94-.33-.98-.55-.03-.19.31-.44.98-.76v-87.06c17.71-4.07,43.77,1.08,69.23,10.74,0,0,0,.01.02.01,14.08,5.36,27.97,12.1,40.13,19.42,0,0,.01,0,.01.01,5.28,3.16,10.24,6.45,14.74,9.78,0,0,.01,0,.01.01s0,.01.01.01h.02c2.37,1.76,4.62,3.52,6.71,5.28t.02.02c3.51,2.95,6.63,5.92,9.28,8.83,1.64,1.82,3.1,3.62,4.33,5.41.41.55.78,1.11,1.14,1.67.98,1.53,1.78,3.03,2.42,4.51,1.55,3.57,2.12,6.97,1.52,10.14Z"/><path class="cls-10" d="M50.46,402.32c.02.12,0,.22-.04.32-.09.59-.2,1.2-.32,1.77,0,.07-.02.13-.04.2-1.98,9.3-6.8,17.06-13.88,19.69-2.01.74-4.29,1.1-6.64,1.15-3.88.07-7.94-.74-11.33-2.19-8.67-3.71-10.49-10.66-15.25-10.04-.48.07-.93.2-1.34.39v-57.98c.62-.22,1.23-.42,1.83-.61,5.75-1.73,11.22-1.45,15.07-.82,2.26.35,3.97.84,4.84,1.09,16.73,4.88,23.39,20.2,24.51,22.91,3.1,7.51,3.81,16.24,2.56,24.12Z"/><path class="cls-15" d="M560.39,767.3h-298.45c1.49-.34,3.04-.8,4.68-1.43,12.45-4.79,25.25-17.45,23.44-24.9-2.17-8.93-24.63-7.53-44.62-8.08h-.01c-14.97-.41-28.54-1.93-31.14-9.71-1.42-4.24.63-9.79,4.84-15.76,1.02-1.44,2.16-2.92,3.42-4.4,8.62-10.19,22.37-21,35.35-28.46,16.43-9.44,33.45-14.56,49.7-16.97h.01c15.72-2.33,30.72-2.12,43.79-.82,19.65,1.95,34.93,6.36,41.67,8.31.03.01.06.02.09.03h.01c1.15.37,6.32,2.35,15.67,6.01h.01c9.08,3.54,22.11,8.67,39.27,15.42,2.06.82,4.19,1.65,6.37,2.51.78.31,1.57.62,2.36.93,4.93,1.94,9.4,3.71,13.59,5.39h0c.3.12.6.24.89.36,2.19.87,4.29,1.73,6.33,2.57,10.91,4.49,20.15,8.63,30.96,14.21,14.54,7.5,27.05,14.05,36.31,20.7,10.27,7.39,16.54,14.92,17.08,24.06.01.1.02.2.02.3.16,3.55-.55,6.84-1.65,9.73Z"/><path class="cls-26" d="M117.99,553.19c.25,5.39-1.69,11.15-5.56,14.67-2.89,2.61-7.37,3.4-16.33,5.02-9.48,1.7-14.21,2.54-18.79.77-7.05-2.75-6.07-7.8-12.25-10.43-6.48-2.78-10.78,1.43-26.54,5.02-12.59,2.85-21.71,4.92-29.41.77-2.64-1.43-5.4-3.72-7.46-6.37v-14.32c7.91-5.49,29.87-7.08,67.03-9.01,1.16-.05,2.35-.12,3.54-.19,1.67-.08,3.37-.17,5.09-.25,23.05-1.16,33.25-.84,37.97,5.79,1.67,2.36,2.56,5.37,2.71,8.51Z"/><path class="cls-13" d="M445.16,522.51c-1.13,1.94-10.16-3.41-18.58.97-3.52,1.83-7.24,5.51-6.74,8.88.33,2.23,2.26,2.63,7.35,6.95,6.7,5.68,5.67,6.95,9.8,9.27,5.81,3.27,9.49,1.68,11.23,4.64,2.1,3.56-2.11,7.83,0,9.85,2.05,1.96,7.74-.42,8.58-.77,5.18-2.17,5.24-4.92,8.78-5.99,5.71-1.73,14.12,2.81,14.5,7.15.36,4.11-6.64,6.55-5.72,9.27.59,1.76,4.08,2.41,11.44,2.7,13.87.56,21.65-.93,21.85-.19.3,1.1-15.94,7.9-38.39,11.59-16.03,2.63-15.02.35-41.86,3.09-18.28,1.86-18.57,3.07-29.34,1.38-7.98-1.25-28.16-3.25-30.9-11.23-2.75-8,9.58-13.63,24.71-34.38,17.47-23.95,16.8-38.08,27.98-39.98,12.8-2.18,26.9,14.1,25.32,16.8Z"/><path class="cls-4" d="M90,362c3.89-4.62-2-1.52,2.67-4.79,7.12-4.99,14.97-4.45,25.17-4.63,6.27-.12,11.48-.45,15.94-.96h.02c3.18-.34,5.97-.76,8.52-1.21,8.89-1.57,14.79-3.57,22.88-4.51.52-.05,1.04-.1,1.58-.17.97-.08,1.97-.15,3.01-.22,1.08-.07,2.21-.1,3.4-.12,2.7-.05,5.67.02,9.04.24,18.14,1.15,27.4.59,33.7,6.18,3.94,3.5,6.31,8.25,7.38,13.51.52,2.61.74,5.34.67,8.1v.02c-.11,4.7-1.04,9.52-2.62,13.96.02.02,0,.02,0,.02-.8,2.27-1.77,4.46-2.88,6.5-.28.49-.54.98-.82,1.43,0,.02-.02.03-.02.03-.8,1.35-1.67,2.54-2.6,3.69v.03c-2.1,2.56-4.5,4.73-7.5,6.89-1.82,1.31-3.87,2.61-6.18,3.98-5.93,3.49-13.58,7.38-23.77,12.87-1.15.62-2.29,1.26-3.5,1.94,0,0-.02-.02-.04,0-.26.13-.52.27-.78.42-5.39,2.96-10.23,5.64-14.6,8.12-2.55,1.45-4.95,2.81-7.2,4.11h-.04s-.04.05-.07.07c-2.77,1.62-5.34,3.12-7.72,4.55-8.44,5.07-14.79,9.2-20.7,13.29-1.84,1.26-3.44,2.41-4.89,3.44-8.89,6.4-11.57,9.23-20.16,15.63l-.02.02c-2.53,1.89-5.58,4.09-9.47,6.79-12,8.34-20.59,14.27-28.68,18.63-4.65,2.53-9.15,4.53-14.04,6.17-1.1.39-2.21.74-3.35,1.08-8.56,2.54-28.27,8.39-40.7,2.58v-27.98c9.47-1.5,22.39-.34,30.47-8.98,7.92-8.47,6.77-21.75,5.9-27.27-.13-.94-.28-1.65-.35-2.07-1.97-10.26-6.16-9.92-6.83-17.38-.02-.17-.04-.35-.04-.52-.26-4.28.93-7.8,2.83-10.98,4.63-7.75,13.39-13.46,15.2-22.94.28-1.31.39-2.71.35-4.18-.37-12.5-12.15-21.38-14.08-22.79-6.1-4.45-12.67-6.18-18.21-6.99-7.24-1.08-12.76-.61-13.32-2.54-.02-.03-.04-.08-.04-.12-.17-.99.89-2.39,21.13-8.29.39-.12.8-.24,1.21-.35,7.12-2.07,16.52-4.67,28.85-7.97,3.31-.88,6.44-1.7,9.37-2.29,2.88-.57,5.58-.89,8.04-.81h.02c2.92.08,5.51.78,7.74,2.32,2.59,1.8,8.31,4.07,9.13,6.48.26.77-3.83,1.77-3.68,2.48.34,1.55.45,2.91.52,3.79.58,6.97,1.88,5.56-1.84,10.73"/><path class="cls-21" d="M81.46,369.19c-7.63,5.87-10.23,9.62-11.03,13.91-.21,1.14-1.16,6.97,2.45,11.59,1.22,1.56,4.04,4.37,19.6,6.18,17.24,2,25.86,3,35.53-.39,3.28-1.15,6.61-2.76,11.44-2.32,4.69.43,11.1,2.81,12.25,6.95,1.59,5.72-8.19,9.99-6.94,13.52,2.36,6.7,43.17,7.38,47.79-6.95,2.41-7.47-5.09-18.82-14.29-22.4-6.68-2.6-10.07.51-17.7-2.11-7.83-2.69-9.59-7.8-16.61-14.89-4.55-4.6-18.59-18.78-34.72-18.15-8.64.33-15.02,5.24-27.77,15.06Z"/><path class="cls-36" d="M259.87,350.81c-5.52-.35-23.43,7.94-26.16,13.97-2.06,4.56-1.27,9.17-4.36,10.43-2.33.95-5.16-.71-5.72-1.03-5.06-2.96-3.85-8.81-6.81-9.59-2.94-.77-6.93,4.27-11.71,10.3-.73.92-2.17,2.49-3.63,4.79,0,0-1.03,1.62-1.81,3.19-3.78,7.6-2.45,16.48-2.45,16.48.43,2.86,1.68,11.17,8.17,16.22,5.69,4.43,9.7,1.9,44.11-1.03,1.98-.17,4.75-.4,7.62-2.06,8.07-4.66,8.94-15.95,9.26-20.09,1.27-16.53,4.01-40.92-6.52-41.59Z"/><path class="cls-4" d="M289.4,275.94c-1.44,2.75-4.16,2.7-6.81,4.64-7.5,5.48-8.21,22.32.27,29.61,1.18,1.01,4.17,3.58,8.17,3.61,5.38.03,7.16-4.59,15.25-5.92,2.56-.42,5.1-.41,5.17-1.03.1-.88-5-.97-7.35-4.38-1.23-1.79-1.75-4.57-.54-6.18,1.88-2.51,7.4-1.51,11.98-.77,16.26,2.61,25.92,4.15,35.12,2.06,2.77-.63,13.85-3.15,15.79-10.3,1.66-6.12-4.36-12.09-4.9-12.62-3.92-3.79-7.93-4.13-25.59-6.95-14.88-2.38-15.65-2.72-21.78-3.35-22.39-2.3-24.59.92-25.05,1.8-1.49,2.84,2.29,5.93.27,9.79Z"/><path class="cls-21" d="M96.76,234.74c2.69-.76,6.65-1.59,11.44-1.55,10.24.09,17.89,4.13,24.51,7.98,13.01,7.57,20.3,13.37,34.85,23.95,15.59,11.32,23.46,17.02,27.5,18.54,10.32,3.9,17.9,3.87,25.32,11.07,6.1,5.92,4.05,8.92,8.71,11.33,7.84,4.05,20.28-1.02,38.66-8.5,7.09-2.89,5.97-23.55,8.85-21.76,2.16,1.34,16.19,10.54,16.88,18.28.59,6.62-5.37,14.75-6.4,17.38-4.72,12.02-23.89,17.64-35.4,18.8-3.81.38-19.61,1.47-29.54-6.95-9.27-7.85-7.12-15.43-11.84-15.19-2.41.12-2.52,1.91-3.54,3.86-1.76,3.37-4.43,2.97-4.9,10.3-.53,8.3-.5,8.62-.82,9.01-1.95,2.41-8.22,3.41-33.49-6.44-26.5-10.33-39.74-15.49-44.93-24.72-4.43-7.89-.95-10.03-8.44-30.39-2.02-5.48-4.51-11.41-8.17-18.03-2.77-5.01-5.48-9.09-7.62-12.1l-1.63-4.89Z"/><path class="cls-9" d="M115.6,268.18v.02c-.39.67-.82,1.33-1.28,1.97-3.72,5.36-9.17,9.35-11.7,11.19-10.81,7.9-17.53,6.82-27.09,9.82-1.75.54-3.6,1.23-5.59,2.14-2.4,1.09-4.76,2.51-7.11,4.26-1.37,1.01-2.74,2.16-4.13,3.4-.78.72-1.59,1.47-2.39,2.27-8.69,8.66-18.19,22.08-31.51,41.69-.36.54-.75,1.11-1.12,1.67-1.66,2.43-3.37,4.95-5.13,7.58-.3.44-.59.88-.89,1.31-.39.57-.85,1.26-1.43,2.06-2.64,3.76-7.32,9.45-14.59,12.95v-45.09c7.2-3.72,10.92-6.15,11.52-9.32,1.03-5.34-5.86-6.99-6.95-15.06-1-7.5,3.92-13.98,7.36-18.55,5.33-7.04,8.53-6.96,15.1-13.9,1.25-1.31,2.26-2.51,3.12-3.62,4.79-6.27,3.97-9.52,9.14-15.31,8.83-9.92,21.86-18.43,30.58-22.86.23-.12.48-.24.69-.34,3.81-1.89,6.72-2.95,7.94-2.93,4.2.05,10.88,5.29,17.63,10.92.69.56,1.37,1.13,2.05,1.7.48.4.96.81,1.44,1.21.48.39.96.79,1.43,1.16,1.8,1.5,3.54,2.93,5.22,4.19,2.8,2.12,9.3,7.07,10.21,14.67.46,3.91-.66,7.55-2.53,10.78Z"/><path class="cls-37" d="M143.96,64.53s-20.32,12.2-24.68,20.83c-4.36,8.63-5.85,10.94-5.72,16.48.14,5.54,8.03,7.21,8.03,7.21l5.17.26s13.48-11.59,20.69-13.78c7.22-2.19-7.49-9.66-7.49-9.66,0,0-5.33-6.62-3.07-13.48.89-2.72,2.98-5.47,7.05-7.86Z"/><path class="cls-16" d="M138.79,68.78s-2.74,3.65-2.31,8.79c.43,5.1,3.61,8.4,3.61,8.4,0,0,9.07,4.94,9.24,7.32.17,2.38-10.01,4.89-10.48,6.76,0,0,7.17-4.08,8.61-4.35s7.18-1.19,6.98-3.12c-.2-1.93-3.37-3.06-3.37-3.06,0,0-9.7-3.86-11.98-7.92-2.28-4.06-2.35-5.41-2.35-5.41,0,0-.78-3.38,2.06-7.42Z"/><path class="cls-4" d="M119.37,86.75c6.21-13.92-12.58,19.81-11.74,25.88.9,6.55,4.99,13.38,1.23,18.41-2.41,3.23-6.09,3.09-6.4,5.54-.56,4.47,11.38,8,10.62,11.85-.28,1.44-2.23,2.32-3.81,2.83,0,0-2.99,2.16-9.33-2.86-6.33-5.02,6.53,23.37,6.53,23.37l22.05,12.55s26.14-.39,26.96-1.16c.82-.77,13.68-5.02,7.76-20.28-5.92-15.26-5.11-12.94-5.11-12.94,0,0-2.65-14.87-4.9-17.77-2.25-2.9-44.48-21.63-33.87-45.42Z"/><path class="cls-18" d="M135.16,146.01c-2.05,3.72-3.26,5.91-4.29,9.75-1.22,4.55-2.13,7.94-1.12,11.59.47,1.69,1.14,2.7,1.84,5.79.43,1.92.49,2.97,1.02,3.09.85.2,1.3-3.11,3.57-4.92,2.8-2.24,6.21,1.02,9.29-.97,2.12-1.37,2.27-3.82,3.68-3.77,1.33.05,1.77,2.29,2.86,2.22,1.08-.06,1.99-2.35,2.25-4.35.52-4.01-1.55-7.3-3.57-10.43-1.17-1.8-.68-.67-7.25-8.11-2.28-2.59-3.39-3.91-4.8-3.77-1.13.12-1.96,1.12-3.47,3.86Z"/><path class="cls-18" d="M113.52,123.22c1.29-.57,2.87,3.35,7.66,5.41,3.62,1.55,6,.72,6.64,2.12.77,1.7-2.63,3.05-3.57,7.05-1.02,4.29,1.99,6.59.41,8.59-1.57,1.99-5.94,1.53-8.58.48-.36-.14-5.13-2.12-5.72-6.18-.38-2.62,1.14-5.1,1.33-5.41.81-1.3,1.37-1.39,1.74-2.51.5-1.55-.24-2.37-.51-4.73-.12-1.06-.5-4.34.61-4.83Z"/><path class="cls-28" d="M99.98,242.6c4.47-1.9,10.4-3.55,15.11-1.16,6.44,3.26,4.34,10.88,10.62,15.45,7.89,5.74,16.13-2.72,26.14,1.93,9.11,4.24,5.9,12.93,18.38,25.11,4.36,4.26,9.79,9.56,18.38,11.2,12.57,2.41,26.61-4.03,32.27-13.91,1.08-1.89,4.71-8.23,2.04-12.75-3-5.08-5.94-4.33-6.81-8.24-.56-2.52-3.04-3.98-1.36-6.82,5.11-8.66-6.22-27.69-21.65-37.08-17.59-10.7-37.2-6.85-44.52-5.41-28.26,5.56-44.14,25.59-48.6,31.67Z"/><path class="cls-37" d="M67.35,197.27c-5.54,5.54-16.19,6.65-32.1,7.92h-.02c-.85.07-1.71.13-2.6.2-5.13.4-8.28.39-11.35,1.4-.98.32-1.94.74-2.96,1.31-7.07,3.98-6.56,9.48-13.06,17.37-.78.96-1.62,1.89-2.49,2.75-.37.39-.75.76-1.14,1.13v-35.38c10.83-5.07,16.12-6.75,16.3-10.21.11-2.31-2.19-3.02-5.74-7.34-3.05-3.74-9.07-12.68-7.21-17.55v-.03c.09-.2.18-.37.28-.56,1.18-2.11,4.27-3.5,31.03-1.94,21.8,1.26,24.21,2.44,26.15,3.86,11.1,8.09,13.45,28.52,4.9,37.08Z"/><path class="cls-21" d="M234.39,240.28c1.69-2.47,3.61-4.08,5.45-5.15,11.49-6.66,33.79-.24,35.94,11.59,1.44,7.91-6.24,17.58-15.52,20.09-4.41,1.19-8.13.48-10.62,0-1.6-.31-17.5-3.57-19.33-14.16-.96-5.53,2.4-10.31,4.08-12.36Z"/><path class="cls-24" d="M170.68,283.8c-.67.8,4.96,9.15,14.7,12.1,12.16,3.68,18.69-4.68,27.5-.77,9.31,4.13,5.47,15,15.79,21.37,11.3,6.97,26.85.73,28.59,0,11.03-4.6,16.12-13.28,19.06-18.28,4.57-7.78,9.01-14.58,6.54-20.86-2.24-5.69-11.93-8.6-31.31-14.42-6.82-2.05-13.36-3.72-25.05-6.7-9.81-2.5-13.9-5.44-15.52-3.86-2.47,2.39,10.72,10.53,9.8,20.6-.94,10.33-16.23,20.23-29.41,19.57-11.88-.59-19.95-9.65-20.69-8.76Z"/><path class="cls-24" d="M34.4,311.22c-9.32,6.81-11.13,12.74-11.44,16.22-.32,3.64,1,4.52,1.63,13.91.46,6.8-4.07,4.33-2.6,5.65,2.93,2.63,11.91,3.43,21.66,3.62,7.15.14,7.36,2.17,10.89,1.55,8.8-1.55,15.82-14.14,15.79-25.49,0-2.59.86-21.41-11.34-25.67-7.64-2.67-18.12,3.03-24.6,10.22h0Z"/><path class="cls-21" d="M60.35,287.05c-4.17,2.24-.63,16.99-1.31,22.24-.51,3.94.97,5.11,2.18,11.33,2.27,11.71-1.6,14.69,1.36,18.8,3.95,5.49,14.36,5.04,23.96,4.63,10.04-.43,12.58-2.59,24.78-2.83,7.85-.16,7.04.73,13.07.51,17.87-.65,25.4-8.51,31.31-4.64,4.89,3.21,3.51,11.08,4.9,11.07,1.82-.01,7.46-13.49,2.18-22.92-7.1-12.68-26.14-4.14-58.81-17.25-17.99-7.22-35.14-25.51-43.62-20.95Z"/><path class="cls-21" d="M175.17,607.48c1.74,1.59,4.4,4.61,4.63,8.63.17,2.98-1.05,5.75-1.84,7.53-1.63,3.7-2.93,4.11-2.86,5.79.11,2.82,3.8,3.58,8.37,7.15,7.22,5.63,6.18,10.07,13.27,14.87,1.45.98.86.34,7.96,3.67,11.3,5.29,12.58,6.68,13.89,5.99,3.66-1.94.32-16.45-6.13-27.62-2.53-4.39-7.9-13.4-19.4-19.89-7.03-3.97-13.66-5.48-17.9-6.12Z"/><path class="cls-24" d="M135.42,450.73c1.4,2.37,5.88,2.51,12.25,2.7,6.67.21,11.46-.69,16.34-1.54,23.06-4.05,25-3.14,26.14-2.32,4.25,3.08.57,7.35,5.31,18.15,3.19,7.27,7.78,12,12.25,16.61,1.45,1.5,8.94,9.21,10.62,8.11,1.47-.96-3.44-7.35-4.49-18.54-.48-5.11-.91-9.71,2.04-12.36,3.7-3.31,8.8-.06,13.48-3.09,4.32-2.8,6.11-9.55,4.9-14.29-3.57-13.98-34.94-17.25-47.38-18.54-13.32-1.39-23.42-2.31-33.9,3.09-11.31,5.82-20.22,17.53-17.56,22.02Z"/><path class="cls-24" d="M325.75,476.99c-.29-4.63-8.03-8.95-15.11-10.04-12.71-1.96-17.37,7.41-37.98,16.22-17.42,7.45-21.27,3.83-44.93,13.52-4.91,2.01-23.92,9.8-22.87,13.52.62,2.19,7.82,1.64,21.24,2.32,20.52,1.03,24.98,1.35,30.22,3.09,10.57,3.51,9.51,8.61,16.75,9.66,12.21,1.76,25.04-9.63,31.04-17.77,5.73-7.78,4.12-11.1,11.44-18.93,5.87-6.28,10.44-7.93,10.21-11.59Z"/><path class="cls-24" d="M330.65,586.3c3.44-3.71-3.65-10.72,0-16.22,3.02-4.55,11.86-5.75,14.3-3.09,2.55,2.79-3.49,8.1-.82,13.91,2.47,5.37,10.26,6.52,10.62,6.57,8.53,1.15,15.27-5.45,18.38-8.5,2.23-2.19,14.27-13.97,9.8-24.72-4.27-10.28-20.31-11.57-25.32-11.97-19.47-1.56-33.02,10.53-35.94,13.13-5.82,5.19-7.53,9.37-8.17,11.2-.52,1.5-4.29,12.43,2.45,18.15,4.28,3.64,11.99,4.48,14.7,1.55Z"/><path class="cls-21" d="M313.9,265.26c-3,3.2-.3,7-3.27,11.33-2.53,3.7-6.53,3.89-6.26,5.41.29,1.67,5.36,2.83,9.53,1.8,3.72-.91,5.88-3.35,6.53-4.12,2.66-3.1.83-5.4,3-7.47,2.97-2.84,8.89-1.55,10.07-1.29,4.66,1.02,4.78,3.1,9.8,4.64,1.57.48,8.34,2.55,11.44-.51,1.87-1.86,1.83-5.04,1.09-7.21-2.08-6.08-11.13-8.58-16.61-9.01-.97-.08-1.07-.03-18.79,3.86-3.61.79-5.19,1.14-6.53,2.58Z"/><path class="cls-37" d="M375.71,276.59c1.56,1.95-5.89,11.8-16.34,16.74-.94.45-4.9,2.26-10.48,3.22-2.29.39-6.34.89-11.3.39-3.2-.33-7.53-1.15-7.49-1.8.03-.42,1.89-.61,8.03-1.16,11.94-1.07,13.95-1.18,16.88-2.58,1.78-.85,5.21-2.53,6.81-6.05.35-.78,1.2-2.65.95-5.02-.3-2.89-2-4.23-1.23-5.67.71-1.32,2.87-1.52,3.13-1.54,2.95-.24,3.85,2.31,8.17,3.09,2.01.36,2.5-.07,2.86.39Z"/><path class="cls-12" d="M288.37,364.27c-7.96-4.83-12.34-10.22-18.17-11.97-3.32-1-9.34-2.81-15.52-.19-4.86,2.06-7.05,5.68-10.62,11.59-3.02,4.99-5.37,8.88-4.08,12.94.76,2.42,2.01,2.33,4.08,6.95,1.2,2.67,2.14,4.83,1.84,7.53-.33,2.92-1.85,4.2-1.23,4.83.96.96,4.63-2,11.44-3.28,2.83-.53,4.42-.81,5.92,0,3.06,1.65,4.3,7.01,2.25,9.85-1.37,1.9-6.09,1.97-15.52,2.12-4.2.07-6.39-.09-8.78-1.16-3.46-1.54-4.69-3.8-5.31-3.48-1.21.64.56,10.92,7.56,17,9.9,8.6,29.6,8.18,38.6-1.35,7.5-7.95,7.07-21.73,3.68-30.51-2.75-7.13-8.53-13.76-5.51-18.54,1.5-2.38,11.23-1.21,9.39-2.32Z"/><path class="cls-31" d="M202.54,380.65c.86-.75,6.15,2.05,9.39,6.57,2.31,3.22,1.55,4.49,4.08,7.34.82.92,3.12,3.51,6.74,4.54,4.73,1.35,6.29-1.51,12.56-1.16,5.44.3,5.16,2.51,10.52,2.7,6.16.23,9.65-2.57,11.74-.68,1.43,1.29.98,3.66.92,3.96-.26,1.26-1.36,4.15-9.6,7.15-4.58,1.66-11.57,3.46-25.32,3.09-11.04-.29-16.6-.5-18.58-3.57-2.32-3.59,2.01-6.3.82-15.93-.65-5.22-.97-7.84-2.35-11.01-.68-1.58-1.32-2.64-.92-2.99Z"/><path class="cls-5" d="M42.93,388.12c-3.99,5.82-7.8,10.44-10.89,13.91-3.89,4.36-5.98,6.13-5.45,8.24.89,3.53,8.64,6.13,14.7,4.12,5.89-1.95,9.23-7.93,9.26-13.39.04-8.01-7.08-12.54-7.62-12.88Z"/><path class="cls-18" d="M72.92,234.36c-1.37,2.12-4.63,1.48-8.71,2.44-5.81,1.36-9.16,5.02-15.51,11.98-9.6,10.49-8.53,14.3-13.48,15.83-1.12.34-2.24.45-3.42.37-2.9-.24-6.2-1.72-10.79-4.19-1.51-.81-3.15-1.73-4.97-2.75-5.52-3.08-10.4-5.79-14.39-9.37v-28.64c2.26-.77,4.31-1.84,5.4-4.09,1.73-3.59-.94-6,1.09-8.37,2.33-2.75,8.87-3.02,13.16-.79,1.03.54,1.96,1.23,2.64,2.07,1.3,1.6,1.48,3.37,1.41,5.12-.12,2.81-.94,5.58,1.03,7.5,2.46,2.39,6.47.89,14.45,0,8.18-.89,23.49-2.59,29.85,4.28.02,0,.02.02.02.02.02.03.04.05.07.08.27.3.52.62.77.96,1.75,2.41,2.65,5.63,1.41,7.55Z"/><path class="cls-25" d="M72.21,539.14c-.61.51-1.19.98-1.75,1.4-.45.34-.85.64-1.26.93-5.22,3.69-10.08,5.09-19.59,7.73-16.81,4.65-28.29,7.83-41.66,3.86-1.16-.34-3.46-1.03-6.31-2.34v-56.79c6.75.79,12.47,2.96,14.46,6.59,1.34,2.41.12,3.82,1.64,5.41,3.65,3.82,12.81-1.99,25.04-4.8,4.13-.96,8.6-1.57,13.34-1.36.37.02.75.03,1.14.08,10.01.66,24.4,5,27.47,14.59,2.9,9.13-5.72,19.09-12.52,24.71Z"/><path class="cls-25" d="M90.17,276.09c7.23-3.45,17.09-5.55,18.79-5.92,11.46-2.53,10.1-5.46,17.97-6.18,1.6-.15,15.27-1.23,20.15,6.18,3.67,5.57.78,13.54,0,15.71-2.33,6.45-6.47,9.21-5.45,14.42.16.79.73,3.73,2.72,4.38,3.08,1.01,5.52-4.79,11.16-6.95,8.35-3.21,21.72,2.3,24.51,10.04,2.09,5.82-2.93,9.78,0,13.65,3.19,4.21,9.86.44,15.79,5.67,2.52,2.21,5.59,6.64,5.17,11.33-.21,2.34-1.12,3-.54,4.12,1.62,3.15,9.57-.53,16.61,3.09,4.25,2.18,7.67,6.77,7.9,11.59.23,5.01-3.07,8.58-6.81,12.62-3,3.25-5.03,5.44-7.35,5.15-2.78-.35-2.94-3.63-7.45-12.55-6.05-11.97-8.2-12.52-9.36-12.97-2.51-.98-4.29-.38-15.59,2.86-8.07,2.32-10.07,2.31-11.98,1.8-3.59-.95-7.88-3.91-8.17-7.47-.33-4.16,5.06-5.93,4.36-9.79-.44-2.42-3.09-4.57-5.72-5.15-6.35-1.41-9.94,6.93-15.79,6.18-7.24-.93-9.9-14.76-12.8-14.16-2.77.57-.8,13.29-4.63,14.42-3.29.97-6.34-7.93-13.07-8.24-5.5-.26-6.79,5.53-13.34,6.18-6.26.62-14.01-3.77-15.52-9.27-1.79-6.55,6.39-10.6,4.08-16.74-1.55-4.13-6.8-6.36-10.62-7.98-6.28-2.67-9-1.44-11.71-3.86-3.78-3.37-5.54-10.31-2.18-14.16,2.38-2.72,6.82-3.32,9.94-2.7,3.88.76,4.34,3.13,9.53,4.64.33.09,6.43,1.82,7.62,0,1.01-1.54-2.48-4.07-1.5-6.95.55-1.61,2.2-2.45,3.27-2.96Z"/><path class="cls-5" d="M21,260.79c-.2.32-.43.62-.68.89-2.76,2.98-7.11.52-11.84,5.02-3.88,3.71-3.47,7.14-6.84,10.09v-48.9c.39.1.77.2,1.14.32.27.08.53.17.8.25,14.52,4.95,21.96,25.07,17.42,32.33Z"/><path class="cls-5" d="M78.33,347.82c-4.85,1.6-10.73,2.55-12.66,6.95-1.88,4.29.7,10.58,4.9,13.52,3.7,2.6,8.75-.49,33.9-9.66,3.5-1.28,5.58-2,7.76-1.16,6.89,2.65,2.29,16.06,9.8,21.63,6.44,4.78,19.31,1.94,26.96-4.64,4.46-3.83,2.82-6.53,8.58-17,6.28-11.41,9.85-11.91,9.8-15.84-.15-12.32-35.49-30.71-56.77-20.86-13.78,6.38-13.65,20.91-32.27,27.04Z"/><path class="cls-33" d="M342.71,673.7c-.5,2.82,4.46,6.54,8.99,8.11,9.88,3.44,15.96-3.92,23.69-.39,5.62,2.57,9.32,9.63,7.76,14.29-1.92,5.75-11.16,5.9-11.03,8.88.14,3.15,10.61,8.16,17.56,3.86,3.79-2.34,1.25-6.6,5.31-11.97,3.09-4.09,9.23-8.09,14.29-6.95,4.97,1.11,4.42,6.16,11.84,14.29,2.53,2.78,8.13,8.9,16.75,11.97,9.52,3.39,16.88.97,17.97,3.86,1.25,3.29-7.72,7.97-6.53,10.43,1.6,3.32,19.18-2.41,20.42.39.71,1.61-4.31,5.27-9.8,9.27-7.71,5.62-9.94,5.92-9.8,6.95.56,4.35,40.54-.14,91.08,7.34,10.93,1.62,9.01,1.85,15.93,2.7,32.58,4,79.54.63,88.36-19.57,1.57-3.6,2.69-9.47-.27-12.88-3.54-4.07-11.63-3.11-23.69-1.55-9.98,1.3-13.54,5.63-19.33,3.86-.7-.21-8.17-2.27-8.44-6.95-.19-3.29,4.81-4.43,5.34-7.05,1.99-9.79-61.24-37.59-74.54-22.95-2.27,2.5-3.39,6.57-2.45,10.04.68,2.51,3.18,4.96,19.06,11.33,10.52,4.22,13.51,4.74,14.7,7.73,1.66,4.16-1.41,9.97-5.99,12.88-3.9,2.48-8.41,1.77-15.52.26-13.27-2.82-18.34-5.15-27.77-7.73-15.63-4.27-20.24-2.94-31.04-8.5-10.99-5.66-11.4-9.71-11.44-10.82-.09-3.1,4.32-4.06,7.62-9.79,1.9-3.29,3.47-5.49,2.72-7.73-.83-2.5-4.09-1.96-9.7-4.86-6.35-3.28-6.84-6.19-9.6-6.08-5.06.2-4.65,10.08-10.31,13.81-11.76,7.74-34.27-21.19-71.58-23.18-13.21-.7-29.72,1.89-30.56,6.66Z"/><path class="cls-45" d="M431.73,513.47c-.16,1.63-6.88.43-14.98,5.15-1.82,1.06-7.26,4.24-10.62,10.3-2.64,4.78-1.48,6.81-4.63,11.85-1.57,2.5-4.61,7.37-7.9,7.21-4.62-.22-9.85-10.38-8.44-19.31,1.73-10.95,13.22-18.78,23.69-20.6,11.7-2.04,23.09,3.26,22.87,5.41Z"/><path class="cls-8" d="M422.9,523.47c.95,1.72-1.52,3.38-1.84,7.34-.21,2.65.8,3.12,1.02,5.6.41,4.61-2.78,6.17-5.92,13.33-2.75,6.27-1.01,6.66-3.47,10.24-.52.76-4.46,6.29-11.84,7.73-2.3.45-5.81,1.13-9.19-.77-3.4-1.92-5.3-5.7-5.11-9.08.07-1.27.52-3.84,5.92-8.88,9.32-8.71,16.53-9.03,17.56-14.48.57-3.01-1.37-4.26,0-7.34,1.13-2.55,3.86-4.83,7.15-5.21,1.53-.18,4.79-.14,5.72,1.55Z"/><path class="cls-39" d="M397.03,575.36c1.25-2.7,4.3-1.97,8.58-4.64,5.19-3.23,7.42-8.48,9.94-14.42,3.23-7.61,2.22-10.28,5.17-11.97,3.89-2.23,10.75-.55,13.61,3.35,1.85,2.51,1.32,6.01.27,13-.56,3.71-1.04,6.74-2.86,10.43-1.02,2.06-2.52,5.1-5.72,7.85-4.62,3.97-9.76,4.74-15.93,5.67-4.88.73-7.37,1.07-9.67-.39-3-1.9-4.7-6.09-3.4-8.88Z"/><path class="cls-25" d="M376,584.34c6.18-.44,10.51-1.99,13.34-3.35,2.82-1.35,5.03-2.92,6.53-2.06,1.41.8,1.57,3.37.82,5.15-.88,2.08-3.21,3.5-5.99,3.61l-14.7-3.35Z"/><path class="cls-38" d="M43.41,494.86c4.66-13.9,28.36-17.37,41.66-19.31,7.9-1.16,30.56-4.47,33.9,2.7,3.26,7-15.79,15.67-13.48,27.42,2.18,11.09,20.57,10.77,24.1,23.56,2.31,8.4-2.85,18.58-10.21,23.18-13.23,8.27-32.22-2.32-43.29-8.5-5.81-3.24-25.16-14.38-31.45-35.15-1.58-5.22-2.79-9.22-1.22-13.91Z"/><path class="cls-41" d="M267.09,692.62c-2.93,4.27-.06,10.66,1.22,13.52.53,1.18,4.76,10.24,14.3,13.13,10.86,3.3,18.51-4.48,23.69-.39,3.72,2.94.41,7.48,3.68,14.29,3.77,7.87,14.43,14.86,23.28,13.52,11.5-1.75,12.18-16.37,24.1-17.77,8.7-1.02,14.61,6.04,18.38,3.09,3.41-2.67,1.1-10.42.41-12.75-1.27-4.27-3.34-6.97-6.94-11.59-5.09-6.52-7.64-9.78-11.84-11.2-4.84-1.64-6.78.5-13.89,0-7-.5-10.09-2.93-15.93-5.02-3.67-1.32-6.01-1.63-30.22-1.93-23.95-.3-28.06-.07-30.22,3.09Z"/><path class="cls-41" d="M473.34,767.3h-147.91c-1.09-2.74-1.38-5.83,1.13-8.24,3.29-3.16,9.55-3.39,45.96-3.09,36.83.3,40.38.61,45.97,1.93,8.88,2.09,13.57,4.52,24.22,5.02,10.81.5,13.75-1.64,21.12,0,3.59.8,6.38,2.17,9.51,4.38Z"/><path class="cls-22" d="M15.5,629.92c-.04,3.38,6.02,2.93,12.53,10.56,6.87,8.06,4.8,14.05,11.16,17.51,5.86,3.19,12.58.8,13.34.52,10.2-3.8,12.94-16.6,11.16-17.77-1.28-.84-5.73,3.79-6.53,3.09-1.2-1.04,9.66-10.19,7.35-16.74-1.56-4.42-8.49-5.9-12.25-6.7-16.93-3.6-36.69,3.44-36.76,9.53Z"/><path class="cls-7" d="M116.65,651.29c0,4.47-8.9,5.93-22.87,13.52-5.82,3.16-17.92,10.32-27.77,22.4-4.82,5.91-8.34,10.35-6.94,14.68.44,1.37,2.26,5.47,22.05,10.04,18.02,4.17,29.81,4.25,29.81,4.25,13.46.23,25.61.43,37.61-.68,19.15-1.78,32.83-7.18,36.72-8.59,23.82-8.66,46.98-23.91,44.93-28.58-1.86-4.23-21.39,7-46.56-.39-6.27-1.84-27.85-8.17-37.17-25.11-3.1-5.63-5.23-13.15-13.48-20.86-4.76-4.45-8.83-6.42-11.03-7.34-7.85-3.29-14.84-2.86-16.75-2.7-9.6.81-21.14,5.4-20.83,9.27.26,3.32,9.06,3.38,23.28,11.97,8.78,5.3,8.99,7.43,8.99,8.11Z"/><path class="cls-1" d="M150.14,632.37c-1.04,3.89.3,7.67,4.49,14.29,4.61,7.29,8.23,11,15.93,19.7,10.4,11.74,12.37,14.65,17.97,16.61,4.33,1.52,11.75,2.8,14.3-.39,2.71-3.39-1.39-10.28-2.86-12.75-3.21-5.38-5.6-5.46-9.8-11.2-3.45-4.7-2.35-5.35-6.53-12.75-3.24-5.73-5.91-10.45-11.03-14.68-3.15-2.6-10.22-8.44-16.34-6.18-4.54,1.67-6,6.86-6.13,7.34Z"/><path class="cls-34" d="M18.22,393.14c-.93,3.03-9.48,5.14-16.58,3.32v-16.79c8.75,4.92,17.63,9.99,16.58,13.48Z"/><path class="cls-14" d="M225.43,738.89c-3.68,4.3-14.48,9.56-24.11,13.71h0c-5.08,2.2-9.84,4.09-13.05,5.36-9.05,3.59-18.01,7.08-26.67,9.34h-31.77c-.95-.36-1.89-.77-2.82-1.23-.39-.19-.75-.38-1.09-.56h-.01c-3.78-2.04-4.95-3.78-6.47-5.58-1.32-1.56-2.91-3.17-6.71-5.05-.01,0-.01,0-.02,0-6.07-3.02-11.96-3.87-17.62-3.79h-.01c-10.46.15-20.16,3.47-28.91,2.17-3.27-.48-6.41-1.61-9.41-3.79-1.68-1.22-3.33-2.78-4.69-4.52-2.4-3.05-3.9-6.63-3.07-9.77.6-2.29,2.4-4.16,4.93-5.67.01-.01.02-.01.03-.01,2.17-1.31,4.87-2.34,7.82-3.18,1.7-.48,3.46-.89,5.25-1.25h.01c8.18-1.62,16.85-2.05,20.76-2.25,18.27-.92,29.33,1.73,43.16,4.74h.02c4.62,1,9.56,2.05,15.18,3.02.68.12,1.38.23,2.09.35,2.44.4,4.83.75,7.18,1.06h.01c42.92,5.74,69.67-2.23,71.22,3.58.27,1.01-.2,2.13-1.22,3.33Z"/><path class="cls-27" d="M276.48,746.37c.25.93-1.6,2.32-4.83,3.99-9.88,5.09-32.7,12.65-47.23,16.94H27.9c14.87-2.17,25.45-4.46,56.62-8.95,6.86-.98,11.95-1.69,15.8-2.19h.02c7.99-1.03,10.56-1.2,12.36-1.28h.02c11.1-.58,18.72-.02,25.65.79,1.94.22,3.81.45,5.7.71h.01c5.95.74,12.01,1.48,20.08,1.58,13.8.17,15.55-1.74,37.15-5.36h.04c1.14-.2,2.35-.4,3.63-.59,2.71-.45,5.7-.91,9.01-1.38,9.52-1.38,61.3-8.84,62.49-4.26Z"/><path class="cls-29" d="M319.36,412.97c2.02,2.43,9.01-1.53,21.44-2.9,3.81-.42,6.21-.68,9.6-.39,7.7.67,9.02,3.23,15.93,3.09,3.49-.07,5.07-.76,7.15.39,2.96,1.63,2.03,4.27,4.29,6.37,4.03,3.74,10.78-1.15,22.05.97,4.62.87,10.31,2.96,10.21,4.83-.18,3.19-17.24,4.2-17.15,6.37.07,1.61,9.5,1.84,9.6,3.48.09,1.49-7.53,3.04-16.75,4.83-18.05,3.5-27.12,5.24-29.2,4.63-13.75-4.02-13.79-20.45-24.91-20.86-5.38-.2-10.11,3.47-15.11,7.34-3.6,2.79-7.73,5.98-7.96,10.43-.27,5.07,4.73,8.19,4.08,8.88-1.22,1.33-22.95-6.17-23.48-19.7-.61-15.43,26.93-24.34,29.81-21.44.83.84-.64,2.41.41,3.67Z"/><path class="cls-19" d="M22.05,135.7s4.9-19.06,14.7-17c9.8,2.06,8.71,11.85,15.79,11.33,7.08-.51,15.79-3.61,20.15,1.55,2.4,2.83,6.27,2.86,9.28,2.31,3.34-.61,6.79.03,9.5,1.97,4.13,2.94,9.24,7.52,9.27,12.16.02,2.87,1.83,5.48,4.75,6.3,2.14.6,4.87.83,8.18.05,8.99-2.12,13.48,13.52,13.48,13.52,0,0,4.29,18.15,19.2,12.94,14.91-5.21,7.96-27.04,7.96-27.04,0,0-7.56-16.22-13.48-15.64-5.92.58-7.35,8.5-12.66,3.28-5.31-5.21,7.56-6.57-.61-12.55-8.17-5.99-6.53-8.11-6.53-8.11,0,0-.61-6.37,6.74-12.94,5.87-5.24,15.12-9.87,18.61-11.52.8-.38,1.64-.67,2.52-.87,3.06-.67,10.71-2.89.31-6.54-5.76-2.02-9.11-5.52-11.06-8.74-2.66-4.41-1.59-10.09,2.5-13.37,2.24-1.8,5.14-3.2,8.55-2.8,5.93.68,13.19,7.47,16.93,11.37,2.29,2.39,5.53,3.79,8.94,3.81,2.92.01,6.74-.49,11.3-2.24,8.74-3.37,8.69-10.68,8.3-13.57-.16-1.13-.12-2.29.25-3.38.95-2.78,3.71-6.71,11.57-1.98,7.64,4.6,12.35,1.78,14.58-.49,1.62-1.65,3.71-2.82,6.03-3.37,6.12-1.44,16.38-2.24,16.48,8.56.02,2.11-.8,4.11-1.93,5.92-.79,1.26-1.14,3.38,1.39,6.48,4.49,5.5,3.27,29.94-6.54,34.57-9.8,4.64,5.28,9.4,10.86,9.79.06,0,.11,0,.17.01,4.52.36,8.09,3.75,8.8,7.98,1.06,6.33,2.06,17.8-2.98,24.45-7.22,9.53.82,9.14.82,9.14,0,0,4.21.51,5.9-2.74,2.17-4.17,5.51-7.73,10.06-9.49,8.7-3.36,8.91,1.03,15.9-.26,7.4-1.37,7.76-6.4,13.07-6.57,6.23-.2,6.95,6.69,17.02,10.82,7.84,3.21,11.08.54,15.38,4.38,3.68,3.27,5.66,9.1,4.36,13.91-1.29,4.75-4.89,5.14-6.26,10.56-.34,1.33-1.67,6.56.95,9.66,4.22,4.99,13.46-1.65,27.91,2.06,4.12,1.06,8.42,3.49,17.02,8.37,10.04,5.69,11.11,7.71,11.03,9.27-.14,2.72-3.74,3.46-7.49,9.91-1.37,2.35-2.05,3.56-1.77,4.76.94,4.07,9.54,2.57,14.02,6.95,7.43,7.27-1.41,25.92-7.35,34.76-3.32,4.95-7.65,11.4-13.34,11.33-4.24-.05-6.12-3.68-13.61-4.51-3.61-.4-6.63.06-7.9.26-7.3,1.15-8.29,3.92-11.44,3.35-5.89-1.08-5.36-11.37-11.03-12.49-4.53-.9-6.98,5.26-13.61,4.76-4.13-.31-5.08-2.84-8.1-2.74-6.2.21-5.68,13.49-11.84,14.58-3.24.57-9.45-1.8-12.46-5.41-.47-.56-1.11-1.45-2.14-1.54-2.26-.21-4.3,3.56-5.51,5.6-2.27,3.83-7.72,13.01-13.78,14.87-6.52,2.01-16.74-3.52-19.6-11.68-.45-1.29-2.9-8.86,2.25-13.91,2.61-2.56,5.47-2.45,9.7-3.57,10.57-2.82,21.64-11.41,20.73-17.29-.81-5.2-10.92-7.71-16.44-9.08-5.42-1.35-16.51-4.1-21.24.87-4.61,4.85.83,12.89-3.47,15.84-2.89,1.98-7.87.08-16.13-3.09-7.35-2.82-8.43-4.34-12.46-5.6-10.2-3.18-16.8,5.01-22.05,2.03-4.28-2.43-4.75-9.38-4.08-13.33,1.49-8.88,14.54-8.9,14.98-15.16.3-4.37-5.14-9.56-10.62-10.43-7.97-1.27-11.57,7.32-20.01,6.18-6.22-.84-6.74-5.83-12.25-6.57-7.3-.97-11.49,7.1-21.65,15.06-12.02,9.42-32.77,18.97-44.31,12.75-7.32-3.95-6.15-11.65-12.66-12.94-7.7-1.53-11.21,8.9-23.69,11.01-8.69,1.47-20.13-1.36-23.28-8.3-2.57-5.66.87-13,4.9-17.38,9.28-10.1,21-7.8,27.77-14.68,7.9-8.01,6.4-13.7,6.53-14.45,4.36-24.46-17.51-8.64-20.01-7.37-13.48,6.86-17.87,2.48-26.14-1.16-5.12-2.26-9.91-7.36-10.82-13.71-.87-6.1,2.36-10.98,3.27-12.36,2.65-3.99,6.11-6.16,7.96-7.15,0,0,5.63-3.69,5.75-4.28Z"/><path class="cls-19" d="M86.05,370.14c2.15-2.92,9.81-1.48,14.98-.51,4.06.76,4.37,1.32,6.81,1.29.74-.01,7.72-.27,11.16-4.89,2.29-3.08.57-4.81,3.27-9.01.67-1.05,2.29-3.49,5.45-5.15,1.26-.66,5.73-2.76,10.07-1.03,1.74.69,4.31,2.33,4.08,3.86-.21,1.43-2.67,1.53-5.99,3.35-2.67,1.46-4.41,3.46-7.9,7.47-4.16,4.78-6.22,7.21-5.45,9.27.56,1.49,2.44,2.61,4.08,2.83,2.26.3,3.23-1.23,5.45-.77,1.41.29,3.08,1.32,3.27,2.57.34,2.25-4.11,5.29-8.44,5.67-2.85.25-6.6-.58-8.71-3.09-2.17-2.58-.74-4.74-2.99-6.7-1.79-1.55-4.25-1.55-7.35-1.55-1.32,0-4.41.11-8.99,1.55-6.4,2.01-7.63,4.1-9.8,3.35-2.91-1.01-4.72-6.16-2.99-8.5Z"/><path class="cls-19" d="M153.41,394.32c3.02-.8,4.92-3.73,7.15-7.15,1.41-2.16,1.27-2.52,2.04-2.9,2.53-1.23,4.95,2.2,9.39,1.93,2.18-.13,4.83-1.16,6.33-3.09,2.51-3.22-.18-6.4,2.25-9.08,1.83-2.02,5.23-2.27,7.35-1.93,2.88.47,3.39,2.04,8.37,5.21,4.56,2.91,4.88,2.07,6.94,3.86,4.67,4.06,5.21,10.25,5.31,11.39.39,4.45-1.22,4.97-1.43,12.17-.2,6.81,1.18,8.26,1.63,8.69,2.2,2.08,6.5,2.53,9.39.97,4-2.16,2.36-6.54,6.94-10.62.75-.67,4.57-4.07,8.58-3.48,6.89,1.01,8.22,12.88,12.87,12.75,3.94-.12,5.04-8.71,9.39-8.69,2.71.01,3.8,3.35,10.21,5.6,2.51.88,3.17.66,3.47.39,1-.93-.91-3.66-2.65-7.92-2.15-5.26-3.69-9.03-2.45-11.97,2.24-5.33,12.19-4.71,12.25-7.15.06-2.4-9.56-4.56-15.93-5.99-9.1-2.04-13.91-.03-15.52-2.7-1.41-2.34.42-6.3,2.86-8.5,2.87-2.59,5.39-1.67,15.52-3.28,7.97-1.27,9.05-2.26,12.87-1.74,4.78.66,6.35,4.89,10.01,4.25,1.83-.32,2.17-1.34,4.49-2.51,3.33-1.67,7.36-1.88,9.6-1.35,7.35,1.74,12.79,16.1,9.19,27.23-2.29,7.1-7.4,10.21-5.72,13.13,2.12,3.69,11.13.22,15.32,5.21,2.77,3.3.28,6.57,3.27,9.27,3.15,2.85,8.77,1.82,13.07,1.03,8.3-1.52,8.82-5.61,13.89-5.79,6.89-.25,7,6.69,16.54,9.85,8.31,2.75,12.57-1.07,24.91,2.7,4.14,1.27,6.48,2.56,6.33,3.28-.26,1.26-7.71-.86-14.7,2.9-4.02,2.16-3.13,3.71-7.15,5.99-4.97,2.82-10.13,2.61-17.36,2.32-6.08-.25-9.13-.37-11.84-1.93-4.5-2.59-4.52-5.93-9.6-8.5-2.62-1.33-3.28-.77-8.17-1.93-11.01-2.61-13.09-6.69-17.36-5.41-4.81,1.45-6.46,7.94-6.94,9.85-1.08,4.26-1.02,11.08,3.27,14.68,3.02,2.53,6.08,1.75,6.74,3.67.87,2.55-3.34,7.42-8.58,9.08-9.06,2.86-14.09-6.16-23.69-4.25-9.3,1.85-14.35,12.27-15.11,13.91-4.51,9.72.24,15.86-3.88,20.34-6.42,6.99-23.86,5.97-27.36-.19-1.12-1.97.33-7,3.27-17,2.25-7.66,3.31-9.94,2.04-12.94-1.55-3.69-5.87-6.71-10.21-6.95-4.87-.28-5.87,3.18-13.07,5.02-2.47.63-10.26,2.63-14.29-.77-4.75-4,.06-11.79-4.29-14.87-3.04-2.15-8.47-.54-16.75,1.93-6.8,2.03-8.83,3.69-11.44,2.51-3.34-1.51-2.46-5.37-6.33-8.69-2.92-2.51-7.14-3.51-10.21-3.28-13.95,1.02-25.57,28.81-24.51,37.08.05.41.27,1.85-.61,2.9-1.9,2.25-7.8,1.39-11.64-.97-1.43-.88-3.94-2.42-4.49-5.02-.55-2.59,1.37-3.76.61-6.57-.63-2.31-2.52-3.66-3.06-4.06-2.66-1.9-5.72-1.8-6.94-1.74-7.72.37-9.27,6.77-15.52,6.57-3.26-.1-6.83-1.97-7.96-4.83-1.43-3.6,1.45-7.57,3.68-9.46,5.24-4.46,13.11-2.78,14.29-2.51,5.6,1.28,6.42,4.14,11.64,5.21,5.31,1.09,9.94-.7,11.84-1.55,6.89-3.04,10.08-9.18,11.44-11.78,3.72-7.16,2.67-12.22,6.74-14.1,2.29-1.06,4.65-.42,5.72-.19,14.71,3.18,30.5-7.41,31.86-8.3,5.78-3.8,14.09-11.56,12.05-16.22-1.66-3.78-9.66-4.48-13.89-4.25-5.5.3-12.76,2.64-18.38,4.44-2.41.77-5.65,1.88-6.94.58-.69-.7-.8-2.06-.2-2.85.65-.86,1.75-.55,3.27-.95Z"/><path class="cls-19" d="M309.68,477.83c-1.3.2-17.52,2.92-19.6,11.33-1.45,5.84,5.29,8.5,4.36,16.74-.06.5-1.18,8.56-7.08,11.33-4.65,2.19-8.7-.6-11.98,2.32-2.59,2.3-2.21,5.93-2.18,6.18.4,3.27,3.18,6.31,6.26,6.95,4.56.96,9.34-3.4,16.34-9.79,6.31-5.75,8.07-8.87,11.71-8.76,4,.13,6.69,4.06,7.08,4.63,3.19,4.67.59,10.87-2.72,19.31-2,5.1-4.21,5.7-3.81,8.24.55,3.57,4.23,4.65,4.08,7.73-.11,2.32-2.34,4.82-4.9,5.67-5.29,1.75-9.01-4.53-20.42-7.47-4.5-1.16-9.21-2.37-12.25,0-4.27,3.33-3.58,12.39.54,14.94,1.92,1.18,3.52.29,9.53-.51,0,0,8.35-1.12,18.51-.52,10.6.63,10.5,2.84,14.43,1.55,5.88-1.93,6.08-6.83,14.16-10.56,2.3-1.06,4.2-1.49,7.9-2.32,6.26-1.39,13.25-3.06,21.24-2.32,2.51.23,17.49,1.62,19.06,7.98,1.09,4.42-4.6,9.97-6.26,11.59-4.13,4.03-8.63,5.68-8.17,7.98.26,1.3,1.95,1.97,2.18,2.06,2.84,1.09,6.08-1.2,11.71-4.89,9.72-6.38,10.28-5.43,11.71-7.47,2.82-4.03.56-5.75,3.27-12.88,2.63-6.91,5.57-7.45,5.17-11.07-.53-4.82-5.87-5.1-7.9-10.82-2.32-6.53,2.19-13.15,2.72-13.91,5.9-8.39,17.61-8.7,19.6-8.76,13.06-.34,14.44,8.17,29.13,11.59,16.81,3.91,21.8-5.65,40.57-1.55,13.24,2.9,11.89,7.9,22.87,9.27,18.13,2.26,21.4-11.43,42.2-11.07,12.15.21,21.06,5.05,28.59-.51,1.96-1.45,4.18-3.86,3.54-5.15-1-2.03-8.28.45-22.33,1.55-11.26.87-18.06.17-19.6,0-7.31-.8-9.01-3.67-14.16-2.83-5.79.95-9.09,4.65-11.71,3.09-1.31-.78-2.24-2.76-1.63-4.12,1.33-2.99,8.98-.69,20.69-3.61,3.03-.75,8.76-2.18,8.71-3.86-.05-1.86-7.19-4.42-14.16-3.61-7.54.88-9.07,5.03-16.06,4.89-.92-.02-8.14-.23-9.8-4.12-1.32-3.09,1.4-7.27,4.36-9.53,6.97-5.33,17.08-1.37,17.97-3.86.61-1.72-3.62-5.21-8.17-6.69-8-2.61-15.85,1.34-19.33,3.09-6.22,3.13-5.39,4.8-10.07,7.21-14.07,7.24-32.94-1.97-35.67-3.35-3.9-1.97-8.58-4.06-12.25-8.75-2.59-3.31-2.38-4.86-5.17-8.76-1.79-2.49-5.61-7.81-11.44-10.04-8.75-3.35-19.6,1.22-25.59,6.7-4.77,4.36-3.94,6.99-10.07,14.68-5.08,6.36-8.36,9.35-11.98,11.59-3.9,2.41-7.1,4.4-10.89,3.86-4.93-.69-5.8-4.95-11.71-9.79-5.45-4.46-10.9-5.92-19.6-8.24-8.23-2.2-14.03-3.75-21.51-2.58Z"/><path class="cls-19" d="M154.75,575.3c1.89-3.2,16.8-2.3,23.96,5.67,5.14,5.72,1.98,10.27,7.08,13.91,4.85,3.46,9.13.35,19.6,4.12,4.03,1.45,9.06,3.95,8.71,5.67-.45,2.24-9.53.69-11.98,5.15-1.09,1.98-.55,4.57.54,6.18,1.52,2.24,3.87,2.19,7.08,3.61,6.68,2.95,5.98,7.34,10.35,8.76,5.81,1.88,8.95-5.26,17.97-6.18,7.11-.73,16.05,2.59,20.69,9.79,5.08,7.87-4.63,17.39,0,21.63,2.04,1.86,5.7,1.95,8.17,1.03,6.24-2.32,4.17-10.79,9.8-13.91,6.17-3.41,16.68,2.31,21.78,6.18,7.52,5.7,6.09,9.48,14.16,15.45,3.23,2.39,11.76,8.7,17.97,6.18,5.79-2.35,5.39-10.7,11.44-11.85,2.95-.56,3.5,1.35,6.54,1.03,7.79-.82,9.27-13.96,15.79-14.42,4.64-.33,7.08,6.1,9.8,5.15,3.01-1.05,4.47-10.5,0-15.97-6.96-8.51-25.1-3.5-25.59-6.18-.35-1.89,8.32-6.44,17.43-5.67,7.29.62,13.85,4.58,17.43,9.79.33.48.25.42,3.81,10.3,3.65,10.13,4.45,12.19,4.9,15.97.67,5.51-.48,5.73.54,7.73,3.38,6.6,17.71,7.83,28.32,6.18,12-1.86,14.49-6.67,21.78-4.63,4.91,1.37,8.53,4.87,13.07,9.27,4.18,4.04,6.27,6.06,5.99,8.24-.73,5.74-14.71,5.54-16.34,12.36-.85,3.57,2.13,7.13,4.36,9.79,5.75,6.87,13.38,8.27,13.07,9.27-.37,1.21-11.18-1.99-25.05-3.09-17.14-1.36-22.76,1.78-28.86-2.57-6.13-4.37-2.05-9.56-7.62-17.51-6.03-8.61-16.19-10.89-36.49-15.45-15.15-3.4-19.24-2-21.78-.51-4.95,2.9-9.19,9.17-8.17,14.94,1.55,8.75,14.18,10.64,13.61,17-.31,3.56-4.6,6.57-8.17,7.21-8.52,1.53-10.72-18.08-21.78-19.57-6.86-.92-8.75,5.74-16.88,5.15-9.92-.72-12.58-11.03-20.15-10.3-5.41.52-5.65,5.93-13.07,11.33-11.88,8.65-27.41,6.53-29.95,6.18-1.83-.25-23.71-3.47-27.23-15.45-2.54-8.65,6.95-13.47,3.81-22.15-3.18-8.8-15.33-10.41-14.7-15.97.49-4.33,8.01-4.6,8.71-9.27.76-5.02-8.42-6.76-16.47-7.6-9.94-1.03-14.02-.52-16.2-5.28-.51-1.11,16.95-4.64,17.43-10.82.45-5.73-13.8-11.49-14.7-11.85-9.41-3.72-14.77-1.93-16.88-5.67-2.49-4.4,3.91-8.69,1.09-14.42-1.52-3.09-4.17-3.45-7.08-8.76-1.46-2.67-2.25-4.11-1.63-5.15Z"/><path class="cls-19" d="M469.24,687.44c2.61-4.1,10.4-1.69,12.25-5.41,1.09-2.19-1.25-3.76-1.36-7.73-.18-6.11,5.13-10.82,5.72-11.33,4.62-3.99,8.65-2.48,23.96-5.15,15.24-2.66,16.24-5.03,16.34-5.92.25-2.19-4.01-3-4.63-6.44-.69-3.87,3.68-8.44,7.9-10.3,7.97-3.52,19.2.94,25.05,7.98,7.8,9.4,6.61,24.08-.27,29.87-4.31,3.62-10.47,3.46-10.62,5.92-.15,2.6,6.58,4.89,7.35,5.15,12.06,4.01,18.11-3.29,26.41.52,6.16,2.83,10.74,10.49,9.53,15.97-.54,2.45-2,3.36-1.63,5.15,1.05,5.05,15.17,4.53,15.25,6.44.06,1.51-8.44,4.21-17.97,3.99-12.23-.28-13.88-7.1-30.77-11.07-6.92-1.63-8.35-1-13.61-3.09-7.3-2.9-8-5.48-16.34-10.3-5.64-3.26-12.05-6.87-20.69-7.47-2.35-.16-13.38-.92-16.61,4.38-1.88,3.08.34,5.81-1.91,7.98-2.48,2.4-8.75,2.52-11.98-1.03-1.92-2.11-2.91-5.69-1.36-8.11Z"/><path class="cls-19" d="M413.35,566.28c1.66-4.77,6.35-4.52,7.76-8.5,1.41-3.99-2.48-6.54-.61-9.46,1.41-2.2,5-2.92,7.76-2.32,3.8.83,6.45,4.26,6.33,7.15-.12,2.76-2.68,2.98-5.72,7.73-3.01,4.71-1.79,6.53-4.49,8.88-3.23,2.81-8.93,3.63-10.82,1.55-1.41-1.55-.43-4.39-.2-5.02Z"/><path class="cls-19" d="M372.71,595.06c17.26-1.09,16.9-.52,23.89-1.54,15.02-2.2,18.23-5.08,41.25-10.62,14.72-3.54,22.23-5.37,29.2-5.02,12.1.61,15.16,4.24,24.1,1.93,6.65-1.72,8.36-4.61,21.03-9.08,5.52-1.95,8.28-2.92,10.41-3.09,11.53-.91,14.43,7.79,28.79,10.24,8.46,1.44,16.75,0,18.79-.39,7.4-1.39,12.76-4,20.22-2.12,2.52.64,5.85,1.93,5.72,2.9-.12.9-3.14,1.29-14.91,1.93-15.95.87-18.86.61-22.87,2.9-5.42,3.09-3.79,5.67-8.78,8.69-5.25,3.18-9.78,1.98-28.39.39-16.41-1.41-20.39-1.13-24.71.39-10.98,3.85-12.66,8.3-12.66,8.3-.75.96-1.85,2.58-3.88,3.09-2.42.61-5.47-.53-7.15-2.51-2.5-2.96-.38-5.94-2.04-8.3-2.9-4.12-14-1.62-16.13-1.16-31.15,6.78-66.53-3.25-84.54,5.6-.74.37-3.34,1.69-7.07,3.1-2.82,1.07-9.11,3.46-16.41,4.24-11.82,1.26-24.78-1.85-24.71-3.86.1-2.77,25.02-4.35,50.85-5.99Z"/><path class="cls-19" d="M466.79,555.53c-3.05.48-3.28,3.3-8.37,8.5-4.32,4.4-6.65,4.93-6.33,6.18.63,2.44,10.25,3.45,17.97.19,1.1-.47,8.22-3.47,7.96-7.34-.14-2.03-2.25-3.53-4.08-4.83-1.85-1.31-4.42-3.14-7.15-2.7Z"/><path class="cls-19" d="M610.96,561.71c-1.08,2.99,3.41,8.2,8.78,10.24,6.62,2.52,14.17-.35,29-6.18,6.73-2.65,5.8-2.72,9.19-3.86,12.89-4.35,17.56-.35,31.45-1.93,14.34-1.63,24.85-7.65,38.8-15.64,2.65-1.52,4.25-2.55,4.08-2.9-.57-1.2-21.1,7.58-40.84,12.94-29.63,8.04-44.28,12.56-55.14,7.34-1.52-.73-7.94-4.03-16.13-3.48-1.84.12-8.13.55-9.19,3.48Z"/><path class="cls-19" d="M97.93,496.14c.2-.7,9.65-.73,19.6,3.86,9.34,4.31,11.03,8.95,15.79,8.24,5.38-.81,4.87-6.98,12.53-11.07,7.04-3.76,14.74-2.41,18.24-1.8,2.92.51,14.88,2.6,16.88,9.27,1.38,4.62-2.99,8.18-1.09,10.82,2.16,2.99,10.8-1.48,12.25.77.79,1.23-1.56,2.66-2.72,6.7-1.06,3.66.12,5.13.27,11.33.14,5.69.21,8.53-1.09,9.79-4.05,3.9-17.61-1.26-26.41-6.95-7.07-4.57-7.14-6.94-14.16-10.04-4.19-1.85-9.91-3.55-14.43-4.89-6.93-2.06-10-2.58-11.71-5.41-1.23-2.04-.8-3.71-3-6.18-1.12-1.26-1.77-1.43-4.08-3.35-2.41-2-3.57-3.36-4.63-4.38-5.3-5.13-12.43-6.08-12.25-6.7Z"/><path class="cls-19" d="M84.86,627.6c-1.05,6.22-9.17,9.74-14.98,10.31-3.24.32-5.41-.76-7.39-2.24-3.13-2.32-5.77-5.69-11.38-6.27-8.28-.84-9.9,5.02-19.88,5.15-7.45.1-9.05-3.13-15.69-5.07-1.14-.34-2.42-.62-3.92-.86-3.58-.56-6.93-.54-9.97-.25v-45.9c2.87,1.42,6.31,2.86,10.53,4.19,7.57,2.38,12.33,3.86,18.24,2.58,8.67-1.9,9.19-7.51,17.42-9.28,8.75-1.87,20.07,1.89,22.05,7.73,1.48,4.33-3.05,7.23-2.99,17.77.04,4.41.84,5.74,1.37,6.44,2.85,3.71,7.78,1.85,12.25,5.41,2.97,2.38,4.99,6.55,4.35,10.29Z"/><path class="cls-32" d="M149.12,665.33c-7.08.72-8.22,7.92-18.52,19.06-9.2,9.94-16.57,17.91-26.96,18.8-4.17.36-10.76-.26-20.42,2.32-4.74,1.27-5.19,1.96-5.17,2.32.11,1.91,14.07,2.65,17.43,2.83,20.91,1.11,21.72-2.39,29.95.26,8.18,2.63,6.62,5.85,21.78,13.39,6.86,3.41,11.73,5.02,11.44,6.44-.53,2.57-17.15.62-17.43,2.32-.24,1.47,11.79,5.42,25.05,6.7,17.03,1.63,18.89-3.78,37.3-3.61,18.72.18,21.71,5.43,32.13,1.55,5.43-2.02,8.22-4.78,19.6-9.01,8.26-3.07,11.32-3.3,12.8-3.35,5.22-.18,7.24,1.27,18.51,5.15,18.79,6.47,22.46,5.65,24.51,4.89,4.41-1.63,4.67-4.2,9.8-5.15,5.47-1.01,9.07,1.19,11.44-1.03,1.38-1.3,2.14-3.91,1.09-5.41-2.75-3.93-15.31,3.4-20.97-1.55-3.67-3.21-.63-8.28-4.08-10.56-3.84-2.54-8.75,2.99-20.69,4.63-7.62,1.05-13.8-.07-17.7-.77-8.41-1.52-10.15-3.6-17.15-5.67-18.01-5.31-25.18,2.92-34.85-3.09-8.43-5.24-4.09-12.17-12.52-17.51-11.37-7.2-23.59,2.63-32.95-5.15-4.92-4.09-3.33-8.3-10.35-13.65-2.42-1.84-7.5-5.71-13.07-5.15Z"/><path class="cls-2" d="M159.93,752.62c.07.62-4.99.62-13.27,1.72-2.49.34-5.27.76-8.3,1.33-3.29.61-6.88,1.4-10.69,2.43-2.37.62-5.11,1.43-8.25,1.84-2.74.4-5.79.49-9.12-.1-2.44-.42-6.38-1.11-9.97-3.67h-.02c-.41-.29-.82-.61-1.23-.96-2.05-1.77-2.35-2.91-3.99-4.09-.14-.13-.32-.24-.5-.35-3.51-2.17-7.68-1.72-11.44-1.16-7.07,1.06-12.4,2.44-17.05,3.67-2.12.56-4.1,1.08-6.04,1.55-4.15.98-8.62,1.5-17.56,2.51-14.66,1.68-36.07,3.22-40.88,2.11-.61-.15-.94-.34-.98-.56-.04-.19.3-.44.98-.76,1.14-.54,3.28-1.3,6.38-2.41,10.56-3.74,18.74-5.81,20.15-6.17,8.25-2.09,12.95-3.27,19.59-4.13,1.67-.22,3.08-.37,4.29-.47,6.5-.52,7.45.37,13.15-.56,16.78-2.75,19.88-12.23,28.86-10.31,7.12,1.53,5.98,7.68,16.33,12.89,2.71,1.35,6.25,2.66,21.78,4.11,6.7.62,12.29.88,16.65.98,7.18.2,11.08.03,11.11.57Z"/><path class="cls-30" d="M2.56,732.54c.1-.59,9.6,1.78,12.52-2.06,1.77-2.33-.55-4.75,1.09-7.73,2.26-4.11,9.46-4.5,11.98-4.64,6.67-.36,9.77,1.53,20.15,4.64,4.82,1.44,12.98,3.86,22.33,5.15,10.86,1.5,19.06.9,19.06,1.03,0,.19-18.66-3.29-40.84,1.55-11.74,2.56-19.5,6.37-33.22,5.15-7.86-.7-13.14-2.64-13.07-3.09Z"/><path class="cls-33" d="M606.96,513.27c.03.59,6.45,1.61,13.61.51,10.87-1.66,13.76-6.72,24.51-7.73,5.86-.55,11.41.35,11.44,1.03.08,2.04-49.64,4.52-49.56,6.18Z"/><path class="cls-20" d="M319.48,767.3h-33.11c-4.09-1.99-7.98-3.98-7.61-4.17.75-.39,9.6-5.41,9.6-5.41l13.65-4.46s10.12,6.97,17.47,14.04Z"/><path class="cls-3" d="M583.66,730.3s123.79-46.67,90-20c-19,15,25.7,25.71,69.7,24.71s38.3-32.71,71.3-24.71c38.1,9.24,117,31,117,31,0,0-22,5-54,1s-24.3-13.29-83.3-1.29-70.99,14.7-100.7,7.29c-29.7-7.41-74.3,5.71-75.3-10.29s-34.7-7.71-34.7-7.71Z"/></g><g id="cloud-right"><rect class="cls-7" x="1146" y="711" width="220" height="57"/><g id="cloud_right"><path class="cls-43" d="M1298.8,569.2c-2.62,13.43-7.19,18.39-10.77,20.47-2.58,1.5-4.23,1.27-17.29,2.32-12.69,1.02-14.82,1.53-15.66,3.48-2.29,5.34,7.9,14.93,5.87,18.15-1.12,1.77-5.01.15-10.44-1.54-14.37-4.49-16.91-.74-20.88-4.64-5.78-5.68-5.91-17.35-4.24-24.72,1.82-8.05,6.16-12.6,11.09-17.77,4.27-4.47,17.42-18.25,27.41-13.52,4.82,2.28,4.54,6.8,10.11,11.2,6.88,5.42,15.25,4.81,21.21,3.48l3.59,3.09Z"/><path class="cls-42" d="M1365.66,763.33c.24.07.49.15.76.24-.25.1-.51.17-.76.23v3c-.54.2-1.07.39-1.61.58-3.48,1.19-6.92,2.13-10.33,2.86h-40.07c-16.99-3.36-30.51-10.07-37.9-13.83-3.43-1.75-6.55-3.34-9.35-4.82-2.04-1.09-3.93-2.11-5.65-3.1-3.65-2.1-6.6-4.04-8.87-6.03h-.01c-.77-.67-1.45-1.35-2.06-2.04-.67-.74-1.24-1.5-1.72-2.29-.07-.11-.13-.21-.19-.32-.74-1.23-1.26-2.54-1.57-3.95-.07-.29-.12-.58-.17-.88-.48-3.17-.02-6.57,1.21-10.14.52-1.49,1.16-2.99,1.94-4.52.28-.55.58-1.1.9-1.66,0,0,0-.01,0-.01.98-1.78,2.15-3.58,3.46-5.4,2.12-2.92,4.61-5.88,7.41-8.83l.02-.02c1.28-1.35,2.63-2.7,4.04-4.03h.01c.43-.43.86-.83,1.31-1.24v-.02c3.61-3.33,7.58-6.63,11.81-9.8.01,0,.01-.01.02-.02,0-.01.01-.01.01-.01.17-.12.35-.26.53-.39,0,0,.01,0,.02,0,2.2-1.65,4.46-3.27,6.79-4.84h.01c.07-.05.14-.1.21-.14.17-.12.34-.24.52-.35h.01c.66-.46,1.33-.9,2-1.33,1.17-.77,2.36-1.52,3.55-2.26h.01c.69-.44,1.38-.86,2.08-1.28,3.55-2.15,7.19-4.19,10.86-6.09,1.81-.94,3.62-1.84,5.44-2.7.01,0,.01,0,.02,0,1-.48,2.01-.94,3.01-1.4,2.9-1.31,5.81-2.52,8.69-3.63,1.95-.75,3.89-1.44,5.82-2.09,2.17-.72,4.33-1.38,6.46-1.95,1.54-.43,3.06-.81,4.57-1.14.96-.22,1.9-.42,2.84-.6,7.78-1.49,14.99-1.8,21.15-.59h.01c.16.03.32.06.47.09.62.13,1.22.28,1.81.44.16.04.32.09.47.13v87.06c.54.32.81.57.78.75-.03.22-.3.41-.78.56v17.82Z"/><path class="cls-15" d="M1135.26,727.06c-.16.85-.18,1.76-.05,2.73.93,7.5,9.96,17.93,18.77,22.17,11.41,5.49,17.67-1.67,28.74,5.34,4.99,3.16,9.79,8.45,12.14,12.94h-29.38c-8.64-1.78-18.83-2.72-30.22-1.08-2.13.31-4.1.67-5.96,1.08h-62.23c-.49-.16-.98-.33-1.47-.49-6.38-2.1-39.93-13.18-74.08-10.4-1.15.09-2.29.2-3.43.32-2.18.24-4.3.53-6.34.86-9.06,1.47-16.76,3.73-23.41,5.77,0,0,0,.01-.02,0-5.25,1.62-9.83,3.09-13.93,3.94-4.34.89-8.13,1.09-11.55,0-2.57-.82-4.94-2.38-7.17-4.91-.1-.1-.19-.21-.28-.32-.39-.47-6.73-8.14-7.36-18.64-.06-.89-.07-1.79-.04-2.71,0-.1.01-.21.02-.31.05-1.24.19-2.44.42-3.62.97-5.14,3.46-9.79,7.19-14.25,1.75-2.09,3.77-4.14,6.03-6.18,7.4-6.66,17.4-13.2,29.01-20.7,8.64-5.59,16.03-9.73,24.75-14.22,1.62-.84,3.3-1.69,5.04-2.57.23-.11.47-.23.71-.36,3.34-1.67,6.93-3.44,10.87-5.38.64-.31,1.26-.63,1.88-.94h.01c1.74-.85,3.44-1.69,5.08-2.5,13.71-6.75,24.12-11.88,31.37-15.43h.01c7.56-3.71,11.69-5.69,12.54-6.02.02-.01.04-.01.05-.02,5.28-1.91,17.07-6.17,32.29-8.18h.01c10.67-1.41,23.02-1.7,35.97.7,12.99,2.41,26.58,7.53,39.71,16.97,5.44,3.92,11.05,8.75,16.15,13.94,1.18,1.19,2.31,2.39,3.42,3.62,0,.01,0,.01,0,.01,3.26,3.59,6.22,7.28,8.66,10.89,5.14,7.62,8,14.89,6.59,20.16-1.51,5.69-7.71,8.03-15.6,9.03h-.01c-17.33,2.22-42.83-1.97-44.91,8.76Z"/><path class="cls-26" d="M1272.25,657.76c-.2,5.39,1.35,11.15,4.44,14.67,2.31,2.61,5.89,3.4,13.05,5.02,7.57,1.7,11.35,2.54,15.01.77,5.63-2.75,4.85-7.8,9.79-10.43,5.18-2.78,8.61,1.43,21.2,5.02,10.06,2.85,17.34,4.92,23.49.77,2.11-1.43,4.31-3.72,5.96-6.37v-14.32c-6.32-5.49-23.86-7.08-53.54-9.01-.92-.05-1.88-.12-2.83-.19-1.34-.08-2.69-.17-4.07-.25-18.41-1.16-26.57-.84-30.34,5.79-1.34,2.36-2.05,5.37-2.16,8.51Z"/><path class="cls-13" d="M1224.98,622.03c.9,1.94,8.11-3.41,14.84.97,2.81,1.83,5.78,5.51,5.38,8.88-.26,2.23-1.8,2.63-5.87,6.95-5.36,5.68-4.53,6.95-7.83,9.27-4.64,3.27-7.58,1.68-8.97,4.64-1.68,3.56,1.68,7.83,0,9.85-1.63,1.96-6.18-.42-6.85-.77-4.14-2.17-4.19-4.92-7.01-5.99-4.56-1.73-11.28,2.81-11.58,7.15-.29,4.11,5.3,6.55,4.57,9.27-.48,1.76-3.26,2.41-9.14,2.7-11.08.56-17.29-.93-17.46-.19-.24,1.1,12.73,7.9,30.67,11.59,12.81,2.63,12,.35,33.44,3.09,14.6,1.86,14.84,3.07,23.44,1.38,6.38-1.25,22.5-3.25,24.69-11.23,2.2-8-7.65-13.63-19.74-34.38-13.95-23.95-13.42-38.08-22.35-39.98-10.22-2.18-21.49,14.1-20.23,16.8Z"/><path class="cls-21" d="M1227.04,593.56c-1.39,1.59-3.52,4.61-3.7,8.63-.13,2.98.84,5.75,1.47,7.53,1.3,3.7,2.34,4.11,2.28,5.79-.09,2.82-3.03,3.58-6.69,7.15-5.77,5.63-4.94,10.07-10.6,14.87-1.16.98-.69.34-6.36,3.67-9.03,5.29-10.05,6.68-11.09,5.99-2.92-1.94-.26-16.45,4.89-27.62,2.02-4.39,6.31-13.4,15.5-19.89,5.61-3.97,10.91-5.48,14.3-6.12Z"/><path class="cls-24" d="M1316.45,685.82c-2.75-3.71,2.91-10.72,0-16.22-2.41-4.55-9.47-5.75-11.42-3.09-2.04,2.79,2.79,8.1.65,13.91-1.97,5.37-8.19,6.52-8.48,6.57-6.82,1.15-12.2-5.45-14.68-8.5-1.78-2.19-11.4-13.97-7.83-24.72,3.41-10.28,16.23-11.57,20.23-11.97,15.55-1.56,26.38,10.53,28.71,13.13,4.65,5.19,6.02,9.37,6.53,11.2.41,1.5,3.43,12.43-1.96,18.15-3.42,3.64-9.57,4.48-11.75,1.55Z"/><path class="cls-25" d="M1308.82,643.71c.48.51.95.98,1.39,1.4.36.34.68.64,1.01.93,4.17,3.69,8.05,5.09,15.65,7.73,13.43,4.65,22.6,7.83,33.28,3.86.92-.34,2.76-1.03,5.04-2.34v-56.79c-5.39.79-9.96,2.96-11.55,6.59-1.07,2.41-.1,3.82-1.31,5.41-2.92,3.82-10.23-1.99-20.01-4.8-3.3-.96-6.87-1.57-10.66-1.36-.3.02-.6.03-.91.08-8,.66-19.49,5-21.94,14.59-2.32,9.13,4.57,19.09,10,24.71Z"/><path class="cls-33" d="M1093.2,659.78c.4,2.82-3.57,6.54-7.18,8.11-7.89,3.44-12.75-3.92-18.92-.39-4.49,2.57-7.44,9.63-6.2,14.29,1.53,5.75,8.92,5.9,8.81,8.88-.11,3.15-8.48,8.16-14.03,3.86-3.03-2.34-1-6.6-4.24-11.97-2.47-4.09-7.37-8.09-11.42-6.95-3.97,1.11-3.53,6.16-9.46,14.29-2.02,2.78-6.49,8.9-13.38,11.97-7.61,3.39-13.48.97-14.36,3.86-1,3.29,6.17,7.97,5.22,10.43-1.28,3.32-15.32-2.41-16.31.39-.57,1.61,3.45,5.27,7.83,9.27,6.16,5.62,7.94,5.92,7.83,6.95-.45,4.35-32.38-.14-72.76,7.34-8.73,1.62-7.2,1.85-12.72,2.7-26.03,4-63.54.63-70.58-19.57-1.26-3.6-2.15-9.47.22-12.88,2.83-4.07,9.29-3.11,18.92-1.55,7.97,1.3,10.81,5.63,15.44,3.86.56-.21,6.52-2.27,6.74-6.95.15-3.29-3.84-4.43-4.27-7.05-1.59-9.79,48.92-37.59,59.54-22.95,1.81,2.5,2.71,6.57,1.96,10.04-.54,2.51-2.54,4.96-15.23,11.33-8.41,4.22-10.79,4.74-11.75,7.73-1.33,4.16,1.12,9.97,4.79,12.88,3.12,2.48,6.72,1.77,12.4.26,10.6-2.82,14.65-5.15,22.19-7.73,12.48-4.27,16.17-2.94,24.8-8.5,8.78-5.66,9.11-9.71,9.14-10.82.07-3.1-3.45-4.06-6.09-9.79-1.52-3.29-2.77-5.49-2.18-7.73.67-2.5,3.26-1.96,7.75-4.86,5.08-3.28,5.47-6.19,7.67-6.08,4.04.2,3.71,10.08,8.24,13.81,9.39,7.74,27.37-21.19,57.18-23.18,10.55-.7,23.74,1.89,24.42,6.66Z"/><path class="cls-8" d="M1242.76,622.99c-.76,1.72,1.22,3.38,1.47,7.34.17,2.65-.64,3.12-.82,5.6-.33,4.61,2.22,6.17,4.73,13.33,2.2,6.27.81,6.66,2.77,10.24.42.76,3.56,6.29,9.46,7.73,1.84.45,4.64,1.13,7.34-.77,2.72-1.92,4.23-5.7,4.08-9.08-.06-1.27-.42-3.84-4.73-8.88-7.45-8.71-13.21-9.03-14.03-14.48-.45-3.01,1.09-4.26,0-7.34-.91-2.55-3.08-4.83-5.71-5.21-1.22-.18-3.83-.14-4.57,1.55Z"/><path class="cls-39" d="M1263.42,674.88c-1-2.7-3.43-1.97-6.85-4.64-4.15-3.23-5.92-8.48-7.94-14.42-2.58-7.61-1.77-10.28-4.13-11.97-3.11-2.23-8.59-.55-10.88,3.35-1.48,2.51-1.06,6.01-.22,13,.45,3.71.83,6.74,2.28,10.43.81,2.06,2.01,5.1,4.57,7.85,3.69,3.97,7.79,4.74,12.72,5.67,3.9.73,5.89,1.07,7.72-.39,2.4-1.9,3.76-6.09,2.72-8.88Z"/><path class="cls-25" d="M1280.22,683.86c-4.94-.44-8.39-1.99-10.66-3.35-2.25-1.35-4.02-2.92-5.22-2.06-1.12.8-1.26,3.37-.65,5.15.71,2.08,2.57,3.5,4.79,3.61l11.75-3.35Z"/><path class="cls-38" d="M1331.83,599.43c-3.72-13.9-22.65-17.37-33.28-19.31-6.31-1.16-24.41-4.47-27.08,2.7-2.6,7,12.61,15.67,10.77,27.42-1.74,11.09-16.43,10.77-19.25,23.56-1.85,8.4,2.28,18.58,8.16,23.18,10.57,8.27,25.74-2.32,34.58-8.5,4.64-3.24,20.1-14.38,25.12-35.15,1.26-5.22,2.23-9.22.98-13.91Z"/><path class="cls-41" d="M1153.62,678.7c2.34,4.27.05,10.66-.98,13.52-.42,1.18-3.81,10.24-11.42,13.13-8.68,3.3-14.79-4.48-18.92-.39-2.97,2.94-.33,7.48-2.94,14.29-3.01,7.87-11.52,14.86-18.6,13.52-9.19-1.75-9.73-16.37-19.25-17.77-6.95-1.02-11.67,6.04-14.68,3.09-2.72-2.67-.88-10.42-.33-12.75,1.02-4.27,2.67-6.97,5.55-11.59,4.07-6.52,6.1-9.78,9.46-11.2,3.87-1.64,5.42.5,11.09,0,5.6-.5,8.06-2.93,12.72-5.02,2.93-1.32,4.8-1.63,24.14-1.93,19.13-.3,22.42-.07,24.14,3.09Z"/><path class="cls-41" d="M1104.61,758.66c-.55,1.01-4.43,7.85-12.86,11.58h-24.68c.98.33,1.96.67,2.93,1-2.08-.45-4-.87-5.75-1-.81-.07-1.58-.08-2.31,0h-87.68c.89-1.95,2.06-3.63,3.6-5.45h.01c1.09-1.3,2.37-2.66,3.88-4.26.11-.11.21-.21.31-.32,5.56-5.86,8.62-9.09,12.9-10.71.48-.19.97-.35,1.49-.5,5.88-1.63,8.23.51,16.87,0,8.51-.49,12.25-2.92,19.35-5.02,4.46-1.31,7.3-1.63,36.71-1.93,29.1-.29,34.09-.07,36.72,3.09,3.55,4.28.07,10.67-1.49,13.52Z"/><path class="cls-22" d="M1354.59,616c.03,3.38-4.81,2.93-10.01,10.56-5.49,8.06-3.84,14.05-8.92,17.51-4.68,3.19-10.05.8-10.66.52-8.14-3.8-10.34-16.6-8.92-17.77,1.02-.84,4.57,3.79,5.22,3.09.96-1.04-7.72-10.19-5.87-16.74,1.25-4.42,6.79-5.9,9.79-6.7,13.53-3.6,29.31,3.44,29.36,9.53Z"/><path class="cls-7" d="M1258.27,642.22c0,5.2,9.49,6.91,24.4,15.74,6.21,3.68,19.12,12.01,29.63,26.09,5.14,6.89,8.9,12.06,7.41,17.09-.47,1.59-2.41,6.36-23.53,11.7-19.23,4.85-31.81,4.95-31.81,4.95-14.36.27-27.32.51-40.13-.79-20.43-2.07-35.02-8.36-39.18-10.01-25.41-10.09-50.12-27.84-47.93-33.29,1.98-4.93,22.82,8.15,49.67-.45,6.69-2.14,29.72-9.52,39.65-29.24,3.3-6.56,5.58-15.31,14.38-24.29,5.07-5.18,9.42-7.47,11.76-8.55,8.38-3.83,15.84-3.33,17.87-3.15,10.24.94,22.55,6.29,22.22,10.8-.28,3.87-9.66,3.94-24.84,13.94-9.37,6.17-9.59,8.65-9.59,9.45Z"/><rect class="cls-7" x="1134" y="701" width="230" height="66"/><path class="cls-1" d="M1247.03,618.45c.83,3.89-.24,7.67-3.59,14.29-3.68,7.29-6.57,11-12.72,19.7-8.31,11.74-9.88,14.65-14.36,16.61-3.46,1.52-9.39,2.8-11.42-.39-2.17-3.39,1.11-10.28,2.28-12.75,2.56-5.38,4.47-5.46,7.83-11.2,2.75-4.7,1.88-5.35,5.22-12.75,2.59-5.73,4.72-10.45,8.81-14.68,2.52-2.6,8.17-8.44,13.05-6.18,3.62,1.67,4.79,6.86,4.89,7.34Z"/><path class="cls-14" d="M1327.84,721.26c-2.23-10.55-24.58-11.96-30.99-12.36-20.07-1.26-29.26,4.22-48.29,8.11-37.62,7.7-61.34-1.5-62.64,4.63-1.38,6.51,21.9,18.06,30.67,22.4,17.56,8.71,34.69,16.88,48.94,8.11,6.69-4.12,4.56-6.93,11.42-11.2,17.16-10.68,32.44,5.77,44.7-5.41,3.7-3.37,7.24-9.36,6.2-14.29Z"/><path class="cls-19" d="M1333.2,577.35c1.04.2,13.99,2.92,15.66,11.33,1.16,5.84-4.23,8.5-3.48,16.74.05.5.94,8.56,5.66,11.33,3.72,2.19,6.95-.6,9.57,2.32,2.07,2.3,1.76,5.93,1.74,6.18-.32,3.27-2.54,6.31-5,6.95-3.64.96-7.46-3.4-13.05-9.79-5.04-5.75-6.45-8.87-9.35-8.76-3.2.13-5.34,4.06-5.66,4.63-2.55,4.67-.47,10.87,2.17,19.31,1.6,5.1,3.36,5.7,3.05,8.24-.44,3.57-3.38,4.65-3.26,7.73.09,2.32,1.87,4.82,3.92,5.67,4.23,1.75,7.2-4.53,16.31-7.47,3.6-1.16,7.36-2.37,9.79,0,3.41,3.33,2.86,12.39-.44,14.94-1.53,1.18-2.81.29-7.61-.51,0,0-6.67-1.12-14.79-.52-8.47.63-8.38,2.84-11.53,1.55-4.7-1.93-4.86-6.83-11.31-10.56-1.84-1.06-3.35-1.49-6.31-2.32-5-1.39-10.58-3.06-16.97-2.32-2,.23-13.97,1.62-15.23,7.98-.87,4.42,3.67,9.97,5,11.59,3.3,4.03,6.9,5.68,6.53,7.98-.21,1.3-1.55,1.97-1.74,2.06-2.27,1.09-4.86-1.2-9.35-4.89-7.76-6.38-8.21-5.43-9.35-7.47-2.25-4.03-.45-5.75-2.61-12.88-2.1-6.91-4.45-7.45-4.13-11.07.43-4.82,4.69-5.1,6.31-10.82,1.85-6.53-1.75-13.15-2.17-13.91-4.71-8.39-14.07-8.7-15.66-8.76-10.43-.34-11.53,8.17-23.27,11.59-13.43,3.91-17.42-5.65-32.41-1.55-10.57,2.9-9.5,7.9-18.27,9.27-14.48,2.26-17.1-11.43-33.71-11.07-9.7.21-16.83,5.05-22.84-.51-1.57-1.45-3.34-3.86-2.83-5.15.8-2.03,6.61.45,17.84,1.55,8.99.87,14.42.17,15.66,0,5.84-.8,7.2-3.67,11.31-2.83,4.63.95,7.26,4.65,9.35,3.09,1.05-.78,1.79-2.76,1.31-4.12-1.06-2.99-7.17-.69-16.53-3.61-2.42-.75-7-2.18-6.96-3.86.04-1.86,5.74-4.42,11.31-3.61,6.02.88,7.25,5.03,12.83,4.89.73-.02,6.51-.23,7.83-4.12,1.05-3.09-1.12-7.27-3.48-9.53-5.57-5.33-13.64-1.37-14.36-3.86-.49-1.72,2.89-5.21,6.53-6.69,6.39-2.61,12.67,1.34,15.44,3.09,4.96,3.13,4.31,4.8,8.05,7.21,11.24,7.24,26.31-1.97,28.49-3.35,3.11-1.97,6.85-4.06,9.79-8.75,2.07-3.31,1.9-4.86,4.13-8.76,1.43-2.49,4.48-7.81,9.14-10.04,6.99-3.35,15.66,1.22,20.45,6.7,3.81,4.36,3.14,6.99,8.05,14.68,4.05,6.36,6.67,9.35,9.57,11.59,3.11,2.41,5.68,4.4,8.7,3.86,3.94-.69,4.63-4.95,9.35-9.79,4.35-4.46,8.71-5.92,15.66-8.24,6.57-2.2,11.21-3.75,17.18-2.58Z"/><path class="cls-19" d="M1243.35,561.38c-1.51-3.2-13.42-2.3-19.14,5.67-4.1,5.72-1.58,10.27-5.66,13.91-3.88,3.46-7.3.35-15.66,4.12-3.22,1.45-7.23,3.95-6.96,5.67.36,2.24,7.62.69,9.57,5.15.87,1.98.44,4.57-.43,6.18-1.22,2.24-3.09,2.19-5.66,3.61-5.33,2.95-4.78,7.34-8.27,8.76-4.64,1.88-7.15-5.26-14.36-6.18-5.68-.73-12.82,2.59-16.53,9.79-4.06,7.87,3.7,17.39,0,21.63-1.63,1.86-4.55,1.95-6.53,1.03-4.99-2.32-3.33-10.79-7.83-13.91-4.93-3.41-13.32,2.31-17.4,6.18-6.01,5.7-4.86,9.48-11.31,15.45-2.58,2.39-9.4,8.7-14.36,6.18-4.63-2.35-4.31-10.7-9.14-11.85-2.36-.56-2.8,1.35-5.22,1.03-6.23-.82-18.27-8.32-20.45-9.27-2.4-1.05-13.99,4.47-14.36,8.24-.53,5.51.38,5.73-.43,7.73-2.7,6.6-14.15,7.83-22.62,6.18-9.59-1.86-11.57-6.67-17.4-4.63-3.92,1.37-6.81,4.87-10.44,9.27-3.34,4.04-5.01,6.06-4.79,8.24.58,5.74,11.75,5.54,13.05,12.36.68,3.57-1.71,7.13-3.48,9.79-4.59,6.87-10.69,8.27-10.44,9.27.3,1.21,8.93-1.99,20.01-3.09,13.69-1.36,18.18,1.78,23.06-2.57,4.89-4.37,1.64-9.56,6.09-17.51,4.82-8.61,12.93-10.89,29.15-15.45,12.1-3.4,15.37-2,17.4-.51,3.95,2.9,7.34,9.17,6.53,14.94-1.23,8.75-11.32,10.64-10.88,17,.25,3.56,3.67,6.57,6.53,7.21,6.81,1.53,8.56-18.08,17.4-19.57,5.48-.92,6.99,5.74,13.49,5.15,7.92-.72,10.05-11.03,16.1-10.3,4.32.52,4.51,5.93,10.44,11.33,9.49,8.65,21.9,6.53,23.93,6.18,1.46-.25,18.94-3.47,21.75-15.45,2.03-8.65-5.55-13.47-3.05-22.15,2.54-8.8,12.25-10.41,11.75-15.97-.39-4.33-6.4-4.6-6.96-9.27-.61-5.02,6.73-6.76,13.16-7.6,7.94-1.03,11.2-.52,12.94-5.28.4-1.11-13.54-4.64-13.92-10.82-.36-5.73,11.03-11.49,11.75-11.85,7.52-3.72,11.79-1.93,13.49-5.67,1.99-4.4-3.13-8.69-.87-14.42,1.22-3.09,3.33-3.45,5.65-8.76,1.17-2.67,1.8-4.11,1.31-5.15Z"/><path class="cls-19" d="M992.13,673.52c-2.09-4.1-8.31-1.69-9.79-5.41-.87-2.19,1-3.76,1.09-7.73.14-6.11-4.1-10.82-4.57-11.33-3.69-3.99-6.91-2.48-19.14-5.15-12.18-2.66-12.97-5.03-13.05-5.92-.2-2.19,3.2-3,3.7-6.44.55-3.87-2.94-8.44-6.31-10.3-6.37-3.52-15.34.94-20.01,7.98-6.23,9.4-5.28,24.08.22,29.87,3.44,3.62,8.37,3.46,8.48,5.92.12,2.6-5.26,4.89-5.87,5.15-9.64,4.01-14.47-3.29-21.1.52-4.92,2.83-8.58,10.49-7.61,15.97.43,2.45,1.6,3.36,1.31,5.15-.84,5.05-12.11,4.53-12.18,6.44-.05,1.51,6.74,4.21,14.36,3.99,9.77-.28,11.09-7.1,24.58-11.07,5.53-1.63,6.67-1,10.88-3.09,5.83-2.9,6.39-5.48,13.05-10.3,4.51-3.26,9.63-6.87,16.53-7.47,1.87-.16,10.69-.92,13.27,4.38,1.5,3.08-.27,5.81,1.52,7.98,1.98,2.4,6.99,2.52,9.57-1.03,1.54-2.11,2.32-5.69,1.09-8.11Z"/><path class="cls-19" d="M1250.38,665.8c-1.33-4.77-5.07-4.52-6.2-8.5-1.13-3.99,1.98-6.54.49-9.46-1.12-2.2-4-2.92-6.2-2.32-3.04.83-5.15,4.26-5.06,7.15.09,2.76,2.14,2.98,4.57,7.73,2.41,4.71,1.43,6.53,3.59,8.88,2.58,2.81,7.13,3.63,8.65,1.55,1.13-1.55.34-4.39.16-5.02Z"/><path class="cls-19" d="M1242.85,733.58c-13.78-1.09-13.5-.52-19.09-1.54-12-2.2-14.56-5.08-32.95-10.62-11.76-3.54-17.76-5.37-23.33-5.02-9.67.61-12.11,4.24-19.25,1.93-5.31-1.72-6.68-4.61-16.8-9.08-4.41-1.95-6.62-2.92-8.32-3.09-9.21-.91-11.52,7.79-23,10.24-6.76,1.44-13.38,0-15.01-.39-5.91-1.39-10.19-4-16.15-2.12-2.02.64-4.67,1.93-4.57,2.9.1.9,2.51,1.29,11.91,1.93,12.74.87,15.06.61,18.27,2.9,4.33,3.09,3.02,5.67,7.01,8.69,4.19,3.18,7.81,1.98,22.68.39,13.11-1.41,16.29-1.13,19.74.39,8.77,3.85,10.11,8.3,10.11,8.3.6.96,1.47,2.58,3.1,3.09,1.93.61,4.37-.53,5.71-2.51,1.99-2.96.3-5.94,1.63-8.3,2.32-4.12,11.18-1.62,12.89-1.16,24.89,6.78,53.15-3.25,67.54,5.6.59.37,2.67,1.69,5.65,3.1,2.26,1.07,7.28,3.46,13.11,4.24,9.44,1.26,19.8-1.85,19.74-3.86-.08-2.77-19.99-4.35-40.62-5.99Z"/><path class="cls-19" d="M1207.7,655.05c2.44.48,2.62,3.3,6.69,8.5,3.45,4.4,5.32,4.93,5.06,6.18-.5,2.44-8.19,3.45-14.36.19-.88-.47-6.57-3.47-6.36-7.34.11-2.03,1.8-3.53,3.26-4.83,1.48-1.31,3.53-3.14,5.71-2.7Z"/><path class="cls-19" d="M1299.18,613.68c.84,6.22,7.33,9.74,11.97,10.31,2.59.32,4.33-.76,5.9-2.24,2.5-2.32,4.61-5.69,9.09-6.27,6.62-.84,7.91,5.02,15.88,5.15,5.95.1,7.23-3.13,12.54-5.07.91-.34,1.94-.62,3.13-.86,2.86-.56,5.54-.54,7.97-.25v-45.9c-2.29,1.42-5.04,2.86-8.41,4.19-6.05,2.38-9.85,3.86-14.57,2.58-6.93-1.9-7.34-7.51-13.92-9.28-6.99-1.87-16.04,1.89-17.61,7.73-1.18,4.33,2.43,7.23,2.39,17.77-.03,4.41-.67,5.74-1.1,6.44-2.28,3.71-6.22,1.85-9.79,5.41-2.38,2.38-3.98,6.55-3.47,10.29Z"/><path class="cls-32" d="M1292.85,676.41c5.66.72,6.56,7.92,14.79,19.06,7.35,9.94,13.23,17.91,21.53,18.8,3.33.36,8.59-.26,16.31,2.32,3.79,1.27,4.15,1.96,4.13,2.32-.09,1.91-11.24,2.65-13.92,2.83-16.71,1.11-17.35-2.39-23.93.26-6.53,2.63-5.29,5.85-17.4,13.39-5.48,3.41-9.37,5.02-9.14,6.44.42,2.57,13.7.62,13.92,2.32.19,1.47-9.42,5.42-20.01,6.7-13.61,1.63-15.09-3.78-29.8-3.61-14.96.18-17.34,5.43-25.67,1.55-4.33-2.02-6.56-4.78-15.66-9.01-6.6-3.07-9.04-3.3-10.22-3.35-4.17-.18-5.79,1.27-14.79,5.15-15.01,6.47-17.95,5.65-19.58,4.89-3.53-1.63-3.73-4.2-7.83-5.15-4.37-1.01-7.24,1.19-9.14-1.03-1.11-1.3-1.71-3.91-.87-5.41,2.2-3.93,12.23,3.4,16.75-1.55,2.94-3.21.51-8.28,3.26-10.56,3.07-2.54,6.99,2.99,16.53,4.63,6.09,1.05,11.02-.07,14.14-.77,6.72-1.52,8.11-3.6,13.7-5.67,14.38-5.31,20.11,2.92,27.84-3.09,6.73-5.24,3.26-12.17,10.01-17.51,9.08-7.2,18.85,2.63,26.32-5.15,3.93-4.09,2.66-8.3,8.27-13.65,1.94-1.84,5.99-5.71,10.44-5.15Z"/><path class="cls-2" d="M1239.21,738.7c-.06.62,3.98.62,10.6,1.72,1.99.34,4.21.76,6.63,1.33,2.63.61,5.49,1.4,8.54,2.43,1.89.62,4.08,1.43,6.59,1.84,2.19.4,4.62.49,7.29-.1,1.95-.42,5.09-1.11,7.97-3.67h.01c.33-.29.65-.61.98-.96,1.64-1.77,1.88-2.91,3.19-4.09.11-.13.26-.24.4-.35,2.8-2.17,6.13-1.72,9.13-1.16,5.65,1.06,9.9,2.44,13.62,3.67,1.69.56,3.27,1.08,4.82,1.55,3.32.98,6.89,1.5,14.03,2.51,11.71,1.68,28.81,3.22,32.65,2.11.48-.15.75-.34.78-.56.03-.19-.24-.44-.78-.76-.91-.54-2.62-1.3-5.09-2.41-8.44-3.74-14.97-5.81-16.09-6.17-6.59-2.09-10.34-3.27-15.65-4.13-1.34-.22-2.46-.37-3.43-.47-5.19-.52-5.95.37-10.5-.56-13.4-2.75-15.88-12.23-23.05-10.31-5.69,1.53-4.78,7.68-13.05,12.89-2.16,1.35-4.99,2.66-17.4,4.11-5.35.62-9.82.88-13.3.98-5.73.2-8.85.03-8.88.57Z"/><path class="cls-30" d="M1364.92,718.62c-.08-.59-7.67,1.78-10.01-2.06-1.42-2.33.44-4.75-.87-7.73-1.81-4.11-7.56-4.5-9.57-4.64-5.33-.36-7.8,1.53-16.1,4.64-3.85,1.44-10.37,3.86-17.84,5.15-8.68,1.5-15.23.9-15.23,1.03,0,.19,14.91-3.29,32.63,1.55,9.38,2.56,15.58,6.37,26.54,5.15,6.28-.7,10.5-2.64,10.44-3.09Z"/><path class="cls-25" d="M1280.61,176.7c2.15,3.71-1.23,13.05-8.09,31.57,0,0-5.2,14.04-11.65,22.91-6.36,8.76-7.63,5.96-11.98,12.85-8.36,13.27-3.98,23.33-12.42,28.91-4.2,2.78-8.41,2.35-9.61,7.01-1.24,4.8,2.16,9.41.65,11.62-2,2.93-9.3-3.21-17.34-5.79-16.61-5.32-30.56,6.27-37.52,12.05-4.23,3.51-11.45,10.73-16.36,15.89-3.53,3.71-2.96,3.31-3.57,3.82-8.68,7.25-19.58,1.83-40.06.12-9.18-.77-9.86.88-16.03-.41-3.68-.77-20.09-5.15-21.29-9.45-2.34-8.35,47.24,7.23,75.78-34.76,11.19-16.46,17.16-35.37,30.63-51.14,18.97-22.2,54.38-13.39,53.68-27-.01-.26,42.6-22.61,45.16-18.2Z"/><path class="cls-38" d="M1241.53,458.91c4.66-13.9,28.36-17.37,41.66-19.31,7.9-1.16,13.82.17,17.15,7.34,3.26,7,.96,11.03,3.27,22.79,2.18,11.09,38.54-52.96,42.07-40.17,1.25,4.53-9.07,44.16,11.19,49.69,22,6-26.61,28.88-30,31-13.23,8.27-41.59,3.9-52.67-2.28-5.81-3.24-25.16-14.38-31.45-35.15-1.58-5.22-2.79-9.22-1.22-13.91Z"/><path class="cls-44" d="M1077.07,529.85c.49,1.78,15.42-.32,22.33-1.29,10.96-1.54,12.19-2.48,19.6-3.35,12.65-1.48,13.75.7,28.59,0,15.19-.72,24.01-1.25,29.13-7.21,3.09-3.6,6.76-11.42,7.08-12.1,2.09-4.49,1.68-4.8,3.27-7.47,4.09-6.87,8.26-7.19,8.99-11.33.85-4.84-4-9.22-4.63-9.79-6.88-6.21-17.95-4.43-19.88-4.12-14.6,2.35-17.1,12.69-44.38,30.9-4.94,3.3-8.77,5.57-9.8,6.18-23.47,13.85-40.83,17.63-40.3,19.57Z"/><path class="cls-44" d="M1169.65,551.22c-.64,1.62-2.65,6.47-7.62,10.04-5.52,3.96-10.08,3.02-16.61,8.5-1.1.92-3.13,2.62-2.72,3.35.94,1.69,14.25-3.14,15.52-3.61,9.45-3.46,11.14-5.48,16.34-5.41,4.99.06,4.94,1.94,9.8,2.32,2.79.22,7.24-.06,22.6-9.01,11.2-6.53,9.72-6.9,14.16-8.5,9.35-3.36,12.31-.42,20.15-4.38,6.06-3.06,7.84-6.62,11.71-5.92,3.15.57,6.1,3.68,5.99,6.44-.1,2.53-2.71,3.18-7.9,8.5-3.39,3.48-5.09,5.21-5.72,7.47-1.65,5.89,4.18,11.78,5.99,13.65,2.13,2.2,7.08,7.3,12.8,6.95,6.65-.41,10.68-7.95,14.43-13.65,17.32-26.26,36.14-24.15,37.57-38.88,1.27-13.1-12.49-26.23-24.78-31.42-12.08-5.1-23.73-2.94-35.4-.77-15.43,2.87-27.96,9.42-29.13,10.04-11.61,6.17-12.58,9.81-19.6,10.3-10.58.74-14.82-7.04-24.23-4.63-4.82,1.23-9.39,4.71-11.44,9.01-1.61,3.39-.47,4.8-.54,16.22-.06,9.88-.94,12.32-1.36,13.39Z"/><path class="cls-19" d="M1124.59,377.41c-1.16-1.75,3.9-8,7.76-7.53,1.31.16,2.39,1.08,3.06.58.71-.52.44-2.23,0-2.32-.97-.2-1.6,7.59-6.53,9.46-1.55.59-3.72.67-4.29-.19Z"/><path class="cls-19" d="M1060.74,407.15c4.49-5.58,8.99-9.19,12.18-11.39,4.79-3.31,6.71-3.53,7.96-3.48,4.58.2,6.16,4.28,9.6,3.67,3.03-.54,2.88-3.91,6.74-5.79,4.23-2.07,10.22-.88,10.62.77.67,2.78-14.32,8.23-18.79,9.85-5.84,2.12-10.92,3.43-14.7,4.25-5.3,1.15-9.94,1.77-13.61,2.12Z"/><path class="cls-11" d="M1369.01,183.07v69.81c-.75,1.26-1.6,2.63-2.73,4.46-1.51,2.44-3.51,5.76-6.45,10.88-8.25,14.39-9.32,17.69-12.02,20.42-.39.4-.82.79-1.32,1.21-8.44,7.04-22.83,9.99-31.21,5.47-.62-.3-1.19-.67-1.75-1.09-5.65-4.28-2.67-9.57-8.16-17.77-5.7-8.49-13.5-9.7-19.65-12.23-2.69-1.11-5.04-2.46-6.77-4.77-2.65-3.54-3.44-8.86-2.6-15.11,3.01-22.44,26.93-56.82,60.33-63.94,5.04-1.08,21.23-4.51,32.31,2.66Z"/><path class="cls-38" d="M1369.01,260.94v20.64c-4.11,2.43-11.08,4.51-21.2,7.06-4.38,1.09-9.35,2.27-14.93,3.6-8.48,2-13.89,2.95-17.6,3.08-3.72.13-5.73-.56-7.46-1.8-7.64-5.54-2.62-18.48-10.33-21.88-5.82-2.58-11.99.45-19.34,3.34-8.39,3.28-16.35,5.59-24.79,7.45-7.98,1.75-16.39,3.1-26.02,4.48-3.24.49-6.63.96-10.17,1.47-.21.03-.41.05-.62.08h-.02c-4.24.59-7.86.98-11.01,1.3-12.11,1.18-17.17,1.09-23.21,6.1-8.5,7.04-5.15,12.82-13.34,20.58-13.07,12.42-35.02,10.46-48.18,9.28-8.32-.74-16.85-1.5-22.5-3.47-3.37-1.16-5.7-2.76-6.38-5.04-.12-.39-.18-.79-.18-1.2v-.02c-.14-3.64,3.58-8.14,9.51-12.89h.02c.8-.66,1.66-1.31,2.53-1.97,0-.02.02-.02.02-.02,7.07-5.24,16.49-10.7,26.17-15.65h.02c6.25-3.2,12.59-6.18,18.47-8.74,1.62-.69,3.19-1.36,4.72-2,4.19-1.74,7.87-3.15,11.54-4.4,12.61-4.3,24.85-6.64,55-13.24,4.15-.89,8.64-1.89,13.5-2.96,4.19-.93,8.19-1.84,12.04-2.7,11.9-2.7,22.16-5.05,31.1-7.08,29.44-6.62,44.58-9.47,56.71-7.45,4.52.76,8.62,2.19,12.88,4.35,7.87,3.98,15.18,9.89,20.32,16.09,1,1.2,1.91,2.41,2.73,3.6Z"/><path class="cls-19" d="M978.85,436.89c-.28-1.63,5.99-4.43,12.52-5.67,6.96-1.31,10.72-.19,16.34,0,11.51.38,12.5-3.79,27.77-6.18,8.21-1.28,25.27-2.79,27.23,2.06,1.32,3.27-4.73,8.24-5.99,9.27-9.41,7.73-17.89,4.66-34.85,9.79-10.55,3.19-8.44,4.72-21.78,9.27-7.68,2.62-14.74,3.98-28.86,6.69-16.04,3.09-24.48,4.68-36.49,5.15-5.7.22-10.2.12-15.25,0-8.07-.19-25.57-.9-25.59-2.06-.04-1.62,34.18-.24,70.79-13.91,12.81-4.78,21.34-9.7,20.69-11.85-.5-1.65-6.27-1.06-6.53-2.57Z"/><path class="cls-19" d="M944.95,419.38c51.75-16.51,73.38-33.4,83.32-46.35,4.42-5.76,7.87-12.49,17.15-17.77,9.74-5.54,35.53-14.97,38.24-18.16.09-.1.18-.23.15-.38-.38-2.06-22.12,3-24.51-1.55-2.37-4.51,14.91-17.38,26.96-24.72,14.33-8.74,31.41-15.84,32.67-13.91.95,1.46-7.2,7.87-7.35,7.73t20.42-20.86c12.86-12.7,24.79-19.46,30.22-16.22,4.57,2.72,3.43,11.83,3.27,13.13-1.09,8.74-7.23,14.65-16.34,23.18-4.73,4.43-7.78,7.29-12.25,10.04-15.35,9.45-27.67,5.49-40.84,9.27-9.46,2.72-22.07,10.21-33.49,32.45l-117.63,64.12Z"/><path class="cls-19" d="M1001.04,570.67c4.22-8.35,13.56-11.25,14.7-11.59,10.61-3.13,22.11,1.16,22.05,3.48-.07,2.78-16.84,2.71-17.15,6.57-.21,2.51,6.62,6.03,13.07,5.79,3.63-.13,6.28-1.42,7.35-1.93,17.9-8.55,24.18-4.97,36.35-13.91,6.92-5.08,6.97-7.76,13.48-10.43,6.12-2.51,15.32-3.92,18.79,0,2.58,2.91.06,6.59,2.04,8.5,3.69,3.56,17.44-2.96,28.18-10.04,18.28-12.06,21.64-21.75,34.72-23.18,2.04-.22,9.86-1.07,13.48,3.09,5.44,6.27-.21,22.13-10.62,27.04-7.33,3.46-12.36-.72-24.1.39-11.85,1.12-13.36,6.05-25.73,10.43-15.43,5.46-17.89-.24-53.5,3.48-16.56,1.73-22.03,3.58-26.96,6.57-7.25,4.39-8.25,8.14-15.52,10.43-8.05,2.53-10.28-.98-22.05.39-3.63.42-4.22.85-20.42,5.79-21.53,6.57-21.65,6.17-21.65,6.18.12.44,25.6-.87,31.04-13.13,2.21-4.97-.65-7.76,2.45-13.91Z"/><path class="cls-19" d="M1187.28,499.98c4.89-6.29,9.02-7.63,11.84-7.73,6.43-.21,9.66,5.92,22.05,9.27,2.43.66,7.15,1.9,8.17.39,1.48-2.19-6.83-7.12-6.53-13.52.21-4.56,4.17-9.38,8.58-10.43,1.63-.39,2.53.23,7.35,0,2.9-.14,4.37-.22,4.9-.77,1.71-1.77-1.15-5.53-3.27-13.13-1.19-4.27-1.75-6.48-1.63-8.88.44-9.06,12.54-15.32,14.3-16.22,8.86-4.58,20.89-5.78,30.63-.77,3.47,1.78,7.56,3.89,7.76,6.95.39,5.87-21.72,3.69-33.9,17.77-4.18,4.84-5.71,9.75-6.13,11.2-.59,2.06-2.67,9.35.41,17,2.28,5.67,5.26,6.22,4.9,9.66-.44,4.2-4.98,4.27-8.58,10.43-3.44,5.9-1.51,9.64-4.49,11.2-3.53,1.84-6.62-3.21-13.07-3.09-8.63.16-10.57,9.32-18.79,9.66-6.44.26-11.53-5.11-15.11-8.88-6.99-7.37-8.82-15.79-9.39-20.09h0Z"/><path class="cls-19" d="M1003.49,546.72c7.42-2.05,13.48-4.31,17.97-6.18,2.34-.97,7.49-3.18,13.89-6.57,10.8-5.72,9.88-6.7,13.89-7.73,9.46-2.42,12.64,3.59,21.65,1.16,6.91-1.87,11.47-7.15,14.3-10.43,2.64-3.06,2.34-3.72,7.35-11.2,4.74-7.08,7.11-10.62,8.99-11.97,9.49-6.84,25.74-2.12,25.73-1.93,0,.12-6.88-.12-6.94-.77-.1-1.09,18.87.73,25.32-8.11,5.59-7.66-3.4-16.22,2.86-25.88,3.06-4.72,9.19-8.82,15.11-8.5,4.67.25,8.56,3.39,16.34,9.66,5.11,4.12,4.45,4.45,6.94,5.79,8.6,4.64,16.61.77,18.38,3.86,1.53,2.67-3.15,7.78-5.72,10.04-6.89,6.07-18.94,9.5-24.91,5.02-3.91-2.93-2.59-7.26-6.13-8.5-4.34-1.52-10.16,3.66-14.3,7.34-3.39,3.02-7.04,6.25-9.39,11.59-3.77,8.52.3,12.07-3.27,22.02-1.39,3.88-3.92,10.92-8.58,11.59-4.86.69-7.07-6.27-18.38-10.04-2.99-1-5.02-1.68-7.76-1.55-7.8.38-9.82,6.79-19.2,13.13-10.1,6.83-20.83,8.24-25.73,8.88-7.37.97-11.94.24-16.75,0-9.56-.47-23.47.84-41.66,9.27Z"/><path class="cls-19" d="M1243.85,230.25c1.87-6.21,1.88-12.23-1.31-15.93-6.86-7.97-28.41-5.07-41.66,4.63-12.74,9.35-8.78,18.43-24.51,33.22-5.93,5.61-13.98,11.34-20.73,13.7h-.02c-3.76,1.33-7.11,1.6-9.48.22-5.31-3.1-2.3-12.55-7.62-14.69-4.19-1.67-7.64,3.57-17.69,7.48-7.46,2.9-13.88,3.13-26.68,3.6-15.21.56-16.83-1.53-24.51.78-9.46,2.83-15.39,8.49-16.33,7.46-.68-.72,1.66-4.28,4.9-6.96,6.45-5.34,14.3-3,27.77-3.86,2.85-.19,15.05-1.09,27.77-6.18,5.88-2.34,20.61-8.24,20.43-15.45-.11-4.3-5.4-5.24-13.07-13.14-4.1-4.23-11.92-12.28-12.25-20.08-.59-14.13,23.14-31.15,44.92-30.91,4.76.07,15.16,3.66,35.94,10.81,20.45,7.06,24.17,9.08,31.05,7.73,11.4-2.22,22.21-11.86,24.51-22.4,1.64-7.48-2.14-10.33-.82-18.53,1.55-9.7,8.55-16.66,13.89-20.87l13.89-3.25c18.51-2.16,14.85-.19,18.51-2.16,8.73-4.7,3.17-17.96,13.88-31.67,1.6-2.06,10.44-12.9,25.33-14.67,10.79-1.28,22.78,2.46,30.23,10.04,11.33,11.54,1.85,21.55,7.34,54.85.46,2.78.96,5.39,1.5,7.87v49.79c-2.73,3.55-5.56,6.38-6.39,7.23-10.97,11-17.87,10.58-23.69,16.22-3.35,3.27-5.09,7.33-5.84,11.77-2.94,17.25,9.05,40.38.12,45.4-5.95,3.35-18.29-3-24.49-8.51-6.45-5.69-6.22-10.78-11.44-12.35-3.87-1.16-7.77.47-11.54,2.78-6.2,3.77-12.09,9.35-17.06,7.26-5.57-2.38-4.84-12.33-7.34-12.36-2.89-.05-1.92,13.21-7.98,23.3-1.16,1.92-2.55,3.72-4.27,5.29-11.33,10.33-35.21,9.64-43.57,2.04-.93-.86-1.67-1.79-2.17-2.81-.39-.79-.64-1.63-.77-2.49-1.21-7.93,7.78-18.41,9.74-20.69,2.64-3.07,5.08-5.1,7.41-6.67,5.34-3.64,10.1-4.92,15.46-11.1,3.75-4.32,6.97-10.1,8.66-15.74h0Z"/><path class="cls-19" d="M1194.36,452.47c0,.57,3.29,1.32,6.53,1.29,9.39-.1,16.24-6.77,19.6-10.04,6.68-6.5,4.6-7.67,14.16-19.57,6.04-7.52,9.78-10.9,14.7-13.39,4.44-2.25,8.6-3.13,10.89-3.61,3.73-.77,9.11-1.88,9.8-.51.6,1.18-2.53,3.69-14.16,12.36-8.5,6.33-9.99,7.35-12.52,9.27-16.29,12.34-14.47,15.82-23.08,19.89-12.47,5.9-25.92,3.17-25.93,4.31Z"/><path class="cls-19" d="M1354.46,394.85c-.45,3.6.77,3.45.82,8.89.09,10.11-4.08,12.68-2.05,17,1.42,2.97,4.38,3.74,7,4.72,2.07.76,3.92,1.63,4.65,3.77.59,1.7.27,3.74-.62,5.69-1.35,2.93-4.08,5.69-7.16,6.84-.2.08-.39.15-.59.22-.52.17-.96.25-1.37.27-1.98.2-2.99-.74-6.39-.27-1.96.27-3.54.84-4.88,1.53-3.7,1.9-5.61,4.63-8.99,4.06-3.7-.61-4.13-4.33-6.43-4.25h-.11c-1.57.13-2.46,1.89-3.49,4.75-1.28,3.52-2.8,8.74-6.11,14.76-2.94,5.32-5.95,10.63-12.06,12.94-5.04,1.92-11.13,1.38-11.63-.19-.34-1.06,2.01-2.64,6.73-5.79.59-.39,1.14-.76,1.66-1.08,5.06-3.25,7.34-4.09,9.17-7.04.89-1.42,1.19-2.68,1.83-5.21,1.12-4.5.71-6.64.82-14.3.11-7.5.57-9.25-.61-9.85-2.58-1.3-7.09,5.88-11.24,4.65-3.69-1.11-4.22-8.02-4.29-8.89-.39-5.07,1.6-12.01,6.95-15.06,3.79-2.16,6.23-.64,12.25-3.67,1-.51,2.08-1.13,5.52-3.67,8.69-6.45,13.11-9.77,16.12-14.67,1.82-2.96,3.42-5.64,2.87-9.08-.62-3.79-3.76-7.93-6.95-7.92-4.08.02-6.13,6.86-8.98,6.18-1.28-.3-2.3-1.99-2.26-3.47.09-3.27,5.2-3.93,10.22-9.67,2.62-3,1.62-3.3,3.47-5.02,5.61-5.26,16.42-3.98,20.47-3.34.61-.35,7.16-2.07,9.74.25.18.17.34.34.46.54,1.28,1.77,1.01,4.92,0,8.37-1.12,3.81-3.13,7.97-4.95,10.98-4.61,7.7-8.78,9.47-9.6,16.02Z"/><path class="cls-19" d="M1284.42,326.55c-.84.68-6.31,5.07-5.99,10.82.24,4.34,3.54,5.01,4.36,9.27,1.01,5.27-2.93,10.05-7.08,14.94-7.92,9.33-16.61,14.04-16.34,14.42.31.44,10.15-8.23,25.05-11.33,9.87-2.06,11.68.47,17.97-2.57,9.93-4.81,13.79-15.17,15.25-19.06,1.88-5.05,3.11-8.33,1.63-11.85-3.54-8.42-18.6-8.74-20.15-8.76-3.22-.03-9.46-.09-14.7,4.12Z"/><path class="cls-19" d="M1206.82,591.01c-.74-5.77,10.69-12.47,20.42-14.68,14.71-3.34,30.39,2.47,30.22,5.41-.13,2.35-10.44,3.63-10.62,3.09-.21-.62,13.53-1.84,22.06-11.59,4.26-4.87,2.72-6.72,8.17-17.77,5.3-10.76,8.42-17.07,15.52-20.86.94-.5,12.38-6.37,22.87-.77,5.21,2.78,10,8.28,10.62,14.68,1.01,10.39-9.75,14.98-7.35,22.4,2.23,6.89,12.78,6.89,13.07,11.59.31,5.1-11.82,10.35-22.06,13.13-17.77,4.83-22.48.23-45.74,1.55-23.42,1.33-36,6.97-50.64,0-3.72-1.77-6.22-3.71-6.54-6.18Z"/><path class="cls-23" d="M1165.43,361.44c1.45-1.81,3.58-4.41,6.26-7.47,5.26-6,9.75-10.48,11.16-11.85,10.74-10.38,27.27-18.38,28.59-16.74,1.29,1.6-11.33,12.99-20.97,20.34-9.07,6.92-17.35,11.67-23.14,14.68l-1.91,1.03Z"/><path class="cls-19" d="M864.69,615.6c14.6-4.15,14.15-3.2,19.33-5.15,10.97-4.13,10.65-7.49,21.78-11.07,4.62-1.49,13.33-4.19,17.43-.51,2.08,1.87,1.09,3.71,3.54,5.67,2.62,2.1,5.22,1.16,12.52,2.06,4.48.55,9.1,1.12,9.26,2.32.29,2.24-15.17,5.73-22.87,7.47-12.55,2.84-18.83,4.25-25.32,3.86-5.84-.35-8.68-1.46-17.43-1.55-3.52-.04-6.48.15-12.25.52-14.11.9-20.27,1.95-20.42,1.29-.17-.75,7.39-2.89,14.43-4.89Z"/><path class="cls-17" d="M644.32,744.99c3.46-3.02,9.93,1.84,20.22,3.48,12.48,1.98,23.42-1.92,29.41-4.06,8.81-3.14,8.32-5.01,17.15-7.92,11.67-3.84,21.56-3.55,23.48-3.48,11.03.43,13.64,4.45,33.08,11.2,8.6,2.98,14.91,4.61,23.28,6.76,15.15,3.9,31.12,6.84,40.03,7.73,0,0,41.38,3.15,72.9-16.61,1.57-.99,14.05-8.8,16.13-14.48.11-.29.39-1.14,1.22-1.74,2.93-2.11,9.11,1.4,11.64,2.7,13.12,6.79,33.07,8.71,45.74,7.53,4.57-.43,7.45-1.19,10.41.58,5.99,3.56,7.11,14.31,4.9,19.38-6.1,14.01-48.01,10.33-88.46,8.13-79.65-4.34-80.58,8.14-174.56,6.29-66.93-1.31-149.22-6.37-149.18-6.81.01-.16,46.6-1.12,52.11-4.14,4.62-2.53,7.15-6.82,7.56-7.53,2.32-4.04,1.26-5.56,2.93-7.02Z"/><path class="cls-19" d="M808.36,498.15c-.52-1.35,1.59.21,16.75-7.58,13.73-7.06,15.26-6.62,21.22-5.67,5.14.82,34.97-15.63,33.65-10.71-.96,3.59-22.22,11.7-41.23,17.06-15.76,4.45-29.8,8.41-30.39,6.89Z"/></g></g></svg>